SplineFontDB: 3.2
FontName: UFSTangutFixup
FullName: UFSTangutFixup
FamilyName: UFSTangutFixup
Weight: Standard
Copyright: Copyrightc2025byLosketch.Allrightsreserved.
Version: 3.178
ItalicAngle: 0
UnderlinePosition: -62
UnderlineWidth: 25
Ascent: 800
Descent: 200
InvalidEm: 0
sfntRevision: 0x00032d91
LayerCount: 2
Layer: 0 0 "+BBcEMAQ0BD0EOAQ5 +BD8EOwQwBD0A" 1
Layer: 1 0 "+BB8ENQRABDUENAQ9BDgEOQAA +BD8EOwQwBD0A" 0
XUID: [1021 59 1751208496 20256]
StyleMap: 0x0040
FSType: 0
OS2Version: 4
OS2_WeightWidthSlopeOnly: 1
OS2_UseTypoMetrics: 1
CreationTime: 1752977242
ModificationTime: 1767173314
PfmFamily: 17
TTFWeight: 400
TTFWidth: 5
LineGap: 0
VLineGap: 0
Panose: 1 1 1 1 1 1 1 1 1 1
OS2TypoAscent: 856
OS2TypoAOffset: 0
OS2TypoDescent: -150
OS2TypoDOffset: 0
OS2TypoLinegap: 0
OS2WinAscent: 856
OS2WinAOffset: 0
OS2WinDescent: 150
OS2WinDOffset: 0
HheadAscent: 1200
HheadAOffset: 0
HheadDescent: -350
HheadDOffset: 0
OS2SubXSize: 700
OS2SubYSize: 650
OS2SubXOff: 0
OS2SubYOff: 150
OS2SupXSize: 700
OS2SupYSize: 650
OS2SupXOff: 0
OS2SupYOff: 450
OS2StrikeYSize: 50
OS2StrikeYPos: 272
OS2CapHeight: 712
OS2XHeight: 502
OS2Vendor: 'LOSK'
OS2CodePages: 00020001.00000000
OS2UnicodeRanges: 00000000.2a000000.00000000.00000000
MarkAttachClasses: 1
DEI: 91125
LangName: 1033 "Copyright (c) 2025 by Losketch. All rights reserved." "" "" "" "" "Version 3.178;July 31, 2025;FontCreator 15.0.0.3017 64-bit" "" "UFSet is a trademark of Losketch." "Losketch" "Losketch" "" "https://github.com/Losketch" "https://github.com/Losketch" "This Font Software is licensed under the SIL Open Font License, Version 1.1. This Font Software is distributed on an +ACIA-AS IS+ACIA BASIS, WITHOUT WARRANTIES OR CONDITIONS OF ANY KIND, either express or implied. See the SIL Open Font License for the specific language, permissions and limitations governing your use of this Font Software." "https://scripts.sil.org/OFL" "" "" "" "" "++8z70gAA"
GaspTable: 3 8 10 17 5 65535 15 1
Encoding: UnicodeFull
Compacted: 1

StartChar: .notdef
Encoding: 1114112 -1 0
Width: 1000
GlyphClass: 1
Flags: W
HStem: 615 7<677.664 721> 680 148<704 809.238>
VStem: 303 22<265 279.286> 520 122<660.5 729>
LayerCount: 2
Fore
SplineSet
478 183 m 1
 511 183 l 1
 528 201 543 219 556 239 c 1
 478 239 l 1
 478 183 l 1
701 80 m 1
 730 49 771 22 823 0 c 1
 792 -19 774 -33 768 -41 c 1
 725 -20 690 5 663 35 c 1
 631 4 590 -22 541 -42 c 1
 536 -36 516 -23 481 -4 c 1
 507 6 l 1
 399 6 l 1
 399 -22 l 1
 342 -22 l 1
 342 183 l 1
 417 183 l 1
 417 239 l 1
 325 239 l 1
 325 294 l 1
 417 294 l 1
 417 373 l 1
 478 373 l 1
 478 294 l 1
 566 294 l 1
 566 255 l 1
 588 292 603 333 611 378 c 1
 670 372 l 1
 664 345 656 319 648 295 c 1
 798 295 l 1
 798 241 l 1
 764 241 l 1
 751 177 730 124 701 80 c 1
552 27 m 1
 583 43 609 62 629 82 c 0
 627 85 622 95 614 111 c 0
 606 128 597 151 588 182 c 1
 579 169 569 157 558 146 c 1
 556 148 554 150 552 152 c 1
 552 27 l 1
707 241 m 1
 626 241 l 1
 634 203 647 166 666 130 c 1
 685 162 699 199 707 241 c 1
495 130 m 1
 399 130 l 1
 399 60 l 1
 495 60 l 1
 495 130 l 1
364 365 m 1
 345 328 325 295 303 265 c 1
 303 -42 l 1
 244 -42 l 1
 244 194 l 1
 225 176 206 158 185 143 c 1
 179 154 165 169 143 190 c 1
 215 244 268 306 302 376 c 1
 364 365 l 1
315 587 m 1
 284 602 235 620 168 642 c 1
 218 685 l 1
 239 679 262 672 288 662 c 0
 313 654 338 643 362 632 c 1
 315 587 l 1
345 701 m 1
 315 716 266 736 199 760 c 1
 252 802 l 1
 295 787 343 769 394 746 c 1
 345 701 l 1
670 558 m 1
 496 558 l 1
 514 538 542 519 582 501 c 1
 618 517 647 536 670 558 c 1
461 792 m 1
 704 792 l 1
 704 683 l 2
 704 682 705 681 706 680 c 0
 708 680 710 680 712 680 c 0
 761 680 794 681 810 683 c 1
 810 680 810 676 811 673 c 0
 812 660 815 644 819 626 c 1
 802 623 765 622 708 622 c 0
 683 622 665 627 656 637 c 0
 647 647 642 663 642 685 c 2
 642 734 l 1
 520 734 l 1
 520 729 l 2
 520 717 518 705 514 692 c 0
 511 680 504 668 495 656 c 0
 486 645 473 634 456 623 c 2
 443 615 l 1
 706 615 l 1
 721 616 l 1
 731 617 l 1
 778 604 l 1
 747 550 705 507 653 474 c 1
 707 457 773 444 851 434 c 1
 810 407 787 389 784 381 c 1
 707 391 640 409 582 437 c 1
 517 410 447 391 371 381 c 1
 368 386 363 393 356 400 c 0
 348 408 335 419 317 434 c 1
 391 443 457 457 515 476 c 1
 481 499 451 527 425 558 c 1
 393 558 l 1
 393 601 l 1
 392 607 l 2
 392 624 387 639 377 652 c 1
 416 664 439 676 448 687 c 0
 457 698 461 711 461 725 c 2
 461 792 l 1
383 548 m 1
 337 484 294 431 254 388 c 1
 193 418 l 1
 246 471 292 524 332 577 c 1
 383 548 l 1
949 828 m 1
 51 828 l 1
 51 -69 l 1
 949 -69 l 1
 949 828 l 1
EndSplineSet
EndChar

StartChar: uni0558
Encoding: 1368 1368 1
Width: 517
GlyphClass: 1
Flags: W
HStem: 13 68<157 279.803> 225 88<230.109 479>
VStem: 294 103<-121.798 0.463181>
LayerCount: 2
Fore
SplineSet
188 -234 m 0
 174 -234 163 -233 155 -230 c 1
 161 -190 l 1
 168 -187 178 -184 190 -182 c 0
 260 -154 294 -110 294 -49 c 0
 294 -45 294 -40 293 -36 c 0
 286 -4 265 13 231 13 c 2
 52 13 l 1
 202 557 l 1
 307 557 l 1
 230.109243697 313 l 1
 479 313 l 1
 479 225 l 1
 202.378151261 225 l 1
 157 81 l 1
 234 81 l 2
 279 81 317 68 348 42 c 0
 379 15 396 -17 397 -57 c 0
 397 -84 391 -111 378 -139 c 1
 335 -202 271 -234 188 -234 c 0
EndSplineSet
EndChar

StartChar: uni058B
Encoding: 1419 1419 2
Width: 517
GlyphClass: 1
Flags: W
HStem: -286 34<134.75 238>
VStem: 23 110<-248.397 -165.787>
LayerCount: 2
Fore
SplineSet
302 314 m 1
 518 325 l 1
 418 -10 l 1
 311 -6 l 1
 390 230 l 1
 271 222 l 1
 179 -74 133 -224 133 -227 c 0
 133 -242 147 -250 177 -252 c 2
 238 -254 l 1
 238 -286 l 1
 77 -281 l 2
 41 -279 23 -265 23 -239 c 0
 23 -231 104 31 267 547 c 1
 374 543 l 1
 302 314 l 1
EndSplineSet
EndChar

StartChar: uni058C
Encoding: 1420 1420 3
Width: 400
GlyphClass: 1
Flags: W
HStem: -279 44<81.4538 153.935>
VStem: 16 113<-211.296 -137.563>
LayerCount: 2
Fore
SplineSet
28 -137 m 0
 41 -120 58 -111 79 -111 c 0
 89 -111 99 -114 107 -121 c 0
 121 -131 129 -146 129 -165 c 0
 129 -178 125 -190 117 -201 c 0
 107.024120219 -214.81275662 95.2816455723 -222.736863689 80.8688151375 -225.676082131 c 1
 83 -227 l 2
 91 -232 101 -235 113 -235 c 0
 125 -235 138 -230 151 -220 c 0
 164 -209 170 -196 170 -179 c 0
 170 -168 167 -151 161 -130 c 0
 158 -122 157 -111 157 -99 c 0
 157 -74 162 -45 171 -13 c 2
 278 291 l 1
 401 295 l 1
 246 -180 l 2
 245 -183 241 -190 235 -201 c 0
 228 -212 220 -225 210 -240 c 0
 193 -266 171 -279 144 -279 c 0
 120 -279 100 -274 82 -266 c 0
 39.5478693278 -250.203858355 17.5640195484 -223.686236241 17.0107116839 -187.409395169 c 0
 16.3369042137 -183.534693095 16.0000004786 -179.387669306 16 -175 c 0
 16 -161 20 -149 28 -137 c 0
EndSplineSet
EndChar

StartChar: u17121
Encoding: 94497 94497 4
Width: 1000
GlyphClass: 1
Flags: W
HStem: -76.2823 77.3515<483.221 590.738> -37 15<166.267 177.751> 120 16<582.304 594.42> 345 30<297 658> 491 30<247 362 427 486.737 515 657 722 798> 644 30<311 597> 742 30<227 808>
VStem: 151 63<300.703 742> 362 65<416.621 491 521 578.205> 657 65<419.621 491 521 578.205>
LayerCount: 2
Fore
SplineSet
427 430 m 1x3fc0
 425.254883747 421.274418733 387.782322575 409 372 409 c 2
 362 409 l 1
 362 491 l 1
 247 491 l 1
 238 521 l 1
 362 521 l 1
 362 609 l 1
 463 598 l 1
 459 583 447 574 427 570 c 1
 427 521 l 1
 470 521 l 1
 522 564 565 605 597 644 c 1
 311 644 l 1
 302 674 l 1
 604 674 l 1
 637 713 l 1
 721 648 l 1
 712 638 698 631 678 628 c 1
 635 594 581 558 515 521 c 1
 657 521 l 1
 657 609 l 1
 758 598 l 1
 754 583 742 574 722 570 c 1
 722 521 l 1
 798 521 l 1
 842 578 l 1
 926 507 l 1
 922 497 913 491 899 491 c 2
 722 491 l 1
 722 433 l 1
 720.254883747 424.274418733 682.782322575 412 667 412 c 2
 657 412 l 1
 657 491 l 1
 427 491 l 1
 427 430 l 1x3fc0
43 -67 m 1
 139.645543661 106.659961267 151 335.571080578 151 523 c 2
 151 807 l 1
 227 772 l 1
 808 772 l 1
 855 830 l 1
 897 796 926 772 941 758 c 1
 937 748 928 742 914 742 c 2
 214 742 l 1
 214 524 l 2
 214 227.379423595 166.634416433 51.2452621329 59 -77 c 1
 43 -67 l 1
425.35262041 38.7852365394 m 1
 411.600573738 32.4333957541 317.120063969 -9.58520487564 177 -37 c 1
 154 -22 l 1x7fc0
 323 17 492 113 519 159 c 1
 610 136 l 1
 587 122 582 120 575 120 c 2
 563 120 l 1
 533.163946123 96.8618357692 494.429698718 72.982155411 451.763850976 51.5215182292 c 1
 492.581315937 9.58533493671 515.248910558 1.06924543148 529.771422778 1.06924543148 c 0
 533.57884558 1.06924543148 681.941144565 38.380225893 774 114 c 1
 405 189 l 1
 374 162 l 1
 295 223 l 1
 307.816663264 231.239283527 322.309518948 236.126182212 338.478567054 236.126182212 c 0
 339.971422738 236.126182212 341.478567054 236.084524053 343 236 c 2
 658 345 l 1
 297 345 l 1
 288 375 l 1
 687 375 l 1
 730 409 l 1
 813 347 l 1
 803.717967697 335.861561237 791.851251684 329.892489894 776.600148039 329.892489894 c 0
 775.420471066 329.892489894 774.220545085 329.92820323 773 330 c 2
 432 218 l 1
 784 146 l 1
 829 177 l 1
 899 104 l 1
 891.143149884 98.7620999228 878.713700232 95.8104996138 862.376951584 95.8104996138 c 0
 860 95.8104996138 857.540333076 95.8729833462 855 96 c 1
 769.873131188 9.37967734901 577.197648805 -76.282269343 487.07588643 -76.282269343 c 0xbfc0
 475.858865328 -76.282269343 464.494680906 -75.5326241208 453 -74 c 1
 453.204950806 -68.2613774194 453.314974802 -62.9176579381 453.314974802 -57.8928842152 c 0
 453.314974802 -18.2477885309 446.46587755 1.54263349355 425.35262041 38.7852365394 c 1
EndSplineSet
EndChar

StartChar: u17C51
Encoding: 97361 97361 5
Width: 1000
GlyphClass: 1
Flags: HW
HStem: -2 14<50.5 69.7139> 428 30<141 346 536 742> 583 30<74 253 318 457.726 477 648 713 808> 755 30<158 622>
VStem: 253 65<493.648 583 613 690.61> 648 65<494.648 583 613 677.61>
LayerCount: 2
Fore
SplineSet
478 143 m 1
 464.097264684 114.86351186 364.421314228 -75.25 209.375 -75.25 c 0
 198.625 -75.25 187.5 -74.5 176 -73 c 1
 182.937399779 -55.2710894546 186.394823554 -40.0963925584 186.394823554 -23.5463062371 c 0
 186.394823554 -5.80142786 182.420180417 13.5245937308 174.498691771 39.2753440994 c 1
 163.029834466 33.401128354 106.571712542 5.5102446489 54 -2 c 1
 47 12 l 1
 121 32 158 62 208 124 c 2
 224 144 l 1
 238 164 251 184 266 210 c 1
 351 176 l 1
 344.830678732 162.975877324 327.854047924 158.879532094 314.564404226 158.879532094 c 0
 308.466697502 158.879532094 303.145198591 159.741920563 300 161 c 1
 284 141 272 126 267 120 c 2
 250 101 l 1
 224.84530832 74.4478254489 212.384846078 62.0545991169 195.560951541 51.1976513223 c 1
 212.982475161 20.34269064 224.978047263 -0.494583182675 247.758381322 -0.494583182675 c 0
 251.23516257 -0.494583182675 254.96315856 -0.00921036004981 259 1 c 0
 286.224145203 14.6120726017 345.596958616 54.2946775784 406 160 c 1
 343 186 l 1
 343.136267457 186.154041473 l 1
 212 239 l 1
 194 212 l 1
 110 265 l 1
 122 275 136 281 153 282 c 1
 346 428 l 1
 141 428 l 1
 132 458 l 1
 352 458 l 1
 392 491 l 1
 470 429 l 1
 460.721726998 418.793899698 448.860863499 412.892116891 434.417409503 412.892116891 c 0
 433.293899698 412.892116891 432.154763197 412.9278273 431 413 c 2
 229 268 l 1
 365.883248731 211.868020305 l 1
 366 212 l 1
 412 193 l 1
 457 223 l 1
 522 151 l 1
 514.143149884 145.762099923 501.713700232 142.810499614 485.376951584 142.810499614 c 0
 483 142.810499614 480.540333076 142.872983346 478 143 c 1
584 63 m 1
 608.89085783 18.7495860798 621.91260591 -0.563048380925 643.486687392 -0.563048380925 c 0
 647.059057942 -0.563048380925 650.865923172 -0.0335192070818 655 1 c 0
 717.873642908 32.4368214538 770.894373971 103.197738565 803 160 c 1
 739 186 l 1
 690 133 639 92 584 63 c 1
875 143 m 1
 859.715419019 112.78629341 758.474905211 -75.25 606.21875 -75.25 c 0
 595.5625 -75.25 584.5 -74.5 573 -73 c 1
 578.233863992 -57.2984080242 582.290444813 -42.8844366259 582.290444813 -24.3042510944 c 0
 582.290444813 -5.04057569196 577.9299242 18.7014679238 566 53 c 1
 534 37 495 21 447 5 c 1
 440 18 l 1
 530 60 609 124 677 211 c 1
 608 239 l 1
 589 212 l 1
 505 265 l 1
 517 275 531 281 548 282 c 1
 742 428 l 1
 536 428 l 1
 527 458 l 1
 748 458 l 1
 788 491 l 1
 866 429 l 1
 856.721726998 418.793899698 845.721726998 412.892116891 831.402534688 412.892116891 c 0
 830.288690799 412.892116891 829.154763197 412.9278273 828 413 c 2
 624 268 l 1
 698 238 l 1
 718 266 735 295 751 323 c 1
 851 285 l 1
 846.666666667 275.611111111 838.682098765 270.916666667 826.669581619 270.916666667 c 0
 822.049382716 270.916666667 816.833333333 271.611111111 811 273 c 1
 793 250 777 230 762 212 c 1
 809 193 l 1
 854 223 l 1
 919 151 l 1
 911.143149884 145.762099923 898.713700232 142.810499614 882.376951584 142.810499614 c 0
 880 142.810499614 877.540333076 142.872983346 875 143 c 1
477 613 m 1
 648 613 l 1
 648 700 l 1
 598 671 541 642 477 613 c 1
318 507 m 1
 316.228646607 498.143233034 277.205588888 486 263 486 c 2
 253 486 l 1
 253 583 l 1
 74 583 l 1
 65 613 l 1
 253 613 l 1
 253 721 l 1
 354 710 l 1
 349 695 337 686 318 682 c 1
 318 613 l 1
 437 613 l 1
 512 661 573 709 622 755 c 1
 158 755 l 1
 149 785 l 1
 637 785 l 1
 670 824 l 1
 754 759 l 1
 745 749 731 742 711 739 c 1
 692 726 675 715 660 707 c 1
 749 697 l 1
 744 682 732 673 713 669 c 1
 713 613 l 1
 808 613 l 1
 854 674 l 1
 942 599 l 1
 938 589 929 583 915 583 c 2
 713 583 l 1
 713 508 l 1
 711.228646607 499.143233034 672.205588888 487 658 487 c 2
 648 487 l 1
 648 583 l 1
 318 583 l 1
 318 507 l 1
EndSplineSet
EndChar

StartChar: u17D0B
Encoding: 97547 97547 6
Width: 1000
GlyphClass: 1
Flags: HW
HStem: -74 58<733.145 835.173> 325 28<383 468> 451 30<216 318 383 546.784> 661 30<137 318 383 467>
VStem: 318 65<-67.3521 233 266.75 325 353 451 481 530 619 661 691 793.205> 478 65<-28.2327 318.293> 569 65<409.578 450.035> 656 67<-14.8542 344.212 359 774.807> 888 16<177.157 219>
LayerCount: 2
Fore
SplineSet
467 661 m 1
 383 661 l 1
 383 619 l 1
 467 661 l 1
318 530 m 1
 216 481 l 1
 318 481 l 1
 318 530 l 1
723 15 m 2
 723 -16 743.172043011 -16 755 -16 c 0
 793 -16 816 -15 825 -14 c 0
 846.353660405 -5.45853583782 851.820652174 -3.27173913043 886 209 c 0
 887 213 888 216 888 219 c 1
 904 219 l 1
 905 -1 l 1
 929 -9 941 -19 942 -30 c 0
 942 -64.0271703961 919.164012189 -74 751 -74 c 0
 666.558063947 -74 656 -45.6065962462 656 -2 c 2
 656 807 l 1
 760 795 l 1
 756 780 744 771 723 767 c 1
 723 359 l 1
 784 413 830 477 859 550 c 1
 935 491 l 1
 930 483 922 478 912 478 c 0
 909 478 904 479 897 480 c 1
 856 418 798 369 723 334 c 1
 723 15 l 2
298 369 m 1
 290.755247389 360.306296867 279.552230342 355.481396872 266.305179196 355.481396872 c 0
 262.059109283 355.481396872 257.6030371 355.977102867 253 357 c 1
 229 301 199 252 165 211 c 1
 194 161 211 126 215 104 c 1
 228 124 262 192 318 308 c 1
 318 451 l 1
 175 451 l 1
 150 430 l 1
 94 484 l 1
 109 492 127 498 148 502 c 1
 318 587 l 1
 318 661 l 1
 137 661 l 1
 128 691 l 1
 318 691 l 1
 318 824 l 1
 419 813 l 1
 415 798 403 789 383 785 c 1
 383 691 l 1
 468 691 l 1
 498 729 l 1
 590 654 l 1
 582 646 569 642 550 641 c 1
 383 561 l 1
 383 481 l 1
 546.783703519 481 l 1
 530.580481899 514.179539635 509.449095888 545.309388131 484 575 c 1
 495 585 l 1
 563.925118589 543.282165065 634.047653317 489.828180652 634.047653317 445.012485326 c 0
 634.047653317 429.086099167 628.639798548 408 600 408 c 0
 588 408 578 413 569 421 c 0
 567 427 566 431 565 433 c 2
 559 451 l 1
 383 451 l 1
 383 353 l 1
 468 353 l 1
 504 394 l 1
 586 332 l 1
 577 323 563 316 543 312 c 1
 543 -15 l 1
 529 -27 511 -34 488 -36 c 1
 478 -36 l 1
 478 325 l 1
 383 325 l 1
 383 -54 l 1
 381.254883747 -62.725581267 343.782322575 -75 328 -75 c 2
 318 -75 l 1
 318 233 l 1
 263.470239729 103.307597193 246.829472848 55.6479721381 246.829472848 23.4681243135 c 0
 246.829472848 13.4845964952 248.43114428 4.99099502106 251 -4 c 1
 238.747816564 -33.7553026297 180.974006314 -72.2251104096 156 -75 c 1
 160.11284063 -44.4474696038 163.904951563 -13.8143051411 163.904951563 20.6801214336 c 0
 163.904951563 64.822495205 157.694909504 115.288154488 138 180 c 1
 122 163 99 142 71 117 c 1
 60 129 l 1
 123 215 172 312 208 420 c 1
 298 369 l 1
EndSplineSet
EndChar

StartChar: u180DF
Encoding: 98527 98527 7
Width: 1000
GlyphClass: 1
Flags: HW
HStem: 275 29<212 231.244> 336 28<719 786> 391 30<181 361> 459 30<567 654 719 879.27> 600 30<101 275.833 301 365> 657 30<506 654 719 779>
VStem: 147 65<60.2349 275> 339 65<-68.3521 281.205> 654 65<-64.3521 195 226.67 336 364 459 489 533 626 657 687 771.205> 796 65<-56.2327 329.293> 901 65<418.578 458.013>
LayerCount: 2
Fore
SplineSet
404 -55 m 1
 402.254883747 -63.725581267 364.782322575 -76 349 -76 c 2
 339 -76 l 1
 339 312 l 1
 440 301 l 1
 436 286 424 277 404 273 c 1
 404 -55 l 1
147 196 m 1
 147 315 l 1
 246 304 l 1
 243 288 232 279 214 275 c 1
 212 275 l 1
 212 206 l 2
 212 134.216315282 197.101524365 16.5116768013 113 -76 c 1
 100 -67 l 1
 130 -7 146 80 147 196 c 1
654 533 m 1
 567 489 l 1
 654 489 l 1
 654 533 l 1
779 657 m 1
 719 657 l 1
 719 626 l 1
 779 657 l 1
104 813 m 1
 115 818 l 1
 207.689852328 781.48581575 234.972378574 735.528759633 234.972378574 703.020137069 c 0
 234.972378574 686.597691246 228.009912037 673.607268827 219 667 c 0
 212.714285714 662.678571429 206.428571429 660.517857143 200.021592566 660.517857143 c 0
 190.119897959 660.517857143 179.928571429 665.678571429 169 676 c 1
 164 719 142 765 104 813 c 1
119 370 m 1
 63 424 l 1
 78 432 96 438 117 442 c 1
 365 600 l 1
 101 600 l 1
 92 630 l 1
 269 630 l 1
 298 684 329 748 361 822 c 1
 461 785 l 1
 453.285714286 774.714285714 442.632653061 769.571428571 428.411078717 769.571428571 c 0
 426.040816327 769.571428571 423.571428571 769.714285714 421 770 c 1
 382 716 342 670 301 630 c 1
 366 630 l 1
 395 666 l 1
 484 593 l 1
 476 585 463 581 444 580 c 1
 181 421 l 1
 361 421 l 1
 411 486 l 1
 504 407 l 1
 500 397 491 391 477 391 c 2
 144 391 l 1
 119 370 l 1
648 360 m 1
 641.890527588 353.890527588 633.38907548 345.38907548 616.580360981 345.38907548 c 0
 612.556658496 345.38907548 608.056919077 345.876240205 603 347 c 1
 578 291 549 243 515 202 c 1
 544 154 561 119 565 99 c 1
 575 114 605 171 654 270 c 1
 654 459 l 1
 526 459 l 1
 501 438 l 1
 445 492 l 1
 460 500 478 506 499 510 c 1
 654 591 l 1
 654 657 l 1
 506 657 l 1
 497 687 l 1
 654 687 l 1
 654 802 l 1
 755 791 l 1
 751 776 739 767 719 763 c 1
 719 687 l 1
 784 687 l 1
 813 724 l 1
 902 650 l 1
 894 642 881 638 862 637 c 1
 719 565 l 1
 719 489 l 1
 879.270259362 489 l 1
 863.004369897 522.554299818 841.704607827 554.011290868 816 584 c 1
 827 594 l 1
 858.374261028 575.010315694 966 509.868421053 966 452 c 0
 966 442.908553597 964.25 417 932 417 c 0
 921 417 910 422 901 430 c 0
 899 436 898 440 897 442 c 2
 891.333333333 459 l 1
 719 459 l 1
 719 364 l 1
 786 364 l 1
 822 405 l 1
 904 343 l 1
 895 334 881 327 861 323 c 1
 861 -43 l 1
 847 -55 829 -62 806 -64 c 1
 796 -64 l 1
 796 336 l 1
 719 336 l 1
 719 -51 l 1
 717.254883747 -59.725581267 679.782322575 -72 664 -72 c 2
 654 -72 l 1
 654 195 l 1
 610.746967023 93.046422269 597.606665089 50.4595800707 597.606665089 19.8691504698 c 0
 597.606665089 10.2141847632 598.915653083 1.75425705063 601 -7 c 1
 588.747816564 -36.7553026297 530.974006314 -75.2251104096 506 -78 c 1
 510.072299779 -48.3303873239 514.177372334 -18.4220015691 514.177372334 16.0935415765 c 0
 514.177372334 58.4389463678 507.998574423 107.718867927 488 172 c 1
 471 154 448 133 420 108 c 1
 410 119 l 1
 471 203 520 300 557 410 c 1
 648 360 l 1
EndSplineSet
EndChar

StartChar: u187F8
Encoding: 100344 100344 8
Width: 1000
GlyphClass: 1
Flags: W
HStem: -67 43<851 861.999> 140 25<603 662 726 786 850 853> 281 30<199 256> 290 14<607.5 618.72> 351 30<354 445 515 559> 408 30<91 289> 581 30<75 237 302 447 512 661 726 806> 734 30<145 728>
VStem: 123 65<-65.3521 281> 237 65<501.648 581 611 666.205> 267 65<-17.3521 276.762> 447 65<381 465.743 514.648 581 611 671.205> 552 71<-70.9093 -5.62857> 662 64<-61.7806 140 165 257 377.664 431.871 504.648 581 611 666.205> 732 62<295 334 360.995 383.068 429 510.247> 786 64<-23.7402 140 165 256.973> 897 28<26.625 96>
LayerCount: 2
Fore
SplineSet
332 270 m 1xefbc80
 332 -4 l 2
 331 -9 320 -15 299 -21 c 0
 290 -24 283 -25 277 -25 c 2
 267 -25 l 1
 267 281 l 1
 188 281 l 1
 188 -52 l 2
 187 -57 176 -63 155 -69 c 0
 146 -72 139 -73 133 -73 c 2
 123 -73 l 1
 123 344 l 1
 199 311 l 1
 256 311 l 1
 292 350 l 1
 373 289 l 1
 364 280 350 274 332 270 c 1xefbc80
335 498 m 1
 421 424 l 1
 417 414 408 408 394 408 c 2
 91 408 l 1
 82 438 l 1
 289 438 l 1
 335 498 l 1
806 611 m 1
 856 676 l 1
 949 597 l 1
 945 587 936 581 922 581 c 2
 726 581 l 1
 726 518 l 2
 725 513 714 507 693 501 c 0
 684 498 677 497 671 497 c 2
 661 497 l 1
 661 581 l 1
 512 581 l 1
 512 528 l 2
 511 523 500 517 479 511 c 0
 470 508 463 507 457 507 c 2
 447 507 l 1
 447 581 l 1
 302 581 l 1
 302 515 l 2
 301 510 290 504 269 498 c 0
 260 495 253 494 247 494 c 2
 237 494 l 1
 237 581 l 1
 75 581 l 1
 66 611 l 1
 237 611 l 1
 237 697 l 1
 338 686 l 1
 334 671 322 662 302 658 c 1
 302 611 l 1xcfdc80
 447 611 l 1
 447 702 l 1
 548 691 l 1
 544 676 532 667 512 663 c 1
 512 611 l 1
 661 611 l 1
 661 697 l 1
 762 686 l 1
 758 671 746 662 726 658 c 1
 726 611 l 1
 806 611 l 1
844 734 m 2
 145 734 l 1
 136 764 l 1
 728 764 l 1
 778 829 l 1
 871 750 l 1
 867 740 858 734 844 734 c 2
515 381 m 1
 559 381 l 1
 591 429 l 1
 658 366 l 1
 655 358 645 351 630 351 c 2
 491 351 l 1
 564 307 l 1
 560 301 548 297 534 298 c 0
 528 299 524 301 524 301 c 1
 491 249 452 205 405 172 c 1
 430 158 456 142 478 128 c 1
 504 163 531 206 558 256 c 1
 647 188 l 1
 641 182 629 178 617 180 c 0
 613 180 610 181 610 181 c 1
 606.130276037 175.723103687 602.167733292 170.384328186 598.106929597 165 c 1
 662 165 l 1
 662 305.259838932 l 1
 646.830115844 300.161248033 630.088279874 295.024522187 612 290 c 1
 603 304 l 1
 652 324 693 347 732 375 c 1
 732 527 l 1
 820 518 l 1
 816 506 804 498 794 496 c 1
 794 429 l 1
 805 440 826 464 847 496 c 1
 922 458 l 1
 917 451 907 447 897 446 c 0
 894.511857008 446 891.249857073 446.386928472 890.824250314 447.642152098 c 1
 862.462309244 417.977462219 828.695577103 391.166618705 794 369 c 1
 794 295 l 1xdfde80
 811 312 l 1
 881 266 l 1
 872 258 859 253 850 251 c 1
 850 165 l 1
 853 165 l 1
 884 202 l 1
 947 153 l 1
 944 146 933 140 920 140 c 2
 850 140 l 1
 850 -5 l 2
 850 -18 851 -24 851 -24 c 1
 860 -24 l 2
 861 -24 862 -24 862 -23 c 0
 866 -21 869 -18 872 -12 c 0
 879 4 887 39 897 96 c 1
 925 96 l 1
 926 -14 l 1
 938 -20 947 -28 948 -34 c 0
 948 -50 922 -62 878 -66 c 0
 869 -67 861 -67 854 -67 c 0
 821 -67 798 -60 791 -47 c 0
 787 -41 786 -33 786 -21 c 2
 786 140 l 1xdf9d80
 726 140 l 1
 726 -50 l 2
 725 -54 713 -60 696 -64 c 0
 689 -66 683 -67 677 -67 c 2
 662 -67 l 1
 662 140 l 1
 603 140 l 1
 595.323703683 161.323045326 l 1
 577.020530419 137.231448105 556.740010988 112.308287608 534 88 c 1
 594 40 623 3 623 -24 c 0
 621 -54 610 -72 589 -75 c 0
 586 -75 585 -75 583 -75 c 0
 572 -74 561 -70 552 -62 c 1
 545 -27 524 12 495 48 c 1
 442 0 378 -43 302 -77 c 1
 293 -61 l 1
 348 -22 401 29 453 94 c 1
 422 125 390 150 359 171 c 1
 395 216 429 277 462 351 c 1
 354 351 l 1
 347 381 l 1
 445 381 l 1
 445 497 l 1
 548 486 l 1
 547.015982622 473.20777408 535.380773031 463.320418764 515 459.196377206 c 1
 515 381 l 1
726 257 m 1
 726 165 l 1
 786 165 l 1
 786 257 l 1xcf9d80
 726 257 l 1
687 375 m 0
 677 376 667 380 656 388 c 1
 654 403 648 419 637 438 c 0
 630 451 619 464 605 477 c 1
 618 489 l 1
 650 475 673 462 693 447 c 0
 713 430 722 414 722 400 c 0
 722 389 714 379 698 376 c 0
 695 375 691 375 687 375 c 0
665.949600846 306.598528732 m 1
 693 297 l 1
 729 283 l 1
 732 283 l 1
 732 334 l 1xcf9e80
 716.743345715 325.735978929 694.212769555 316.259637545 665.949600846 306.598528732 c 1
EndSplineSet
EndChar

StartChar: u187F9
Encoding: 100345 100345 9
Width: 1000
GlyphClass: 1
Flags: W
HStem: 454 30<545 741> 589 30<497 808> 724 30<527 769>
VStem: 381 63<-60.1851 0.179199> 423 54<313.138 352.188>
CounterMasks: 1 e0
LayerCount: 2
Fore
SplineSet
623 6 m 0xe0
 634 -1 645 -3 657 1 c 0
 723 32 777 79 819 141 c 1
 736 184 l 1
 688 138 635 100 577 72 c 1
 599 36 614 14 623 6 c 0xe0
827 180 m 1
 871 210 l 1
 934 137 l 1
 925 131 910 128 890 129 c 1
 843 50 777 -11 692 -53 c 0
 658 -71 619 -77 574 -71 c 1
 581 -48 583 -27 581 -8 c 0
 577 13 570 37 560 64 c 1
 531 51 494 37 449 23 c 1
 442 37 l 1
 529 74 609 132 682 212 c 1
 610 250 l 1
 591 222 l 1
 508 281 l 1
 520 291 535 297 551 298 c 1
 741 454 l 1
 545 454 l 1
 536 484 l 1
 745 484 l 1
 784 516 l 1
 858 455 l 1
 849 444 836 438 820 439 c 1
 613 284 l 1
 705 239 l 1
 735 275 763 315 790 359 c 1
 887 319 l 1
 881 305 868 302 846 308 c 1
 815 269 788 237 763 211 c 1
 827 180 l 1
488 619 m 1
 808 619 l 1
 850 675 l 1
 932 605 l 1
 928 595 919 589 905 589 c 2
 497 589 l 1
 488 619 l 1
866 724 m 2
 527 724 l 1
 518 754 l 1
 769 754 l 1
 812 810 l 1
 893 740 l 1
 889 730 880 724 866 724 c 2
354 492 m 1
 430 447 471 408 477 374 c 0
 483 344 478 325 462 316 c 0
 459 314 456 313 454 313 c 0
 446 311 435 312 423 318 c 1xe8
 407 352 368 394 307 443 c 1
 251 387 198 339 147 299 c 1
 198 268 246 234 290 197 c 1
 309 228 328 263 347 303 c 1
 443 249 l 1
 437 241 429 237 417 237 c 0
 416 237 414 238 411 238 c 0
 407 238 405 239 404 239 c 0
 383 205 363 175 343 149 c 1
 406 88 440 35 444 -8 c 0
 446 -40 437 -58 416 -62 c 0
 414 -62 411 -62 409 -62 c 0
 400 -62 390 -58 381 -51 c 1xf0
 370 -11 342 37 297 95 c 1
 228 22 148 -36 58 -80 c 1
 47 -66 l 1
 125 -13 194 57 255 144 c 1
 202 203 146 254 87 296 c 1
 142 344 200 405 260 478 c 1
 209 515 158 545 108 568 c 1
 175 630 238 713 298 816 c 1
 395 766 l 1
 390 758 382 753 372 753 c 0
 369 753 364 754 357 755 c 1
 302 690 240 631 170 580 c 1
 213 563 255 544 296 524 c 1
 338 579 375 632 408 685 c 1
 502 630 l 1
 497 622 489 618 478 619 c 0
 477 619 475 619 472 620 c 0
 468 621 466 622 464 622 c 0
 437 587 401 544 354 492 c 1
EndSplineSet
EndChar

StartChar: u187FA
Encoding: 100346 100346 10
Width: 1000
GlyphClass: 1
Flags: W
HStem: -73 18<78.6667 115.996 462.444 480.51> 48 18<502.944 513.385> 188 29<549 677 749 808> 259 27<741 761.5> 365 30<481 529 594 652 717 775 840 859> 398 30<199 303 335 391> 501 30<125 404 529 787> 606 30<71 535.042 557 797>
VStem: 129 63<31.891 126.278 138.831 398> 393 52<-70.5752 -31.1593> 399 62<68.891 110.643 149 226 253 397.67> 529 65<253.648 365 395 437.205> 652 65<297.648 365 395 443.205> 677 64<217 259> 775 65<280.648 365 395 437.205>
LayerCount: 2
Fore
SplineSet
883 501 m 2xff92
 529 501 l 1
 520 531 l 1
 787 531 l 1
 829 586 l 1
 910 517 l 1
 906 507 897 501 883 501 c 2xff92
859 395 m 1
 888 435 l 1
 950 381 l 1
 946 371 937 365 923 365 c 2
 840 365 l 1
 840 294 l 2
 839 289 828 283 807 277 c 0
 798 274 791 273 785 273 c 2
 775 273 l 1
 775 365 l 1
 717 365 l 1
 717 311 l 2xff9a
 716 306 705 300 684 294 c 0
 681.574948911 293.191649637 679.295104557 292.528506009 677.140903952 291.991006131 c 1
 771 286 l 1
 769 266 757 261 743 259 c 0
 742 259 741 259 741 259 c 1
 741 217 l 1
 808 217 l 1
 848 262 l 1
 930 206 l 1
 920 191 913 188 900 188 c 2
 749 188 l 1
 807 164 l 1
 787 153 780 151 771 152 c 0
 765 153 761 154 756 155 c 0
 709 124 663 100 627 86 c 1
 640 77 666 61 698 47 c 1
 744 74 784 103 819 134 c 1
 915 94 l 1
 894 83 887 82 880 82 c 0
 871 84 867 84 863 85 c 0
 826 58 790 36 759 21 c 1
 759 21 803 5 830 -2 c 2
 830 -2 861 -9 929 -20 c 1
 929 -38 l 1
 905 -42 889 -52 880 -67 c 0
 879 -70 878 -72 877 -76 c 1
 813 -59 755 -36 702 -6 c 1
 628 -36 549 -58 466 -73 c 1
 450 -55 l 1
 533 -33 603 -5 657 24 c 1
 644 34 622 54 600 76 c 1
 576 67 552 60 508 48 c 1
 495 66 l 1
 596 106 649 148 694 188 c 1
 549 188 l 1
 536 217 l 1
 677 217 l 1
 677 291.955983504 l 1xff96
 671.221154104 290.525143106 666.348005499 290 662 290 c 2
 652 290 l 1
 652 365 l 1
 594 365 l 1
 594 267 l 2
 593 262 582 256 561 250 c 0
 552 247 545 246 539 246 c 2
 529 246 l 1
 529 365 l 1
 481 365 l 1
 481 395 l 1
 529 395 l 1
 529 468 l 1
 630 457 l 1
 626 442 614 433 594 429 c 1
 594 395 l 1
 652 395 l 1
 652 474 l 1
 753 463 l 1
 749 448 737 439 717 435 c 1
 717 395 l 1xff9a
 775 395 l 1
 775 468 l 1
 876 457 l 1
 872 442 860 433 840 429 c 1
 840 395 l 1
 859 395 l 1
116 531 m 1
 404 531 l 1
 441 581 l 1
 515 517 l 1
 511 507 502 501 488 501 c 2
 125 501 l 1
 116 531 l 1
391 666 m 0
 379 654 362 653 342 664 c 1
 325 711 288 758 233 807 c 1
 243 815 l 1
 322 798 372 769 394 726 c 0
 407 701 406 681 391 666 c 0
797 636 m 1
 847 701 l 1
 940 622 l 1
 936 612 927 606 913 606 c 2
 71 606 l 1
 62 636 l 1
 525 636 l 1
 568 690 609 752 650 822 c 1
 751 784 l 1
 742 772 729 767 711 769 c 1
 665 721 613 676 557 636 c 1
 797 636 l 1
365 174 m 1
 399 149 l 1
 399 226 l 1xffb2
 399 226 394 229 386 231 c 2
 386 231 381 233 377 235 c 1
 341 197 298 165 251 142 c 1
 274 129 297 115 314 104 c 1
 330 123 347 146 365 174 c 1
199 428 m 1
 391 428 l 1
 423 471 l 1
 493 406 l 1
 487 399 475 392 461 388 c 1
 461 83 l 2
 461 79 451 73 432 66 c 0
 425 64 418 62 412 62 c 2
 399 62 l 1
 399 110.64253302 l 1xffb2
 388.326282025 98.0948036404 375.105271416 83.1052714164 361 69 c 1
 409 32 436 -1 445 -29 c 0
 450 -49 447 -62 435 -71 c 0
 432 -73 428 -74 425 -75 c 0
 417 -76 405 -74 393 -68 c 1xffd2
 373 -32 349 4 324 33 c 1
 260 -23 178 -61 80 -76 c 1
 76 -61 l 1
 151 -39 220 5 287 74 c 1
 269 93 248 112 226 131 c 1
 226 131 221 129 213 126 c 0
 207 124 202 123 192 119 c 1
 192 46 l 2
 192 42 182 36 163 29 c 0
 156 27 149 25 143 25 c 2
 129 25 l 1
 129 465 l 1
 149 454 l 1
 199 428 l 1
192 138.831390563 m 1
 242.86144974 172.123870983 292.116091939 225.174137909 346 306 c 1
 399 253 l 1
 399 398 l 1
 335 398 l 1
 385 353 l 1
 379 347 369 343 358 345 c 0
 352 347 350 348 350 348 c 1
 317 309 270 274 206 244 c 1
 199 261 l 1
 233 289 268 334 303 398 c 1
 192 398 l 1
 192 138.831390563 l 1
EndSplineSet
EndChar

StartChar: u187FB
Encoding: 100347 100347 11
Width: 1000
GlyphClass: 1
Flags: W
HStem: 300 30<487 651 715 795> 538 30<519 651 715 759> 708 30<79 276 310 405>
VStem: 363 65<-46.0195 4.34933> 394 57<288.049 323.293> 592 62<620.46 710.165> 651 64<-70.9113 300 330 538>
LayerCount: 2
Fore
SplineSet
517 803 m 1xe4
 530 809 l 1
 601 771 641 729 654 684 c 0
 661 656 658 637 642 625 c 0
 627 613 608 618 592 636 c 1
 586 686 560 742 517 803 c 1xe4
795 330 m 1
 843 397 l 1
 934 315 l 1
 931 307 921 300 906 300 c 2
 715 300 l 1
 715 -57 l 2
 715 -62 704 -68 684 -74 c 0
 676 -77 669 -78 663 -78 c 2
 651 -78 l 1
 651 300 l 1
 487 300 l 1
 479 330 l 1
 651 330 l 1
 651 538 l 1
 519 538 l 1
 511 568 l 1
 675 568 l 1
 705 639 736 721 768 815 c 1
 866 776 l 1
 859 765 844 759 829 761 c 1
 794 694 753 630 705 568 c 1
 759 568 l 1
 808 635 l 1
 898 553 l 1
 895 545 885 538 870 538 c 2
 715 538 l 1
 715 330 l 1xe2
 795 330 l 1
337 129 m 1
 392 82 422 41 428 6 c 0
 433 -20 427 -37 409 -45 c 0
 404 -47 399 -48 395 -48 c 0
 386 -49 374 -46 363 -39 c 1xf0
 351 -6 326 34 288 76 c 1
 229 14 155 -38 68 -77 c 1
 58 -63 l 1
 126 -18 188 43 245 121 c 1
 193 174 139 217 83 252 c 1
 139 300 195 357 251 423 c 1
 204 454 154 481 102 503 c 1
 161 552 219 621 276 708 c 1
 79 708 l 1
 71 738 l 1
 405 738 l 1
 454 805 l 1
 547 723 l 1
 543 715 533 708 518 708 c 2
 310 708 l 1
 382 670 l 1
 378 663 369 657 357 657 c 0
 354 657 349 658 345 659 c 0
 294 607 234 559 166 516 c 1
 217 498 259 482 288 468 c 1
 326 516 364 570 402 629 c 1
 496 572 l 1
 491 564 482 560 471 562 c 0
 470 562 468 562 466 563 c 2
 466 563 462 564 460 564 c 0
 427 523 390 481 350 439 c 1
 411 405 445 376 451 349 c 0
 458 324 454 305 438 293 c 0
 435 291 432 289 429 288 c 0
 417 286 405 288 394 293 c 1xe8
 380 321 347 353 299 389 c 1
 249 340 197 296 147 258 c 1
 204 225 250 196 281 173 c 1
 301 204 321 240 342 282 c 1
 435 221 l 1
 430 214 420 209 407 211 c 0
 403 211 398 213 397 213 c 0
 379 185 359 156 337 129 c 1
EndSplineSet
EndChar

StartChar: u187FC
Encoding: 100348 100348 12
Width: 1000
GlyphClass: 1
Flags: W
HStem: 300 30<487 651 715 795> 538 30<519 651 715 759> 576 29<107 305> 729 30<86 320>
VStem: 364 66<-74.1977 7.22046> 592 62<620.46 710.165> 651 64<-70.9113 300 330 538>
LayerCount: 2
Fore
SplineSet
517 803 m 1xfc
 530 809 l 1
 601 771 641 729 654 684 c 0
 661 656 658 637 642 625 c 0
 627 613 608 618 592 636 c 1
 586 686 560 742 517 803 c 1xfc
795 330 m 1
 843 397 l 1
 934 315 l 1
 931 307 921 300 906 300 c 2
 715 300 l 1
 715 -57 l 2
 715 -62 704 -68 684 -74 c 0
 676 -77 669 -78 663 -78 c 2
 651 -78 l 1
 651 300 l 1
 487 300 l 1
 479 330 l 1
 651 330 l 1
 651 538 l 1
 519 538 l 1
 511 568 l 1
 675 568 l 1
 705 639 736 721 768 815 c 1
 866 776 l 1
 859 765 844 759 829 761 c 1
 794 694 753 630 705 568 c 1
 759 568 l 1
 808 635 l 1
 898 553 l 1
 895 545 885 538 870 538 c 2
 715 538 l 1
 715 330 l 1xfa
 795 330 l 1
455 311 m 0
 449 311 445 311 442 312 c 0
 413 252 378 196 337 146 c 1
 405 72 436 10 430 -39 c 0
 428 -61 419 -73 402 -76 c 0
 399 -76 396 -76 393 -76 c 0
 383 -74 373 -70 364 -63 c 1
 353 -10 330 44 296 100 c 1
 226 29 144 -31 49 -80 c 1
 37 -66 l 1
 123 -7 197 66 259 154 c 1
 226 199 187 244 140 289 c 1
 113 273 88 259 66 248 c 1
 56 260 l 1
 174 344 258 449 308 576 c 1
 107 576 l 1
 98 605 l 1
 305 605 l 1
 336 645 l 1
 427 582 l 1
 419 574 406 570 387 569 c 1
 339 461 263 371 158 301 c 1
 206 268 249 233 287 197 c 1
 320 250 349 308 373 371 c 1
 480 325 l 1
 474 316 466 311 455 311 c 0
436 729 m 2
 86 729 l 1
 77 759 l 1
 320 759 l 1
 370 824 l 1
 463 745 l 1
 459 735 450 729 436 729 c 2
EndSplineSet
EndChar

StartChar: u187FD
Encoding: 100349 100349 13
Width: 1000
GlyphClass: 1
Flags: W
HStem: -75 56<774.287 828.759> 81 30<574 708> 201 30<574 708> 312 30<585 697> 445 30<528 761> 663 30<92 220 285 381 446 541 606 701 766 818>
VStem: 220 65<565.648 663 693 780.205> 374 64<-79.8982 -16.7617> 381 65<553.648 663 693 789.205> 509 65<-67.3521 81 111 201 231 312> 541 65<547.648 663 693 789.205> 701 65<571.648 663 693 780.205> 708 65<-17.8535 81 111 131.16 154 201 231 307.762> 876 18<83.0356 136>
LayerCount: 2
Fore
SplineSet
217 184 m 1xff04
 249 166 278 147 303 128 c 1
 335 170 362 209 384 245 c 1
 474 187 l 1
 466 180 458 177 449 177 c 0
 441 179 436 181 434 181 c 0
 408 148 381 117 353 88 c 1
 411 36 439 -7 438 -43 c 0
 438 -64 430 -77 412 -81 c 0
 409 -82 406 -82 403 -82 c 0
 394 -81 384 -77 374 -70 c 1
 361 -29 341 11 312 50 c 1
 249 -5 179 -48 102 -80 c 1
 92 -65 l 1
 156 -25 218 29 276 96 c 1
 250 125 224 150 198 173 c 1
 172 157 142 142 109 129 c 1
 100 143 l 1
 189 199 273 287 352 404 c 0
 358 413 363 421 368 429 c 1
 457 373 l 1
 449 366 440 363 432 364 c 0
 427 364 422 365 416 367 c 1
 351 288 285 227 217 184 c 1xff04
125 304 m 1
 115 318 l 1
 185 371 249 451 306 557 c 1
 397 498 l 1
 390 490 381 487 371 488 c 0
 365 490 361 491 358 492 c 0
 295 412 222 352 138 310 c 0
 133 308 129 306 125 304 c 1
574 201 m 1xfe4c
 574 111 l 1
 708 111 l 1
 708 201 l 1
 574 201 l 1xfe4c
708 231 m 1
 708 312 l 1
 574 312 l 1
 574 231 l 1
 708 231 l 1
894 136 m 1
 895 -1 l 1
 913 -11 923 -21 924 -30 c 0
 923 -60 879 -75 791 -75 c 0
 749 -75 724 -67 715 -50 c 0
 710 -41 708 -27 708 -8 c 2
 708 81 l 1
 574 81 l 1
 574 -54 l 2xfe4c
 573 -59 562 -65 541 -71 c 0xfe24
 532 -74 525 -75 519 -75 c 2
 509 -75 l 1
 509 375 l 1
 533 365 l 1
 585 342 l 1
 697 342 l 1
 733 381 l 1
 814 320 l 1
 805 311 791 305 773 301 c 1
 773 154 l 1
 796 191 816 238 833 294 c 1
 923 242 l 1
 915 234 906 230 896 230 c 0
 890 230 886 231 883 232 c 0
 858 190 821 150 773 114 c 1
 773 16 l 2
 773 -4 775 -15 779 -18 c 0
 781 -18 783 -19 785 -19 c 0
 810 -19 824 -18 829 -16 c 0
 836 -13 841 -6 846 4 c 0
 856 26 866 70 876 136 c 1
 894 136 l 1
811 540 m 1
 904 461 l 1
 900 451 891 445 877 445 c 2
 528 445 l 1
 519 475 l 1
 761 475 l 1
 811 540 l 1
818 693 m 1
 868 758 l 1
 961 679 l 1
 957 669 948 663 934 663 c 2
 766 663 l 1
 766 585 l 2
 765 580 754 574 733 568 c 0
 724 565 717 564 711 564 c 2
 701 564 l 1
 701 663 l 1
 606 663 l 1
 606 561 l 2
 605 556 594 550 573 544 c 0
 564 541 557 540 551 540 c 2
 541 540 l 1
 541 663 l 1
 446 663 l 1
 446 567 l 2
 445 562 434 556 413 550 c 0
 404 547 397 546 391 546 c 2
 381 546 l 1
 381 663 l 1
 285 663 l 1
 285 579 l 2
 284 574 273 568 252 562 c 0
 243 559 236 558 230 558 c 2
 220 558 l 1
 220 663 l 1
 92 663 l 1
 83 693 l 1
 220 693 l 1
 220 811 l 1
 321 800 l 1
 317 785 305 776 285 772 c 1
 285 693 l 1
 381 693 l 1
 381 820 l 1
 482 809 l 1
 478 794 466 785 446 781 c 1
 446 693 l 1
 541 693 l 1
 541 820 l 1
 642 809 l 1
 638 794 626 785 606 781 c 1
 606 693 l 1
 701 693 l 1
 701 811 l 1
 802 800 l 1
 798 785 786 776 766 772 c 1
 766 693 l 1xfeb4
 818 693 l 1
EndSplineSet
EndChar

StartChar: u187FE
Encoding: 100350 100350 14
Width: 1000
GlyphClass: 1
Flags: W
HStem: 213 30<706 797> 384 30<643 766> 592 30<75 272.521 296 377>
VStem: 107 65<26.6479 237.93 247 524.205> 386 69<-73.2188 34.3374> 537 65<2.64787 383>
LayerCount: 2
Fore
SplineSet
883 210 m 1
 858 161 825 116 782 74 c 1
 832 44 888 20 949 0 c 1
 946 -12 l 1
 918 -16 896 -34 881 -64 c 0
 878 -68 876 -73 875 -77 c 1
 822 -49 775 -13 733 31 c 1
 677 -13 612 -49 538 -76 c 1
 526 -60 l 1
 593 -28 652 14 704 64 c 1
 678 97 656 131 638 167 c 1
 657 183 l 1
 680 154 708 127 741 102 c 1
 774 139 798 176 812 213 c 1
 688 213 l 1
 664 194 l 1
 615 257 l 1
 621 259 635 262 655 265 c 1
 779 384 l 1
 643 384 l 1
 635 414 l 1
 766 414 l 1
 804 457 l 1
 897 393 l 1
 889 385 877 381 861 380 c 1
 706 243 l 1
 797 243 l 1
 833 288 l 1
 919 223 l 1
 911 215 899 211 883 210 c 1
547 -5 m 2
 537 -5 l 1
 537 383 l 1
 527 378 512 372 493 364 c 1
 484 378 l 1
 584 440 675 534 757 662 c 0
 761 668 765 674 769 680 c 1
 857 614 l 1
 849 607 840 605 830 607 c 0
 826 607 822 608 818 610 c 1
 746 525 674 461 602 418 c 1
 602 16 l 2
 601 11 590 5 569 -1 c 0
 560 -4 553 -5 547 -5 c 2
754 741 m 2
 742 745 l 1
 690 681 626 630 550 593 c 0
 548 593 548 592 547 592 c 2
 537 606 l 1
 596 655 648 726 695 817 c 1
 783 750 l 1
 775 743 765 740 754 741 c 2
242 290 m 1
 272 264 301 236 329 206 c 1
 356 261 378 318 394 375 c 1
 494 330 l 1
 486 321 478 316 468 315 c 0
 467 315 466 315 463 315 c 0
 459 316 456 316 454 316 c 0
 432 260 405 206 372 156 c 1
 438 72 465 6 455 -42 c 0
 450 -63 439 -75 423 -76 c 0
 420 -76 416 -76 413 -75 c 0
 403 -72 394 -67 386 -59 c 1
 381 -10 364 46 335 106 c 1
 280 36 211 -26 130 -80 c 1
 117 -67 l 1
 192 -4 255 73 305 162 c 1
 282 201 256 238 227 273 c 1
 206 250 188 232 172 218 c 1
 172 40 l 2
 171 35 160 29 139 23 c 0
 130 20 123 19 117 19 c 2
 107 19 l 1
 107 555 l 1
 208 544 l 1
 204 529 192 520 172 516 c 1
 172 247 l 1
 231 335 277 445 312 579 c 1
 415 539 l 1
 409 530 400 524 390 523 c 2
 377 523 l 1
 337 429 292 351 242 290 c 1
115 806 m 1
 128 811 l 1
 192 783 230 749 240 709 c 0
 247 685 242 667 226 656 c 0
 210 645 193 649 176 667 c 1
 173 713 152 759 115 806 c 1
418 676 m 1
 497 608 l 1
 493 598 484 592 470 592 c 2
 75 592 l 1
 66 622 l 1
 266 622 l 1
 289 674 314 740 341 820 c 1
 443 784 l 1
 434 772 421 767 403 769 c 1
 371 716 335 667 296 622 c 1
 377 622 l 1
 418 676 l 1
EndSplineSet
EndChar

StartChar: u187FF
Encoding: 100351 100351 15
Width: 1000
GlyphClass: 1
Flags: W
HStem: -76 56<798.748 868.509> -51 30<82 136 201 255 320 375 440 460> 74 30<64 136 201 255 320 375 440 461> 170 31<636 722> 234 16<68.9375 85.6077> 308 30<553 806> 419 14<89.5 98.5624> 431 31<558 799> 565 30<485 567 632 740 805 849> 638 29<143 309.22 337 393> 746 30<525 715>
VStem: 136 65<-21 74 104 192.205> 198 64<686.143 764.562> 255 65<-21 74 104 202.205> 375 65<-21 74 104 192.205> 567 65<-67.5156 170 479.648 565 595 650.86> 731 64<-18.9451 168.52> 740 65<482.648 565 595 646.205> 806 67<281.948 308 338 428.697> 902 21<59.3379 117>
LayerCount: 2
Fore
SplineSet
320 -21 m 1x7ce730
 375 -21 l 1
 375 74 l 1
 320 74 l 1
 320 -21 l 1x7ce730
255 74 m 1
 201 74 l 1
 201 -21 l 1x7cf730
 255 -21 l 1
 255 74 l 1
440 104 m 1
 461 104 l 1
 493 148 l 1
 561 90 l 1
 557 80 548 74 534 74 c 2
 440 74 l 1
 440 -21 l 1
 460 -21 l 1
 490 20 l 1
 553 -35 l 1
 549 -45 540 -51 526 -51 c 2
 82 -51 l 1
 73 -21 l 1
 136 -21 l 1
 136 74 l 1
 64 74 l 1
 55 104 l 1
 136 104 l 1
 136 223 l 1
 237 212 l 1
 233 197 221 188 201 184 c 1
 201 104 l 1
 255 104 l 1
 255 233 l 1
 356 222 l 1
 352 207 340 198 320 194 c 1
 320 104 l 1
 375 104 l 1
 375 223 l 1
 476 212 l 1
 472 197 460 188 440 184 c 1
 440 104 l 1
849 595 m 1
 887 646 l 1
 962 581 l 1
 958 571 949 565 935 565 c 2
 805 565 l 1
 805 496 l 2
 804 491 793 485 772 479 c 0
 763 476 756 475 750 475 c 2
 740 475 l 1
 740 565 l 1
 632 565 l 1
 632 493 l 2
 631 488 620 482 599 476 c 0
 590 473 583 472 577 472 c 2
 567 472 l 1
 567 565 l 1
 485 565 l 1
 476 595 l 1
 567 595 l 1
 567 686 l 1
 637 678 l 1
 673 707 699 729 715 746 c 1
 525 746 l 1
 516 776 l 1
 726 776 l 1
 759 815 l 1
 843 750 l 1
 834 740 820 733 800 730 c 1
 754 702 704 676 650 652 c 0
 649 652 648 651 647 651 c 0
 640 648 635 646 632 644 c 2
 632 595 l 1
 740 595 l 1
 740 677 l 1
 841 666 l 1
 837 651 825 642 805 638 c 1
 805 595 l 1x3ce370
 849 595 l 1
143 812 m 1
 154 818 l 1
 215 801 251 775 262 740 c 0
 269 718 264 702 249 691 c 0
 233 679 216 682 198 699 c 1x3ceb30
 193 739 175 776 143 812 c 1
72 234 m 1
 65 250 l 1
 142 276 220 318 299 377 c 1
 262 404 225 427 186 446 c 1
 159 437 128 428 93 419 c 1
 86 433 l 1x3ee330
 221 483 324 551 393 638 c 1
 143 638 l 1
 134 667 l 1
 302 667 l 1
 324 710 346 761 369 822 c 1
 472 788 l 1
 463 775 450 770 432 772 c 1
 404 735 372 700 337 667 c 1
 394 667 l 1
 425 706 l 1
 512 644 l 1
 504 636 491 632 472 631 c 1
 416 558 330 500 214 456 c 1
 258 442 300 427 339 409 c 1
 375 438 411 472 448 511 c 1
 528 443 l 1
 520 437 511 435 502 437 c 0
 497 437 492 439 487 442 c 1
 459 418 431 396 403 376 c 1
 454 343 485 313 495 285 c 0
 502 265 499 251 484 240 c 0
 481 238 477 237 474 236 c 0
 465 234 454 236 443 240 c 1
 418 274 387 308 348 340 c 1
 261 288 169 252 72 234 c 1
923 117 m 1
 924 -5 l 1
 940 -14 950 -23 951 -32 c 0
 950 -61 901 -76 809 -76 c 0
 769 -76 745 -67 737 -50 c 0
 733 -41 731 -27 731 -9 c 2
 731 170 l 1
 628 170 l 1
 628 -55 l 2
 628 -60 617 -66 597 -72 c 0
 589 -75 582 -76 576 -76 c 2
 564 -76 l 1
 564 234 l 1
 591 222 l 1
 636 201 l 1
 722 201 l 1
 755 240 l 1
 831 179 l 1
 822 170 809 164 795 160 c 1
 795 14 l 2
 795 -6 797 -18 801 -19 c 0
 802 -20 803 -20 804 -20 c 0xbce3b0
 836 -20 855 -19 861 -18 c 0
 867 -15 872 -9 876 0 c 0
 885 25 894 64 902 117 c 1
 923 117 l 1
819 273 m 2
 806 273 l 1
 806 308 l 1
 553 308 l 1
 544 338 l 1
 806 338 l 1
 806 431 l 1
 558 431 l 1
 549 462 l 1
 799 462 l 1x3de330
 835 504 l 1
 910 440 l 1
 903 432 890 425 873 421 c 1
 873 298 l 2
 873 293 862 286 844 279 c 0
 835 275 826 273 819 273 c 2
EndSplineSet
EndChar

StartChar: u18D09
Encoding: 101641 101641 16
Width: 1000
GlyphClass: 1
Flags: W
HStem: 76 30<728 799 864 887> 121 30<197 330> 209 30<728 799 864 878> 237 30<74 359> 336 28<728 789> 409 30<182 332> 454 30<592 663 728 825> 512 30<182 332> 614 30<193 321> 652 30<531 663 728 785> 727 30<69 344>
VStem: 117 65<-62.752 121 315.648 409 439 512 542 614> 332 65<337.648 409 439 512 542 609.762> 341 65<-66.3521 116.762> 528 90<-6.10598 133.128> 663 65<-64.3521 76 106 209 266.56 336 364 370 373 454 484 522 620 652 682 783.205> 799 65<-56.2327 76 106 209 239 329.293>
LayerCount: 2
Fore
SplineSet
442 148 m 1xeff380
 435 158 l 1
 509 235 545 332 575 425 c 1
 663 373 l 1
 663 454 l 1
 553 454 l 1
 528 433 l 1
 472 487 l 1
 487 495 505 501 526 505 c 1
 663 583 l 1
 663 652 l 1
 531 652 l 1
 522 682 l 1
 663 682 l 1
 663 814 l 1
 764 803 l 1
 760 788 748 779 728 775 c 1
 728 682 l 1
 790 682 l 1
 819 718 l 1
 907 645 l 1
 899 637 886 633 867 632 c 1
 728 557 l 1
 728 484 l 1
 825 484 l 1
 867 540 l 1
 950 470 l 1
 946 460 937 454 923 454 c 2
 728 454 l 1
 728 364 l 1
 789 364 l 1
 825 405 l 1
 907 343 l 1
 898 334 884 327 864 323 c 1
 864 239 l 1
 878 239 l 1
 909 282 l 1
 975 225 l 1
 971 215 962 209 948 209 c 2
 864 209 l 1
 864 106 l 1
 887 106 l 1
 918 149 l 1
 984 92 l 1
 980 82 971 76 957 76 c 2
 864 76 l 1
 864 -43 l 1
 850 -55 832 -62 809 -64 c 2
 799 -64 l 1
 799 76 l 1
 728 76 l 1
 728 -51 l 2
 727 -56 716 -62 695 -68 c 0
 686 -71 679 -72 673 -72 c 2
 663 -72 l 1
 663 229 l 1
 639 161 625 117 621 98 c 0
 615 69 614 45 618 26 c 1
 613 9 595 -11 565 -32 c 0
 549 -43 537 -49 528 -50 c 1
 533 0 534 40 532 72 c 0
 529 115 521 159 510 204 c 1
 492 187 472 170 442 148 c 1xeff380
785 652 m 1
 728 652 l 1
 728 620 l 1
 785 652 l 1
663 522 m 1
 592 484 l 1
 663 484 l 1
 663 522 l 1
539 233 m 1
 558 194 572 161 581 134 c 1
 589 147 614 202 655 296 c 0
 658 304 660 310 663 316 c 2
 663 370 l 1
 658 366 653 362 648 360 c 0
 640 358 631 357 621 358 c 1
 599 310 571 269 539 233 c 1
799 239 m 1
 799 336 l 1
 728 336 l 1
 728 239 l 1
 799 239 l 1
728 209 m 1
 728 106 l 1
 799 106 l 1
 799 209 l 1
 728 209 l 1
197 151 m 1
 330 151 l 1
 366 190 l 1
 447 129 l 1
 438 120 424 114 406 110 c 1
 406 -53 l 2
 405 -58 394 -64 373 -70 c 0
 364 -73 357 -74 351 -74 c 2
 341 -74 l 1
 341 121 l 1xcff780
 186 121 l 1
 186 -48 l 2
 185 -53 174 -59 153 -65 c 0
 144 -68 137 -69 131 -69 c 2
 121 -69 l 1
 121 184 l 1
 197 151 l 1
65 267 m 1xdff380
 359 267 l 1
 405 327 l 1
 491 253 l 1
 487 243 478 237 464 237 c 2
 74 237 l 1
 65 267 l 1xdff380
182 512 m 1
 182 439 l 1
 332 439 l 1
 332 512 l 1xcffb80
 182 512 l 1
332 542 m 1
 332 614 l 1
 182 614 l 1
 182 542 l 1
 332 542 l 1
342 330 m 2
 332 330 l 1
 332 409 l 1
 182 409 l 1
 182 329 l 2
 181 324 170 318 149 312 c 0
 140 309 133 308 127 308 c 2
 117 308 l 1
 117 677 l 1
 136 668 l 1
 193 644 l 1
 321 644 l 1
 357 683 l 1
 438 622 l 1
 429 613 415 607 397 603 c 1
 397 351 l 2
 396 346 385 340 364 334 c 0
 355 331 348 330 342 330 c 2
459 727 m 2
 69 727 l 1
 60 757 l 1
 344 757 l 1
 394 821 l 1
 486 743 l 1
 482 733 473 727 459 727 c 2
EndSplineSet
EndChar

StartChar: u18D0A
Encoding: 101642 101642 17
Width: 1000
GlyphClass: 1
Flags: W
HStem: 274 30<710 779 839 863> 514 30<727 779 839 848> 564 30<295.416 334 394 418> 683 30<282 334 394 403>
VStem: 248 61<301.009 369.494> 334 60<-68.5526 564 594 610 617 683> 567 65<-74.0516 76.2446> 639 62<-41.6316 282 305.426 660.595> 738 66<605.163 674.738> 779 60<-68.9062 274 304 514>
LayerCount: 2
Fore
SplineSet
626 280 m 0xff80
 621 264 589 179 574 144 c 1
 627 57 647 -6 632 -47 c 0
 626 -68 615 -78 599 -77 c 0
 596 -76 593 -76 591 -75 c 0
 583 -72 575 -65 567 -55 c 1
 568 -10 560 37 545 87 c 1
 513 28 474 -25 429 -73 c 1
 416 -65 l 1
 457 -9 493 62 523 148 c 1
 505 189 488 222 471 249 c 1
 458 234 442 218 423 200 c 1
 410 210 l 1
 470 290 514 396 541 526 c 1
 634 485 l 1
 627 475 619 470 609 470 c 2
 597 470 l 1
 566 388 529 320 484 265 c 1
 501 246 519 223 538 197 c 1
 551 241 561 285 569 330 c 1
 639 305.425531915 l 1
 639 690 l 1
 733.133150028 679.213909893 l 1
 730.81562097 689.485718652 727.757946783 700.067791177 724 711 c 2
 716 732 l 2
 709 749 701 766 691 783 c 1
 704 786 l 1
 767 743 801 700 804 654 c 0
 806 629 799 613 782 605 c 0
 766 597 751 603 738 623 c 1
 739.236372151 639.69102404 737.797666134 657.146356128 733.920124191 675.602238549 c 1
 729.093387025 662.627725908 717.597365073 654.688303349 701 651 c 1
 701 -28 l 2
 700 -33 689 -39 669 -45 c 0
 661 -48 654 -49 648 -49 c 2
 639 -49 l 1
 639 282 l 1
 633 282 l 2
 631 281 628 280 626 280 c 0xff80
444 397 m 1
 431 406 l 1
 478 481 510 574 526 685 c 1
 620 649 l 1
 613 639 605 634 596 633 c 2
 591 633 l 2
 588 632 585 632 583 632 c 0
 553 541 507 463 444 397 c 1
710 274 m 1
 703 304 l 1
 779 304 l 1
 779 514 l 1
 727 514 l 1
 718 544 l 1
 785 544 l 1
 809 621 834 709 859 807 c 1
 954 763 l 1
 944 751 931 747 915 750 c 1
 882 677 847 608 807 544 c 1
 848 544 l 1
 874 582 l 1
 931 530 l 1
 927 520 919 514 905 514 c 2
 839 514 l 1
 839 304 l 1
 863 304 l 1
 890 342 l 1
 946 290 l 1
 942 280 934 274 920 274 c 2
 839 274 l 1
 839 -54 l 2
 838 -60 828 -66 808 -72 c 0
 801 -74 794 -75 789 -75 c 2
 779 -75 l 1
 779 274 l 1xff40
 710 274 l 1
279.673679665 564 m 1
 264.906744965 536.420134009 248.590015808 507.271139214 231 476 c 1
 261 444 l 1
 285 414 l 2
 302 389 310 368 309 352 c 0
 307 322 299 305 287 301 c 0
 282 299 275 299 268 299 c 0
 263 301 257 308 248 318 c 1
 240 347 223 380 197 419 c 1
 166 369 136 325 106 287 c 1
 136 259 161 231 182 205 c 1
 189 226 198 255 207 292 c 1
 306 254 l 1
 302 245 294 240 283 239 c 0
 280 238 276 238 271 239 c 1
 254 198 240 166 228 143 c 1
 276 71 297 14 291 -29 c 0
 284 -58 275 -74 265 -77 c 0
 258 -78 251 -78 241 -76 c 0
 239 -74 234 -67 226 -53 c 0
 225 -52 225 -51 224 -51 c 0
 220 -18 209 24 189 74 c 1
 151 15 106 -35 53 -79 c 1
 41 -67 l 1
 87 -10 126 59 158 141 c 1
 127 204 94 256 60 296 c 1
 92 343 125 401 159 470 c 1
 130 506 101 536 72 559 c 1
 116 627 156 715 193 823 c 1
 285 773 l 1
 280 765 273 760 263 760 c 0
 261 760 256 761 249 762 c 1
 206 677 163 609 120 558 c 1
 140 546 160 532 182 516 c 1
 204 562 226 613 248 670 c 1
 334 617 l 1
 334 683 l 1
 282 683 l 1
 273 713 l 1
 403 713 l 1
 429 751 l 1
 456 726 l 1
 486 699 l 1
 482 689 474 683 460 683 c 2
 394 683 l 1
 394 594 l 1
 418 594 l 1
 445 633 l 1
 502 580 l 1
 498 570 490 565 476 564 c 2
 394 564 l 1
 394 -54 l 2
 393 -60 383 -65 363 -72 c 0
 356 -74 349 -75 344 -75 c 2
 334 -75 l 1
 334 564 l 1
 279.673679665 564 l 1
295.415894799 594 m 1
 334 594 l 1
 334 610 l 1
 329 605 322 603 315 604 c 0
 314 604 312 604 309 605 c 0
 305 606 303 607 302 607 c 0
 299.851064039 602.702128079 297.655948821 598.369621714 295.415894799 594 c 1
EndSplineSet
EndChar

StartChar: u18D0B
Encoding: 101643 101643 18
Width: 1000
GlyphClass: 1
Flags: W
HStem: -13 11<940.061 946> 585 30<495 655 720 810> 759 27<720 726.739>
VStem: 397 63<-74.3906 -11.4299> 429 54<298.338 340.062> 655 65<615 759>
LayerCount: 2
Fore
SplineSet
860 359 m 1xe4
 823 287 778 220 724 156 c 1
 788 94 863 41 948 -2 c 1
 946 -13 l 1
 923 -14 904 -29 888 -57 c 0
 885 -63 883 -68 881 -73 c 1
 803 -23 737 38 682 111 c 1
 611 40 536 -26 463 -75 c 1
 455 -59 l 1
 508 -21 584 74 649 160 c 1
 621 206 596 257 575 313 c 1
 550 292 525 273 500 257 c 1
 489 270 l 1
 564 341 627 441 678 572 c 1
 775 530 l 1
 769 521 761 516 752 516 c 0
 748 515 743 515 737 516 c 1
 692 439 645 378 595 331 c 1
 617 287 645 244 680 203 c 1
 726 270 766 342 799 419 c 1
 899 371 l 1
 892 363 883 359 873 359 c 2
 860 359 l 1xe4
905 585 m 2
 495 585 l 1
 487 615 l 1
 655 615 l 1
 655 796 l 1
 755 786 l 1
 754 771 743 762 722 759 c 0
 721 759 720 759 720 759 c 1
 720 615 l 1
 810 615 l 1
 851 670 l 1
 852 669 856 666 862 661 c 0
 893 634 916 614 931 601 c 1
 927 591 918 585 905 585 c 2
473 622 m 0
 439 578 401 533 358 487 c 1
 436 437 477 394 483 358 c 0
 488 325 482 305 463 298 c 0
 462 298 460 297 459 297 c 0
 450 296 440 298 429 303 c 1xec
 413 340 374 385 311 439 c 1
 254 383 203 336 156 299 c 1
 214 262 263 227 303 192 c 1
 327 229 348 268 366 307 c 1
 462 253 l 1
 456 245 448 241 436 241 c 0
 435 241 433 242 430 242 c 0
 426 242 424 243 423 243 c 0
 401 207 378 174 354 145 c 1
 420 79 456 23 460 -24 c 0
 459 -58 448 -76 425 -78 c 0
 417 -77 407 -73 397 -66 c 1xf4
 386 -23 356 29 308 91 c 1
 240 21 161 -36 71 -80 c 1
 61 -66 l 1
 139 -12 208 56 267 139 c 1
 212 201 155 254 96 296 c 1
 153 346 210 406 266 475 c 1
 213 514 164 545 117 568 c 1
 184 630 247 713 307 816 c 1
 404 766 l 1
 399 758 391 753 381 753 c 0
 378 753 373 754 366 755 c 1
 309 688 246 629 178 579 c 1
 218 562 260 542 302 520 c 1
 342 573 381 628 417 685 c 1
 511 630 l 1
 506 622 498 618 487 619 c 0
 486 619 484 619 481 620 c 0
 477 621 475 622 473 622 c 0
EndSplineSet
EndChar

StartChar: u18D0C
Encoding: 101644 101644 19
Width: 1000
GlyphClass: 1
Flags: W
HStem: 86 30<76 151 216 342 407 436> 229 30<86 151 216 342 407 423> 290 30<485 649 712 809> 372 30<227 331> 504 30<515 649 712 762> 544 30<68 150 215 329 394 424> 734 30<129 305>
VStem: 151 65<-65.3521 86 116 229 259 372 460.927 544 574 624.102> 329 65<463.648 544 574 626.205> 342 65<-66.3521 86 116 229 259 367.762> 649 63<-71.2537 290 320 504>
LayerCount: 2
Fore
SplineSet
509 777 m 1xff20
 521 782 l 1
 594 746 637 705 651 660 c 0
 659 632 655 613 639 601 c 0
 624 590 608 593 591 610 c 1
 585 659 558 715 509 777 c 1xff20
809 320 m 1
 859 385 l 1
 952 306 l 1
 948 296 939 290 925 290 c 2
 712 290 l 1
 712 -57 l 2
 711 -63 700 -68 680 -75 c 0
 672 -77 665 -78 659 -78 c 2
 649 -78 l 1
 649 290 l 1
 485 290 l 1
 476 320 l 1
 649 320 l 1
 649 504 l 1
 515 504 l 1
 506 534 l 1
 669 534 l 1
 701 597 738 682 779 789 c 1
 879 751 l 1
 870 739 857 734 839 736 c 1
 797 665 748 597 693 534 c 1
 762 534 l 1
 812 599 l 1
 905 520 l 1
 901 510 892 504 878 504 c 2
 712 504 l 1
 712 320 l 1
 809 320 l 1
216 229 m 1
 216 116 l 1
 342 116 l 1
 342 229 l 1xff60
 216 229 l 1
342 372 m 1
 216 372 l 1
 216 259 l 1
 342 259 l 1
 342 372 l 1
513 86 m 2
 407 86 l 1
 407 -53 l 2
 406 -58 395 -64 374 -70 c 0
 365 -73 358 -74 352 -74 c 2
 342 -74 l 1
 342 86 l 1
 216 86 l 1
 216 -52 l 2
 215 -57 204 -63 183 -69 c 0
 174 -72 167 -73 161 -73 c 2
 151 -73 l 1
 151 86 l 1
 76 86 l 1
 67 116 l 1
 151 116 l 1
 151 229 l 1
 86 229 l 1
 77 259 l 1
 151 259 l 1
 151 435 l 1
 170 426 l 1
 227 402 l 1
 331 402 l 1
 367 441 l 1
 448 380 l 1
 439 371 425 365 407 361 c 1
 407 259 l 1
 423 259 l 1
 457 305 l 1
 527 245 l 1
 523 235 514 229 500 229 c 2
 407 229 l 1
 407 116 l 1
 436 116 l 1
 470 162 l 1
 540 102 l 1
 536 92 527 86 513 86 c 2
150 660 m 1
 224 652 l 1
 256 681 283 708 305 734 c 1
 129 734 l 1
 120 764 l 1
 312 764 l 1
 345 803 l 1
 429 738 l 1
 420 728 406 721 386 718 c 1
 343 685 286 649 215 612 c 1
 215 574 l 1
 329 574 l 1
 329 657 l 1
 430 646 l 1
 426 631 414 622 394 618 c 1
 394 574 l 1
 424 574 l 1
 461 625 l 1
 536 560 l 1
 532 550 523 544 509 544 c 2
 394 544 l 1
 394 477 l 2
 393 472 382 466 361 460 c 0
 352 457 345 456 339 456 c 2
 329 456 l 1
 329 544 l 1xffa0
 215 544 l 1
 215 474 l 2
 214 469 203 463 182 457 c 0
 173 454 166 453 160 453 c 2
 150 453 l 1
 150 544 l 1
 68 544 l 1
 59 574 l 1
 150 574 l 1
 150 660 l 1
EndSplineSet
EndChar

StartChar: u18D0D
Encoding: 101645 101645 20
Width: 1000
GlyphClass: 1
Flags: W
HStem: -74 16<444.375 458.505> 98 16<509.5 518.326> 255 30<200 331> 383 30<92 378> 491 30<606 696 753 847> 498 30<97 368> 611 30<93 385> 724 30<98 375> 734 30<526 730>
VStem: 124 65<-62.3521 255> 342 65<-67.3521 250.762> 378 68<355.958 383 413 493.226> 385 68<592.958 611 641 719.226> 560 56<336.989 405.352>
LayerCount: 2
Fore
SplineSet
595 337 m 0xf244
 592 336 590 336 588 336 c 0
 577 337 568 341 560 349 c 1
 558 368 554 383 549 395 c 0
 546 406 538 419 526 435 c 1
 533 443 l 1
 558 432 579 420 595 405 c 0
 609 393 616 379 616 364 c 0
 616 349 609 340 595 337 c 0xf244
514 209 m 1
 508 219 l 1
 593 273 656 341 696 424 c 0
 698 429 700 433 702 437 c 1
 779 393 l 1
 774 386 767 383 760 383 c 0
 756 384 751 385 744 386 c 1
 692 313 621 255 529 215 c 0
 524 213 519 211 514 209 c 1
877 183 m 0
 834 137 790 97 745 65 c 1
 804 36 870 16 942 6 c 1
 941 -5 l 1
 914 -13 894 -32 883 -63 c 0
 882 -67 881 -71 880 -75 c 1
 807 -53 745 -18 692 29 c 1
 616 -17 535 -52 447 -74 c 1
 441 -58 l 1
 516 -29 587 13 654 66 c 1
 629 95 621 109 603 129 c 1
 571 115 541 105 513 98 c 1
 505 114 l 1
 600 156 690 229 774 334 c 0
 779 340 783 345 787 350 c 1
 870 293 l 1
 862 286 854 282 847 283 c 0
 841 283 835 285 829 289 c 1
 761 222 693 172 627 140 c 1
 648 125 660 118 690 97 c 1
 742 143 789 193 832 249 c 1
 918 187 l 1
 910 180 901 177 892 178 c 0
 885 180 880 181 877 183 c 0
606 521 m 1xfa44
 696 521 l 1
 693 550 687 573 679 590 c 1
 606 521 l 1xfa44
545 542 m 1
 730 734 l 1
 526 734 l 1
 517 764 l 1
 733 764 l 1xfac4
 761 800 l 1
 849 727 l 1
 841 719 828 715 809 714 c 1
 700 610 l 1
 713 600 725 590 737 579 c 0
 750 565 756 550 755 534 c 0
 755 530 754 526 753 521 c 1
 847 521 l 1
 825 560 795 595 756 625 c 1
 765 635 l 1
 807 619 844 600 875 579 c 0
 909 555 926 529 928 503 c 0
 930 481 922 469 904 465 c 0
 902 465 901 465 900 465 c 0
 888 464 877 467 867 474 c 1
 861 491 l 1
 572 491 l 1
 547 470 l 1
 491 524 l 1
 506 532 524 538 545 542 c 1
331 285 m 1
 367 324 l 1
 448 263 l 1
 439 254 425 248 407 244 c 1
 407 -54 l 2
 406 -59 395 -65 374 -71 c 0
 365 -74 358 -75 352 -75 c 2
 342 -75 l 1
 342 255 l 1xf264
 189 255 l 1
 189 -49 l 2
 188 -54 177 -60 156 -66 c 0
 147 -69 140 -70 134 -70 c 2
 124 -70 l 1
 124 318 l 1
 200 285 l 1
 331 285 l 1
389 347 m 2
 378 347 l 1
 378 383 l 1
 92 383 l 1
 83 413 l 1
 378 413 l 1
 378 498 l 1xf654
 97 498 l 1
 88 528 l 1
 368 528 l 1
 407 570 l 1xf664
 487 506 l 1
 480 498 466 491 446 487 c 1
 446 372 l 2xf654
 445 366 435 360 415 352 c 0
 405 349 396 347 389 347 c 2
93 611 m 1
 84 641 l 1
 385 641 l 1
 385 724 l 1
 98 724 l 1
 89 754 l 1
 375 754 l 1
 414 796 l 1
 494 732 l 1
 487 724 473 717 453 713 c 1
 453 609 l 2
 452 603 442 597 422 589 c 0
 412 586 404 584 396 584 c 2
 385 584 l 1
 385 611 l 1xf34c
 93 611 l 1
EndSplineSet
EndChar

StartChar: u18D0E
Encoding: 101646 101646 21
Width: 1000
GlyphClass: 1
Flags: W
HStem: -69 58<800.873 841.317> -14 21G<53 84.5> 374 30<149 283> 393 30<475 541 609 666> 495 30<137 294> 600 30<449 541 609 660> 615 30<120 223 291 315>
VStem: 223 68<645 784.027> 541 68<-61.4843 157 186.566 224.377 274 393 423 466 566 600 630 801.955> 730 70<-10.3229 352 442 587 643 789.425> 877 26<133.165 224>
LayerCount: 2
Fore
SplineSet
660 600 m 1x0de0
 609 600 l 1
 609 566 l 1
 660 600 l 1x0de0
666 423 m 1x19e0
 700 466 l 1
 730 442 l 1
 730 587 l 1
 609 510 l 1
 609 423 l 1
 666 423 l 1x19e0
541 423 m 1
 541 466 l 1
 475 423 l 1
 541 423 l 1
438 369 m 1
 403 417 l 1
 541 520 l 1
 541 600 l 1
 448 600 l 1x1de0
 442.817547125 622.210512319 l 1
 437.83685426 618.141862028 430.400259014 615 421 615 c 2
 120 615 l 1
 113 645 l 1
 223 645 l 1
 223 812 l 1
 321 800 l 1
 321 788.386898874 310.697879892 778.646910494 291 774.405476153 c 1
 291 645 l 1
 315 645 l 1x0be0
 362 715 l 1
 449 630 l 1
 541 630 l 1
 541 830 l 1
 640 817 l 1
 637 805 625 794 609 791 c 1
 609 630 l 1
 660 630 l 1
 694 671 l 1
 730 643 l 1
 730 819 l 1
 831 805 l 1
 829 793 817 783 800 779 c 1
 800 401 l 1
 800 401 821 432 831 453 c 2
 831 453 844 477 862 537 c 1
 938 474 l 1
 935 469 925 463 913 462 c 2
 913 462 909 462 905 463 c 0
 882 423 847 385 800 352 c 1
 800 20 l 2
 800 0 804 -10 808 -11 c 2
 812 -11 l 2
 822 -11 828 -11 828 -11 c 2
 832 -8 838 -1 842 11 c 0
 849 31 861 102 877 224 c 1
 903 224 l 1
 904 3 l 1
 923 -5 935 -16 936 -25 c 0
 936 -44 920 -59 890 -64 c 0
 873 -67 848 -69 816 -69 c 0
 774 -69 745 -58 736 -38 c 0
 732 -28 730 -15 730 3 c 2
 730 352 l 1
 730 352 707 307 689 284 c 1
 689 284 667 256 609 207 c 1
 609 -48 l 2
 609 -52 598 -58 578 -65 c 0
 570 -67 562 -69 556 -69 c 2
 541 -69 l 1
 541 157 l 1
 518 142 482 124 437 107 c 1
 435.407990026 114.004843885 l 1
 429.771455988 113.017340951 423.718863698 112.591509736 418 113 c 1
 386 41 344 -12 293 -45 c 0
 288 -49 283 -52 279 -54 c 0
 246 -72 209 -79 167 -73 c 1
 174 -56 179 -34 179 -11 c 0x8de0
 179 7 177 25 175 37 c 1
 150 22 110 4 59 -14 c 1
 53 0 l 1
 130 39 197 98 257 182 c 1
 217 205 l 1
 201 179 l 1
 124 234 l 1
 132 242 147 249 159 250 c 1
 283 374 l 1
 149 374 l 1
 141 404 l 1
 287 404 l 1x69e0
 328 440 l 1
 397 375 l 1
 389 365 374 357 362 359 c 1
 232 238 l 1
 277 210 l 1
 296 238 315 274 334 317 c 1
 428 275 l 1
 424 264 406 258 391 262 c 1
 373 234 354 206 333 178 c 1
 355 165 l 1
 397 196 l 1
 443.821990724 135.454322339 l 1
 475.892432506 153.544413617 508.049677258 176.392972838 541 204 c 1
 541 393 l 1
 464 393 l 1
 438 369 l 1
609 393 m 1
 609 274 l 1
 609 274 640 305 652 325 c 1
 652 325 665 347 677 393 c 1
 609 393 l 1
224 3 m 0
 229 -2 233 -3 240 -2 c 0
 261 8 286 33 313 72 c 0
 324 90 335 108 346 131 c 1
 312 151 l 1
 282 115 243 80 199 51 c 1
 210 25 218 9 224 3 c 0
130 525 m 1
 294 525 l 1
 341 595 l 1
 428 510 l 1
 426 503 415 495 399 495 c 2
 137 495 l 1
 130 525 l 1
EndSplineSet
EndChar

StartChar: u18D0F
Encoding: 101647 101647 22
Width: 1000
GlyphClass: 1
Flags: W
HStem: 247 29<387 526> 584 30<101 191 256 287> 775 27<256 278.643>
VStem: 191 65<614 775> 274 69<-74.3086 70.1719> 439 97<378.756 483.919> 580 23<644.791 665.652> 841 64<-69.3224 7.11523>
LayerCount: 2
Fore
SplineSet
658 311 m 0
 694 285 728 256 759 226 c 1
 792 302 820 383 843 470 c 1
 949 435 l 1
 943 425 934 419 923 417 c 0
 920 416 916 416 910 416 c 1
 883 332 847 254 803 180 c 1
 870 103 904 39 905 -14 c 0
 906 -45 896 -65 876 -73 c 0
 872 -74 868 -75 864 -75 c 0
 855 -74 848 -72 841 -67 c 1
 829 -7 804 55 764 119 c 1
 715 48 658 -17 593 -76 c 1
 579 -65 l 1
 637 3 688 81 732 168 c 1
 696 218 654 263 607 304 c 1
 700 445 774 605 830 783 c 1
 938 746 l 1
 934 736 926 730 913 730 c 0
 911 730 908 730 904 731 c 0
 901 732 899 732 898 732 c 0
 841 575 762 436 660 314 c 0
 659 313 658 312 658 311 c 0
795 751 m 1
 790 742 781 736 770 734 c 0
 769 734 764 734 757 734 c 1
 704 610 647 514 588 448 c 0
 581 441 575 434 569 428 c 1
 555 438 l 1
 608 524 654 641 691 788 c 1
 795 751 l 1
161 308 m 1
 185 282 208 255 230 227 c 1
 256 292 276 357 291 422 c 1
 391 382 l 1
 385 372 377 366 366 364 c 0
 363 363 358 363 351 363 c 1
 329 293 302 229 269 172 c 1
 329 81 354 11 343 -39 c 0
 337 -64 326 -77 308 -78 c 0
 305 -78 304 -78 302 -78 c 0
 295 -76 286 -71 274 -63 c 1
 274 -7 261 53 236 118 c 1
 189 47 130 -18 59 -79 c 1
 46 -67 l 1
 110 2 164 84 209 180 c 1
 190 218 170 254 147 289 c 1
 133 271 116 251 94 228 c 1
 79 238 l 1
 133 323 175 435 206 574 c 1
 306 529 l 1
 300 519 291 513 280 511 c 0
 278 510 275 510 272 510 c 0
 268 510 266 510 264 510 c 0
 232 427 197 360 161 308 c 1
256 614 m 1
 287 614 l 1
 329 669 l 1
 330 668 334 665 340 660 c 0
 371 633 394 613 409 600 c 1
 405 590 396 584 383 584 c 2
 101 584 l 1
 93 614 l 1
 191 614 l 1
 191 812 l 1
 291 802 l 1
 290 787 279 778 258 775 c 0
 257 775 257 775 256 775 c 1
 256 614 l 1
378 276 m 1
 526 276 l 1
 557 315 l 1
 644 253 l 1
 636 245 623 241 604 240 c 1
 573 141 516 52 432 -27 c 0
 416 -43 397 -59 376 -77 c 1
 365 -67 l 1
 453 35 508 140 531 247 c 1
 387 247 l 1
 378 276 l 1
417 604 m 2
 432 636 l 2
 453 682 474 738 496 805 c 1
 591 753 l 1
 583 746 576 742 570 741 c 0
 562 740 553 740 543 742 c 1
 520 686 495 639 468 601 c 1
 491 550 504 511 507 486 c 1
 513 499 538 562 580 674 c 1
 603 662 l 1
 568 537 549 468 546 456 c 0
 538 430 535 413 536 406 c 0
 529 389 510 372 478 354 c 0
 461 344 448 340 439 340 c 1
 448 384 453 417 452 439 c 0
 454 472 450 513 440 564 c 1
 420 540 397 516 370 490 c 1
 359 500 l 1
 381 535 400 570 417 604 c 2
EndSplineSet
EndChar

StartChar: u18D10
Encoding: 101648 101648 23
Width: 1000
GlyphClass: 1
Flags: W
HStem: 157 30<69 164 229 340 405 433> 331 30<240 329> 469 30<113 338> 682 30<78 239 304 449 514 663 728 808>
VStem: 164 65<-62.3521 157 187 331> 239 65<577.648 682 712 790.205> 340 65<-67.3521 157 187 326.762> 449 65<571.648 682 712 795.205> 663 65<580.648 682 712 790.205> 702 69<-71.1235 6.48267> 795 65<-66.3521 168 204 339 352 485.205>
LayerCount: 2
Fore
SplineSet
732 498 m 0xff20
 729 498 726 499 725 499 c 0
 675 423 615 362 545 315 c 0
 539 311 534 307 528 304 c 1
 517 316 l 1
 573 373 623 454 667 558 c 1
 763 510 l 1
 758 503 750 498 739 497 c 0
 738 497 735 498 732 498 c 0xff20
860 477 m 1
 860 -53 l 2
 859 -58 848 -64 827 -70 c 0
 818 -73 811 -74 805 -74 c 2
 795 -74 l 1
 795 168 l 1
 767 130 735 94 699 58 c 1
 749 14 773 -19 771 -42 c 0xff60
 767 -61 757 -72 740 -74 c 0
 736 -74 732 -74 728 -73 c 0xffa0
 718 -69 710 -63 702 -55 c 1xff60
 699 -25 689 5 674 35 c 1
 624 -10 568 -46 506 -75 c 1
 496 -61 l 1
 582 -1 659 86 728 201 c 0xffa0
 734 212 740 222 746 232 c 1
 795 204 l 1
 795 339 l 1
 791 336 786 335 780 335 c 0
 775 335 770 336 764 338 c 1
 696 245 617 176 526 129 c 0
 523 128 521 127 519 126 c 2
 509 139 l 1
 585 198 653 285 712 398 c 1
 795 352 l 1
 795 516 l 1
 896 505 l 1
 892 490 880 481 860 477 c 1
229 331 m 1
 229 187 l 1
 340 187 l 1
 340 331 l 1
 229 331 l 1
498 157 m 1
 405 157 l 1
 405 -54 l 2
 404 -59 393 -65 372 -71 c 0
 363 -74 356 -75 350 -75 c 2
 340 -75 l 1
 340 157 l 1
 229 157 l 1
 229 -49 l 2
 228 -54 217 -60 196 -66 c 0
 187 -69 180 -70 174 -70 c 2
 164 -70 l 1
 164 157 l 1
 69 157 l 1
 60 187 l 1
 164 187 l 1
 164 394 l 1
 177 388 l 1
 240 361 l 1
 329 361 l 1
 365 400 l 1
 446 339 l 1
 437 330 423 324 405 320 c 1
 405 187 l 1
 433 187 l 1
 469 236 l 1
 539 176 l 1
 530 167 516 161 498 157 c 1
383 558 m 1
 468 485 l 1
 464 475 455 469 441 469 c 2
 113 469 l 1
 104 499 l 1
 338 499 l 1
 383 558 l 1
808 712 m 1
 858 777 l 1
 951 698 l 1
 947 688 938 682 924 682 c 2
 728 682 l 1
 728 594 l 2
 727 589 716 583 695 577 c 0
 686 574 679 573 673 573 c 2
 663 573 l 1
 663 682 l 1
 514 682 l 1
 514 585 l 2
 513 580 502 574 481 568 c 0
 472 565 465 564 459 564 c 2
 449 564 l 1
 449 682 l 1
 304 682 l 1
 304 591 l 2
 303 586 292 580 271 574 c 0
 262 571 255 570 249 570 c 2
 239 570 l 1
 239 682 l 1
 78 682 l 1
 69 712 l 1
 239 712 l 1
 239 821 l 1
 340 810 l 1
 336 795 324 786 304 782 c 1
 304 712 l 1
 449 712 l 1
 449 826 l 1
 550 815 l 1
 546 800 534 791 514 787 c 1
 514 712 l 1
 663 712 l 1
 663 821 l 1
 764 810 l 1
 760 795 748 786 728 782 c 1
 728 712 l 1xffa0
 808 712 l 1
EndSplineSet
EndChar

StartChar: u18D11
Encoding: 101649 101649 24
Width: 1000
GlyphClass: 1
Flags: W
HStem: 86 11<77.8182 90.7419> 249 26<120 319> 371 27<123 361> 479 27<128 350 520 729> 592 30<71 559.518 581 797>
VStem: 361 68<340.669 371 398 473.883>
LayerCount: 2
Fore
SplineSet
242 805 m 1
 253 812 l 1
 328 788 375 754 392 711 c 0
 403 686 401 666 386 653 c 0
 373 641 356 641 337 655 c 1
 325 702 293 752 242 805 c 1
797 622 m 1
 847 687 l 1
 940 608 l 1
 936 598 927 592 913 592 c 2
 71 592 l 1
 62 622 l 1
 552 622 l 1
 584 678 617 745 650 822 c 1
 751 784 l 1
 742 772 729 767 711 769 c 1
 671 715 628 666 581 622 c 1
 797 622 l 1
610 12 m 0
 620 4 630 2 641 6 c 0
 671 21 703 52 737 98 c 0
 757 125 774 154 792 189 c 1
 727 217 l 1
 677 157 625 111 569 76 c 1
 590 38 603 17 610 12 c 0
452 179 m 1
 469 161 l 1
 455 146 432 123 404 94 c 0
 366 56 344 33 339 25 c 0
 329 10 322 -5 320 -19 c 1
 307 -37 284 -53 252 -66 c 0
 247 -68 244 -69 240 -70 c 1
 241 -38 239 -4 236 29 c 0
 233 57 225 88 211 123 c 1
 166 106 123 94 81 86 c 1
 76 97 l 1
 182 135 263 184 323 249 c 1
 120 249 l 1
 113 275 l 1
 319 275 l 1
 351 319 l 1
 436 252 l 1
 431 247 417 243 399 242 c 1
 366 204 317 170 250 139 c 1
 274 105 288 76 297 47 c 1
 342 80 394 125 452 179 c 1
746 241 m 1
 797 219 l 1
 842 253 l 1
 905 177 l 1
 899 172 884 169 864 170 c 1
 822 79 769 11 704 -35 c 0
 695 -41 687 -46 680 -50 c 0
 645 -69 604 -76 560 -70 c 1
 567 -52 570 -28 569 -3 c 0
 566 19 561 41 553 65 c 1
 514 42 461 18 395 -6 c 1
 391 4 l 1
 492 53 584 132 667 243 c 1
 594 275 l 1
 574 244 l 1
 494 302 l 1
 501 309 515 315 532 317 c 1
 730 480 l 1
 729 485 l 1
 520 485 l 1
 513 512 l 1
 734 512 l 1
 775 549 l 1
 851 483 l 1
 845 474 832 468 816 468 c 1
 605 303 l 1
 683 269 l 1
 705 301 723 333 738 363 c 1
 837 323 l 1
 833 313 819 309 799 315 c 1
 787 297 771 274 746 241 c 1
123 371 m 1
 116 398 l 1
 361 398 l 1
 361 479 l 1
 128 479 l 1
 121 506 l 1
 350 506 l 1
 390 553 l 1
 468 485 l 1
 464 479 450 472 429 467 c 1
 429 356 l 2
 428 352 419 345 399 337 c 0
 389 334 380 332 372 331 c 2
 361 331 l 1
 361 371 l 1
 123 371 l 1
EndSplineSet
EndChar

StartChar: u18D12
Encoding: 101650 101650 25
Width: 1000
GlyphClass: 1
Flags: W
HStem: -23 10<930.507 936> 547 30<504 799> 682 29<212 231.244> 730 30<509 789>
VStem: 147 66<275.182 682> 312 65<-66.3521 779.205> 799 68<519.958 547 577 725.226>
LayerCount: 2
Fore
SplineSet
147 440 m 2
 147 722 l 1
 246 711 l 1
 243 695 232 686 214 682 c 1
 212 682 l 1
 212 661 212 626 213 502 c 0
 213 310 191 162 147 57 c 0
 132 22 115 -10 95 -38 c 1
 79 -28 l 1
 122 79 144 235 147 440 c 2
322 -74 m 2
 312 -74 l 1
 312 810 l 1
 413 799 l 1
 409 784 397 775 377 771 c 1
 377 -53 l 2
 376 -58 365 -64 344 -70 c 0
 335 -73 328 -74 322 -74 c 2
831 315 m 1
 793 245 751 184 705 132 c 1
 770 74 848 26 939 -13 c 1
 936 -23 l 1
 904 -25 878 -42 860 -75 c 0
 859 -77 858 -79 857 -81 c 1
 780 -36 715 20 662 87 c 1
 598 23 522 -33 435 -81 c 1
 424 -67 l 1
 501 -12 569 55 629 133 c 1
 599 180 574 229 555 281 c 1
 523 253 489 229 453 208 c 1
 441 221 l 1
 523 293 594 396 652 530 c 0
 653 532 654 533 654 534 c 1
 750 483 l 1
 744 475 736 471 726 471 c 0
 720 471 715 471 712 472 c 0
 668 402 622 345 574 299 c 1
 597 255 626 214 661 176 c 1
 704 241 740 307 769 372 c 1
 869 328 l 1
 863 320 855 315 845 315 c 0
 840 314 836 314 831 315 c 1
504 547 m 1
 495 577 l 1
 799 577 l 1
 799 730 l 1
 509 730 l 1
 500 760 l 1
 789 760 l 1
 828 802 l 1
 908 738 l 1
 901 730 887 723 867 719 c 1
 867 536 l 2
 866 530 856 524 836 516 c 0
 826 513 818 511 810 511 c 2
 799 511 l 1
 799 547 l 1
 504 547 l 1
EndSplineSet
EndChar

StartChar: u18D13
Encoding: 101651 101651 26
Width: 1000
GlyphClass: 1
Flags: W
HStem: 364 30<570 795> 492 30<575 785> 689 30<78 239 304 449 514 663 728 808>
VStem: 152 74<420.094 503.2> 239 65<590.648 689 719 791.205> 331 63<-75.3652 -15.169> 445 65<-2.35213 122.388 133 525.205 583.248 689 719 793.938> 663 65<593.648 689 719 791.205> 795 68<336.958 364 394 487.226>
LayerCount: 2
Fore
SplineSet
882 194 m 0
 876 194 870 196 864 198 c 1
 828 155 790 116 751 82 c 1
 807 46 870 16 940 -7 c 1
 938 -18 l 1
 907 -24 885 -43 873 -76 c 0
 872 -79 872 -80 871 -82 c 1
 809 -48 753 -7 703 43 c 1
 631 -11 553 -52 469 -81 c 1
 461 -66 l 1
 532 -30 601 19 668 82 c 1
 648 106 628 134 608 164 c 1
 579 145 546 128 510 113 c 1
 510 11 l 2
 509 6 498 0 477 -6 c 0
 468 -9 461 -10 455 -10 c 2
 445 -10 l 1
 445 556 l 1
 546 545 l 1
 542 530 530 521 510 517 c 1
 510 133 l 1
 578 182 640 254 698 350 c 1
 787 294 l 1
 779 287 770 284 762 285 c 0
 757 285 752 286 746 288 c 1
 707 244 668 208 630 180 c 1
 651 158 675 137 702 116 c 1
 743 159 781 206 816 255 c 1
 905 206 l 1
 898 198 890 194 882 194 c 0
570 364 m 1
 561 394 l 1
 795 394 l 1
 795 492 l 1
 575 492 l 1
 566 522 l 1
 785 522 l 1
 824 564 l 1
 904 500 l 1
 897 492 883 485 863 481 c 1
 863 353 l 2
 862 347 852 341 832 333 c 0
 822 330 813 328 806 328 c 2
 795 328 l 1
 795 364 l 1
 570 364 l 1
808 719 m 1
 858 784 l 1
 951 705 l 1
 947 695 938 689 924 689 c 2
 728 689 l 1
 728 607 l 2
 727 602 716 596 695 590 c 0
 686 587 679 586 673 586 c 2
 663 586 l 1
 663 689 l 1
 514 689 l 1
 514 598 l 2
 513 593 502 587 481 581 c 0
 472 578 465 577 459 577 c 2
 449 577 l 1
 449 689 l 1
 304 689 l 1
 304 604 l 2
 303 599 292 593 271 587 c 0
 262 584 255 583 249 583 c 2
 239 583 l 1
 239 689 l 1
 78 689 l 1
 69 719 l 1
 239 719 l 1
 239 822 l 1
 340 811 l 1
 336 796 324 787 304 783 c 1
 304 719 l 1
 449 719 l 1
 449 827 l 1
 550 816 l 1
 546 801 534 792 514 788 c 1
 514 719 l 1
 663 719 l 1
 663 822 l 1
 764 811 l 1
 760 796 748 787 728 783 c 1
 728 719 l 1
 808 719 l 1
191 165 m 1
 216 151 241 135 268 117 c 1
 300 155 328 195 352 237 c 1
 442 194 l 1
 435 185 428 180 420 180 c 0
 415 180 408 181 401 183 c 1
 375 148 346 114 314 82 c 1
 368 36 394 -4 394 -37 c 0
 395 -59 387 -72 370 -76 c 0
 367 -77 364 -77 361 -77 c 0
 352 -77 342 -73 331 -66 c 1
 320 -30 300 6 272 44 c 1
 210 -7 139 -47 59 -75 c 1
 50 -61 l 1
 118 -27 181 21 239 84 c 1
 216 109 193 132 168 152 c 1
 141 138 113 126 86 116 c 1
 77 131 l 1
 170 182 252 263 323 373 c 0
 328 381 333 389 338 397 c 1
 426 349 l 1
 420 341 413 337 404 337 c 0
 399 337 393 338 386 341 c 1
 326 265 261 206 191 165 c 1
197 417 m 0
 194 416 191 416 188 416 c 0
 175 418 163 424 152 434 c 1
 151 455 145 477 135 501 c 0
 129 514 117 532 100 556 c 1
 110 566 l 1
 140 553 168 535 194 514 c 0
 215 495 226 475 226 453 c 0
 225 433 216 421 197 417 c 0
100 271 m 1
 89 286 l 1
 182 346 254 423 303 514 c 0
 313 534 322 552 329 571 c 1
 434 521 l 1
 429 512 422 507 411 506 c 0
 409 506 405 506 399 507 c 0
 395 508 391 509 389 509 c 0
 330 419 247 346 141 291 c 0
 127 284 113 277 100 271 c 1
EndSplineSet
EndChar

StartChar: u18D14
Encoding: 101652 101652 27
Width: 1000
GlyphClass: 1
Flags: W
HStem: -75 62<330.161 598.196> 246 30<656.429 702 764 810 872 884> 411 30<772 801> 499 30<194 243>
VStem: 118 65<-67.3521 499> 122 77<649.567 738.431> 254 65<-2.28275 494.762> 383 62<77.0988 257.317 270.906 463> 409 72<596.312 688.301> 583 62<21.4348 96.4659> 702 62<35.8087 246 276 411> 810 62<30.8087 246 276 409.325> 916 15<182.627 222>
LayerCount: 2
Fore
SplineSet
158 645 m 0xf678
 145 647 133 654 122 666 c 1
 120 693 113 719 101 746 c 0
 93 765 79 786 60 810 c 1
 72 819 l 1
 108 801 138 780 162 756 c 0
 189 729 201 703 199 680 c 0
 197 661 187 649 168 646 c 0
 165 645 161 645 158 645 c 0xf678
931 222 m 1
 932 5 l 1
 953 -6 964 -17 965 -28 c 0
 965 -46 941 -57 894 -64 c 0
 835 -71 660 -75 371 -75 c 0
 317 -75 283 -62 268 -36 c 0
 259 -19 254 6 254 38 c 2
 254 499 l 1
 183 499 l 1
 183 -54 l 2
 182 -59 171 -65 150 -71 c 0
 141 -74 134 -75 128 -75 c 2
 118 -75 l 1
 118 524 l 1xfa78
 88 507 61 494 37 484 c 1
 29 500 l 1
 125 553 203 628 263 725 c 0
 284 758 301 791 314 825 c 1
 407 780 l 1
 401 772 393 767 384 767 c 0
 377 767 372 768 368 769 c 0
 316 680 245 606 154 546 c 1
 194 529 l 1
 243 529 l 1
 279 568 l 1
 360 507 l 1
 351 498 337 492 319 488 c 1
 319 49 l 2
 319 12 335 -8 368 -12 c 0
 373 -13 379 -13 384 -13 c 0
 645 -13 792 -12 825 -9 c 0
 848 -8 863 0 869 13 c 0
 881 42 896 112 916 222 c 1
 931 222 l 1
668 238 m 1
 656 227 646 224 638 225 c 0
 636 225 632 226 631 226 c 0
 616 203 601 182 591 169 c 1
 629 127 649 88 645 56 c 0
 644 37 634 23 618 20 c 0
 615 20 612 20 608 20 c 0
 599 22 591 27 583 34 c 1
 576 64 564 94 550 120 c 1
 515 83 469 48 416 18 c 1
 402 36 l 1
 447 73 485 118 519 171 c 1
 499.465014584 198.907122024 475.603321058 227.679585669 445 257.317390936 c 1
 445 93 l 2
 444 86 432 80 415 74 c 0
 408 72 401 71 396 71 c 2
 383 71 l 1
 383 463 l 1
 372 457 354 448 332 439 c 1
 322 460 l 1
 400 507 465 574 523 666 c 0
 545 702 564 738 582 782 c 1
 666 730 l 1
 657 718 649 713 641 713 c 0
 637 713 632 714 631 714 c 0
 582 630 518 557 445 503 c 1
 445 270.905671748 l 1xf378
 480.733818938 306.600259671 509.51445045 342.241386666 533 377 c 1
 514 398 488 418 455 440 c 1
 490 487 519 536 547 597 c 1
 628 557 l 1
 621 544 613 538 602 537 c 0
 597 537 593 538 593 538 c 1
 566 500 534 467 505 446 c 1
 525 436 547 424 559 417 c 1
 574 442 587 466 599 490 c 1
 680 451 l 1
 673 437 665 432 655 431 c 0
 649 431 646 431 646 431 c 1
 636 416 622 398 609 382 c 1
 642 356 661 330 659 310 c 0
 657 290 648 277 632 273 c 0
 628 273 625 273 622 273 c 0
 618.078599646 274.307133451 614.347043498 275.804111109 610.639897082 277.656367449 c 1
 649.772956609 250.601412714 l 1
 643 276 l 1
 702 276 l 1
 702 431 l 1
 702 431 698 428 690 422 c 0
 684 418 681 415 666 403 c 1
 656 416 l 1
 715 486 767 574 813 691 c 1
 898 641 l 1
 893 634 885 628 874 628 c 0
 873 628 871 629 869 629 c 0
 865 630 864 630 864 630 c 1
 826 562 783 505 735 460 c 1
 772 441 l 1
 801 441 l 1
 834 482 l 1
 906 419 l 1
 899 411 886 404 872 401 c 1
 872 276 l 1
 884 276 l 1
 914 323 l 1
 975 261 l 1
 972 253 963 246 949 246 c 2
 872 246 l 1
 872 45 l 2
 871 40 861 34 842 28 c 0
 834 25 827 24 822 24 c 2
 810 24 l 1
 810 246 l 1
 764 246 l 1
 764 50 l 2
 764 45 753 39 734 33 c 0
 727 30 720 29 714 29 c 2
 702 29 l 1
 702 246 l 1
 656.428571429 246 l 1
 668 238 l 1
442 593 m 0
 429 595 418 602 409 615 c 1
 407 643 403 666 394 687 c 0
 388 703 377 722 360 747 c 1
 376 758 l 1
 407 741 431 722 452 698 c 0
 474 672 484 647 481 625 c 0xf2f8
 479 607 469 595 452 593 c 0
 448 593 445 593 442 593 c 0
764 411 m 1
 764 276 l 1
 810 276 l 1
 810 411 l 1
 764 411 l 1
667 570 m 1
 656 584 l 1
 699 639 735 714 764 813 c 1
 851 772 l 1
 848 764 840 759 830 758 c 0
 825 757 819 757 818 757 c 0
 785 688 738 628 679 579 c 2
 667 570 l 1
595.657611983 288.014490481 m 1
 589.623899996 305.674932812 579.793339128 323.263022927 569 337 c 1
 544 311 513 285 485 265 c 1
 505 251 529 231 546 215 c 1
 557 232 570 258 587 294 c 1
 595.657611983 288.014490481 l 1
EndSplineSet
EndChar

StartChar: u18D15
Encoding: 101653 101653 28
Width: 1000
GlyphClass: 1
Flags: W
HStem: 2 14<42.5 62.8049> 300 30<142 253 314 375> 396 30<314 462> 484 30<314 436> 660 29<134 253 314 418>
VStem: 253 61<330 396 426 484 535.233 537.881 579 660 689 776.921>
LayerCount: 2
Fore
SplineSet
833 233 m 0
 829 234 826 234 824 235 c 0
 796 192 764 151 729 112 c 1
 789 67 855 29 927 -2 c 1
 925 -13 l 1
 897 -16 875 -32 859 -63 c 0
 857 -67 855 -71 854 -75 c 1
 787 -36 730 11 683 65 c 1
 620 7 549 -42 470 -80 c 1
 459 -66 l 1
 525 -22 587 36 646 109 c 1
 610 157 580 209 556 264 c 1
 576 279 l 1
 602 236 637 194 680 154 c 1
 710 196 740 244 768 297 c 1
 863 243 l 1
 856 235 848 232 837 232 c 0
 836 232 835 233 833 233 c 0
870 621 m 1
 832 560 791 505 746 456 c 1
 810 410 878 372 951 343 c 1
 948 332 l 1
 918 328 895 312 879 282 c 0
 876 278 875 274 873 270 c 1
 807 308 750 354 700 409 c 1
 641 355 575 309 503 271 c 1
 493 286 l 1
 554 328 612 382 667 448 c 1
 635 492 608 534 588 575 c 1
 569 560 547 545 521 530 c 1
 510 543 l 1
 584 607 647 698 699 816 c 1
 793 773 l 1
 787 764 780 759 771 759 c 0
 765 759 759 760 755 761 c 0
 710 692 662 636 611 593 c 1
 635 559 665 526 702 493 c 1
 742 547 779 608 812 674 c 1
 908 635 l 1
 903 626 895 621 886 620 c 0
 883 620 878 620 870 621 c 1
273 -4 m 0
 287 -14 299 -18 309 -17 c 0
 344 -5 380 17 415 50 c 0
 426 61 437 72 446 84 c 1
 372 113 l 1
 329 86 284 64 236 47 c 1
 252 21 264 4 273 -4 c 0
419 660 m 1
 314 660 l 1
 314 579 l 1
 356 605 391 632 419 660 c 1
410 138 m 1
 470 117 l 1
 512 146 l 1
 574 77 l 1
 565 71 550 68 530 69 c 1
 487 15 433 -26 368 -55 c 0
 356 -60 347 -63 339 -65 c 0
 305 -76 267 -79 223 -75 c 1
 231 -49 234 -28 232 -11 c 0
 228 11 223 28 218 41 c 1
 166 25 108 12 45 2 c 1
 40 16 l 1
 138 40 227 80 309 137 c 1
 236 165 l 1
 214 141 l 1
 136 193 l 1
 149 203 163 208 179 207 c 1
 375 300 l 1
 142 300 l 1
 133 330 l 1
 253 330 l 1
 253 508 l 1
 211 495 163 483 110 471 c 1
 103 486 l 1
 160 504 210 524 253 545 c 1
 253 660 l 1
 134 660 l 1
 125 689 l 1
 253 689 l 1
 253 806 l 1
 349 795 l 1
 344 781 333 772 314 768 c 1
 314 689 l 1
 418 689 l 1
 449 729 l 1
 540 666 l 1
 532 658 519 654 500 653 c 1
 456 604 394 563 314 530 c 1
 314 514 l 1
 436 514 l 1
 468 558 l 1
 535 500 l 1
 531 490 522 484 508 484 c 2
 314 484 l 1
 314 426 l 1
 462 426 l 1
 494 470 l 1
 561 412 l 1
 557 402 548 396 534 396 c 2
 314 396 l 1
 314 330 l 1
 385 330 l 1
 430 360 l 1
 492 301 l 1
 482 289 468 284 452 285 c 1
 247 194 l 1
 342 161 l 1
 380 190 414 223 446 259 c 1
 540 216 l 1
 533 202 520 199 499 206 c 1
 475 186 445 163 410 138 c 1
EndSplineSet
EndChar

StartChar: u18D16
Encoding: 101654 101654 29
Width: 1000
GlyphClass: 1
Flags: W
HStem: -78 58<758 847.797> 67 33<576 693 758 808> 183 33<576 693 758 791> 300 33<576 683> 401 33<576 759> 534 30<51 107 172 229 294 352 417 433> 649 30<491 553 618 671 736 788 853 865> 722 30<80 343>
VStem: 107 65<409.648 534 564 653.205> 229 65<453.648 534 564 661.205> 352 65<420.648 534 564 653.205> 511 65<-71.1642 67 100 183 216 300 333 401 434 495.646> 553 65<558.648 649 679 751.205> 671 65<552.648 649 679 759.205> 693 65<-19.9502 67 100 183 216 296.252> 788 65<561.648 649 679 751.205> 887 18<30.5225 55>
LayerCount: 2
Fore
SplineSet
491 649 m 1xffed80
 491 679 l 1
 553 679 l 1
 553 782 l 1
 654 771 l 1
 650 756 638 747 618 743 c 1
 618 679 l 1
 671 679 l 1
 671 790 l 1
 772 779 l 1
 768 764 756 755 736 751 c 1
 736 679 l 1
 788 679 l 1
 788 782 l 1
 889 771 l 1
 885 756 873 747 853 743 c 1
 853 679 l 1
 865 679 l 1
 893 719 l 1
 955 665 l 1
 951 655 942 649 928 649 c 2
 853 649 l 1
 853 575 l 2
 852 570 841 564 820 558 c 0
 811 555 804 554 798 554 c 2
 788 554 l 1
 788 649 l 1
 736 649 l 1
 736 566 l 2
 735 561 724 555 703 549 c 0
 694 546 687 545 681 545 c 2
 671 545 l 1
 671 649 l 1
 618 649 l 1
 618 572 l 2
 617 567 606 561 585 555 c 0
 576 552 569 551 563 551 c 2
 553 551 l 1
 553 649 l 1
 491 649 l 1xffed80
454 722 m 2
 80 722 l 1
 71 752 l 1
 343 752 l 1
 391 815 l 1
 481 738 l 1
 477 728 468 722 454 722 c 2
107 402 m 1
 107 534 l 1
 51 534 l 1
 42 564 l 1
 107 564 l 1
 107 684 l 1
 208 673 l 1
 204 658 192 649 172 645 c 1
 172 564 l 1
 229 564 l 1
 229 692 l 1
 330 681 l 1
 326 666 314 657 294 653 c 1
 294 564 l 1
 352 564 l 1
 352 684 l 1
 453 673 l 1
 449 658 437 649 417 645 c 1
 417 564 l 1
 433 564 l 1
 462 605 l 1
 525 550 l 1
 521 540 512 534 498 534 c 2
 417 534 l 1
 417 434 l 2
 416 429 405 423 384 417 c 0
 375 414 368 413 362 413 c 2
 352 413 l 1
 352 534 l 1
 294 534 l 1
 294 467 l 2
 293 462 282 456 261 450 c 0
 252 447 245 446 239 446 c 2
 229 446 l 1
 229 534 l 1
 172 534 l 1
 172 423 l 2
 171 418 160 412 139 406 c 0
 130 403 123 402 117 402 c 2
 107 402 l 1
429 42 m 2
 444 26 l 2
 457 11 466 -4 471 -18 c 0
 481 -49 474 -68 449 -76 c 0
 447 -76 445 -77 444 -77 c 0
 435 -78 426 -76 415 -71 c 1
 395 -30 350 17 281 69 c 1
 213 11 137 -37 54 -75 c 1
 45 -61 l 1
 115 -18 179 36 238 100 c 1
 191 132 143 160 93 183 c 1
 153 246 207 324 254 418 c 1
 353 373 l 1
 349 364 341 359 331 359 c 0
 325 359 320 359 316 360 c 0
 262 293 208 239 152 196 c 1
 194 180 235 162 275 143 c 1
 318 196 358 254 395 319 c 1
 486 265 l 1
 478 257 470 254 460 255 c 0
 457 255 453 256 447 257 c 1
 409 203 370 155 329 114 c 1
 370 90 404 66 429 42 c 2
576 183 m 1xfff380
 576 100 l 1
 693 100 l 1
 693 183 l 1
 576 183 l 1xfff380
693 216 m 1
 693 300 l 1
 576 300 l 1
 576 216 l 1
 693 216 l 1
905 55 m 1
 904 -9 l 1
 920 -13 930 -19 932 -27 c 0
 933 -30 933 -33 933 -36 c 0
 933 -61 903 -74 845 -77 c 0
 836 -78 827 -78 817 -78 c 2
 753 -78 l 2
 722 -78 703 -69 697 -51 c 0
 694 -43 693 -32 693 -20 c 2
 693 67 l 1
 576 67 l 1
 576 -56 l 2
 575 -64 563 -69 542 -75 c 0
 534 -77 527 -78 521 -78 c 2
 511 -78 l 1
 511 529 l 1
 613 519 l 1
 607 499 595 491 576 487 c 1
 576 434 l 1
 759 434 l 1
 801 485 l 1
 814 476 842 454 886 419 c 1
 880 406 872 401 860 401 c 2
 576 401 l 1
 576 333 l 1
 683 333 l 1
 718 368 l 1
 802 310 l 1
 788 299 775 293 758 289 c 1
 758 216 l 1
 791 216 l 1
 825 263 l 1
 844 250 870 229 904 201 c 1
 898 187 890 183 878 183 c 2
 758 183 l 1
 758 100 l 1
 808 100 l 1
 842 146 l 1
 846 144 872 123 921 85 c 1
 915 71 907 67 895 67 c 2
 758 67 l 1
 758 -4 l 2
 759 -14 763 -19 772 -20 c 0
 819 -19 844 -19 848 -18 c 0
 856 -15 861 -9 864 -2 c 0
 874 20 882 39 887 55 c 1
 905 55 l 1
EndSplineSet
EndChar

StartChar: u18D17
Encoding: 101655 101655 30
Width: 1000
GlyphClass: 1
Flags: W
HStem: 422 30<487 763> 542 30<88 384> 653 30<457 517 582 643 708 769 834 855> 712 30<119 354>
VStem: 366 60<-45.7107 10.4728> 517 65<523.648 653 683 776.205> 643 65<567.648 653 683 784.205> 769 65<534.648 653 683 776.205>
LayerCount: 2
Fore
SplineSet
556 194 m 1
 606 175 648 158 681 142 c 1
 724 197 763 258 798 325 c 1
 890 274 l 1
 884 266 876 262 865 263 c 0
 859 263 855 264 852 265 c 0
 817 211 778 160 735 114 c 1
 816 69 863 26 878 -15 c 0
 889 -43 883 -62 862 -71 c 0
 858 -72 855 -73 852 -74 c 0
 846 -75 836 -73 823 -69 c 1
 804 -31 759 15 688 69 c 1
 626 12 554 -36 472 -77 c 1
 462 -64 l 1
 527 -21 588 33 645 99 c 1
 599 129 549 156 497 180 c 1
 558 239 614 317 665 412 c 1
 765 369 l 1
 761 360 753 355 743 354 c 0
 742 354 740 354 737 354 c 0
 733 355 730 355 728 355 c 0
 678 296 621 243 556 194 c 1
855 683 m 1
 884 723 l 1
 947 669 l 1
 943 659 934 653 920 653 c 2
 834 653 l 1
 834 548 l 2
 833 543 822 537 801 531 c 0
 792 528 785 527 779 527 c 2
 769 527 l 1
 769 653 l 1
 708 653 l 1
 708 581 l 2
 707 576 696 570 675 564 c 0
 666 561 659 560 653 560 c 2
 643 560 l 1
 643 653 l 1
 582 653 l 1
 582 537 l 2
 581 532 570 526 549 520 c 0
 540 517 533 516 527 516 c 2
 517 516 l 1
 517 653 l 1
 457 653 l 1
 448 683 l 1
 517 683 l 1
 517 807 l 1
 618 796 l 1
 614 781 602 772 582 768 c 1
 582 683 l 1
 643 683 l 1
 643 815 l 1
 744 804 l 1
 740 789 728 780 708 776 c 1
 708 683 l 1
 769 683 l 1
 769 807 l 1
 870 796 l 1
 866 781 854 772 834 768 c 1
 834 683 l 1
 855 683 l 1
874 422 m 2
 487 422 l 1
 478 452 l 1
 763 452 l 1
 811 505 l 1
 901 438 l 1
 897 428 888 422 874 422 c 2
435 299 m 1
 402 239 366 185 326 137 c 1
 388 85 422 41 426 5 c 0
 429 -23 422 -40 404 -46 c 0
 402 -46 400 -47 398 -47 c 0
 386 -48 376 -45 366 -40 c 1
 353 2 327 47 287 93 c 1
 223 26 148 -33 60 -83 c 1
 49 -70 l 1
 123 -15 189 53 247 133 c 1
 205 174 156 211 101 243 c 1
 169 325 225 418 267 521 c 1
 368 468 l 1
 362 461 353 458 340 459 c 2
 330 462 l 1
 286 381 226 310 150 249 c 1
 198 225 240 200 276 175 c 1
 313 230 348 293 379 365 c 1
 475 309 l 1
 468 301 459 297 448 297 c 0
 445 297 441 298 435 299 c 1
475 542 m 2
 88 542 l 1
 79 572 l 1
 384 572 l 1
 424 625 l 1
 502 558 l 1
 498 548 489 542 475 542 c 2
445 712 m 2
 119 712 l 1
 110 742 l 1
 354 742 l 1
 394 795 l 1
 472 728 l 1
 468 718 459 712 445 712 c 2
EndSplineSet
EndChar

StartChar: u18D18
Encoding: 101656 101656 31
Width: 1000
GlyphClass: 1
Flags: W
HStem: -75 57<773.141 849.29> 222 30<475 537> 347 30<410.585 563> 459 30<399 536> 540 17<286.812 301.799> 581 30<409.946 802> 604 30<72 183 248 301> 709 30<404 762> 782 27<248 270.643>
VStem: 183 65<634 782> 277 70<-72.1665 57.5969> 399 65<-66.3521 222> 548 65<-71.3521 217.762> 693 67<-16.9004 201.811 220 481.807> 883 17<107.067 151>
LayerCount: 2
Fore
SplineSet
393 388 m 2xf9fe
 400.138519721 385.404174647 410.646194074 383.650637952 410.584504696 377 c 1
 563 377 l 1
 602 429 l 1
 678 363 l 1
 674 353 665 347 651 347 c 2
 374 347 l 1
 373.05785124 350.140495868 l 1
 356 343 l 1
 330 275 301 215 269 163 c 1
 334 74 360 5 347 -43 c 0
 340 -67 326 -78 307 -75 c 0
 305 -75 304 -74 303 -74 c 0
 294 -71 285 -64 277 -55 c 1
 274 -3 260 53 235 112 c 1
 188 46 130 -15 62 -72 c 1
 48 -60 l 1
 111 6 164 83 207 171 c 1
 189 205 166 243 136 284 c 1
 114 257 89 231 61 206 c 1
 48 216 l 1
 120 310 172 435 204 589 c 1
 310 557 l 1
 305 548 297 542 287 540 c 2
 282 540 l 2
 278 539 276 539 274 539 c 0
 239 442 198 363 149 300 c 1
 176 274 202 246 228 215 c 1
 255 276 279 346 299 424 c 1
 393 388 l 2xf9fe
475 252 m 1
 537 252 l 1
 573 291 l 1
 654 230 l 1
 645 221 631 215 613 211 c 1
 613 -58 l 2
 612 -63 601 -69 580 -75 c 0
 571 -78 564 -79 558 -79 c 2
 548 -79 l 1
 548 222 l 1
 464 222 l 1
 464 -53 l 2
 463 -58 452 -64 431 -70 c 0
 422 -73 415 -74 409 -74 c 2
 399 -74 l 1
 399 285 l 1
 475 252 l 1
900 151 m 1
 901 -4 l 1
 922 -11 933 -20 934 -31 c 0
 934 -51 919 -63 890 -69 c 0
 869 -73 833 -75 784 -75 c 0
 738 -75 710 -65 700 -46 c 0
 696 -36 693 -22 693 -3 c 2
 693 514 l 1
 797 502 l 1
 793 487 781 478 760 474 c 1
 760 220 l 1
 797 269 826 322 847 378 c 1
 930 326 l 1
 925 318 917 313 907 313 c 0
 904 313 899 314 892 315 c 1
 860 269 816 226 760 187 c 1
 760 14 l 2
 760 -5 764 -15 773 -17 c 0
 776 -18 779 -18 781 -18 c 0
 810 -18 827 -17 831 -16 c 0
 839 -12 845 -5 850 5 c 0
 858 24 869 73 883 151 c 1
 900 151 l 1
575 541 m 1
 652 475 l 1
 648 465 639 459 625 459 c 2
 399 459 l 1
 390 489 l 1
 536 489 l 1
 575 541 l 1
802 611 m 1xfdfe
 852 676 l 1
 945 597 l 1
 941 587 932 581 918 581 c 2
 378 581 l 1xfdfe
 371.1 604 l 1
 72 604 l 1
 64 634 l 1
 183 634 l 1
 183 819 l 1
 283 809 l 1
 282 794 271 785 250 782 c 2
 248 782 l 1
 248 634 l 1
 301 634 l 1xfbfe
 340 686 l 1
 416 620 l 2
 414.58929287 616.473232175 412.556681175 613.443988001 409.946031176 611 c 1
 802 611 l 1xfdfe
878 709 m 2
 404 709 l 1
 395 739 l 1
 762 739 l 1
 812 804 l 1
 905 725 l 1
 901 715 892 709 878 709 c 2
EndSplineSet
EndChar

StartChar: u18D19
Encoding: 101657 101657 32
Width: 1000
GlyphClass: 1
Flags: W
HStem: -84 57<758.047 813.894> 36 32<366 443 510 563> 136 32<395 443 510 563> 236 32<518 554> 251 33<662 691 753 805> 366 33<648 691 753 802> 411 31<397 514> 570 30<399 477 539 609 671 743 804 835> 653 27<671 691.604 804 824.604> 720 30<403 784>
VStem: 291 68<-44.2032 55.5259> 443 67<-76.2367 36 68 136 168 236> 477 62<491.368 570 600 661.517> 563 67<-76.7307 -5.31294 17 36 68 136 168 234.057> 609 62<466.283 570 600 653> 691 62<-25.9473 17 52.1611 80.3094 145 251 284 366 399 442.127> 743 61<485.089 570 600 653> 805 60<237.969 251 284 363.649> 837 24<21.1797 67> 882 65<76.6367 143.999>
LayerCount: 2
Fore
SplineSet
835 600 m 1xe7ea90
 866 643 l 1
 933 586 l 1
 929 576 920 570 906 570 c 2
 804 570 l 1
 804 499 l 2xe7ea90
 803 494 793 488 773 482 c 0
 765 479 758 478 753 478 c 2xe7e110
 743 478 l 1
 743 570 l 1
 671 570 l 1
 671 480 l 2
 670 474 660 469 639 463 c 0
 631 460 625 459 619 459 c 2
 609 459 l 1
 609 570 l 1
 539 570 l 1
 539 505 l 2
 538 500 528 494 507 488 c 0
 499 485 493 484 487 484 c 2
 477 484 l 1
 477 570 l 1
 399 570 l 1
 390 600 l 1
 477 600 l 1
 477 691 l 1
 574 680 l 1
 570 666 558 657 539 653 c 1
 539 600 l 1
 609 600 l 1
 609 691 l 1
 706 680 l 1
 703 666 692 657 673 653 c 0
 672 653 671 653 671 653 c 1
 671 600 l 1
 743 600 l 1
 743 691 l 1
 839 680 l 1
 836 666 825 657 806 653 c 0
 805 653 804 653 804 653 c 1
 804 600 l 1
 835 600 l 1xe7ea90
893 720 m 2
 403 720 l 1
 394 750 l 1
 784 750 l 1
 831 812 l 1
 920 736 l 1
 916 726 907 720 893 720 c 2
290 148 m 1
 340 81 363 28 359 -11 c 0
 356 -31 347 -43 331 -46 c 0
 327 -47 322 -47 318 -46 c 0
 309 -44 300 -38 291 -29 c 1
 284 13 271 55 253 97 c 1
 195 25 130 -35 58 -83 c 1
 46 -70 l 1
 110 -12 168 65 222 161 c 1
 201 200 179 236 155 268 c 1xf7e010
 126 242 94 218 59 196 c 1
 47 209 l 1
 149 300 231 425 292 583 c 1
 392 538 l 1
 386 530 377 525 367 525 c 0
 361 525 357 525 354 526 c 0
 302 427 241 346 170 281 c 1
 200 252 225 226 245 203 c 1
 264 241 281 278 296 315 c 1
 394 263 l 1
 385 254 376 250 366 250 c 0
 363 250 359 251 353 252 c 1
 328 207 307 172 290 148 c 1
340 747 m 0
 337 746 332 746 326 746 c 1
 265 621 188 525 95 458 c 0
 91 455 88 452 84 450 c 1
 72 461 l 1
 150 543 213 656 260 799 c 0
 261 801 262 803 262 804 c 1
 364 760 l 1
 358 752 350 747 340 747 c 0
510 136 m 1xe7f410
 510 68 l 1
 563 68 l 1
 563 136 l 1
 510 136 l 1xe7f410
823 226 m 1
 858 208 887 190 911 171 c 0
 934 150 947 130 947 110 c 0
 944 89 933 76 915 74 c 0
 903 74 892 78 882 86 c 1
 871 131 850 171 819 205 c 0
 816 208 814 210 811 214 c 1
 823 226 l 1
563 236 m 1xf7f410
 510 236 l 1
 510 168 l 1
 563 168 l 1
 563 236 l 1xf7f410
630 226 m 1
 630 17 l 1
 643 28 665 48 691 73 c 1
 691 251 l 1
 662 251 l 1xefe510
 669 246 l 1
 659 236 645 230 630 226 c 1
805 366 m 1xefe150
 753 366 l 1
 753 284 l 1
 805 284 l 1
 805 366 l 1xefe150
861 67 m 1xefe130
 862 -16 l 1
 876 -20 886 -27 887 -35 c 0
 888 -37 888 -39 888 -40 c 0
 887 -69 849 -84 777 -84 c 0
 735 -84 708 -75 698 -56 c 0
 693 -46 691 -32 691 -14 c 2
 691 17 l 1
 674 6 651 -6 630 -15 c 1
 630 -62 l 2
 629 -68 617 -75 597 -80 c 0
 589 -83 582 -84 576 -84 c 2
 563 -84 l 1
 563 36 l 1
 510 36 l 1
 510 -61 l 2xeff530
 509 -67 497 -74 477 -80 c 0xefe810
 469 -82 462 -83 456 -83 c 2
 443 -83 l 1
 443 36 l 1
 366 36 l 1
 357 68 l 1
 443 68 l 1
 443 136 l 1
 395 136 l 1
 386 168 l 1
 443 168 l 1
 443 255 l 1
 430 246 410 234 387 220 c 1
 375 234 l 1
 442 297 490 356 516 411 c 1
 397 411 l 1
 387 442 l 1
 514 442 l 1
 544 482 l 1
 635 419 l 1
 626 410 612 405 596 404 c 1
 569 358 531 317 485 283 c 1
 518 268 l 1
 554 268 l 1xf7f010
 589 307 l 1
 638 269 l 1
 634 284 l 1
 691 284 l 1xeff110
 691 366 l 1
 648 366 l 1
 639 399 l 1
 691 399 l 1
 691 472 l 1
 786 462 l 1
 784 446 772 437 753 433 c 1
 753 399 l 1
 802 399 l 1
 835 432 l 1
 904 376 l 1
 896 367 882 360 865 357 c 1
 865 257 l 2
 865 250 855 243 839 236 c 0xf7f150
 832 233 825 231 818 231 c 2
 805 231 l 1
 805 251 l 1xeff150
 753 251 l 1
 753 145 l 1
 790 196 l 1
 862 134 l 1
 853 127 843 124 832 127 c 2
 824 130 l 1
 804 108 780 85 753 62 c 1
 753 2 l 2
 753 -16 755 -25 758 -26 c 0
 759 -27 760 -27 762 -27 c 0
 785 -27 798 -26 800 -26 c 0
 806 -22 811 -17 815 -8 c 0
 822 9 830 34 837 67 c 1
 861 67 l 1xefe130
EndSplineSet
EndChar

StartChar: u18D1A
Encoding: 101658 101658 33
Width: 1000
GlyphClass: 1
Flags: W
HStem: 24 30<692 771 827 860> 129 30<692 771 827 849> 175 15<63.7333 71.2041> 233 28<692 761> 324 30<546 627 692 817> 415 11<743.909 748.605> 463 30<516 627 692 713> 621 30<71 540.023 560 797>
VStem: 187 65<-67.3521 222> 331 65<-68.3521 43.4444 61.1172 436.205> 627 65<-61.3521 24 54 129 170.467 233 261 324 354 383.305 450.315 463 493 553.205> 771 56<-60.3857 24 54 129 159 226.293>
LayerCount: 2
Fore
SplineSet
67 175 m 1
 60 190 l 1
 123 225 184 282 243 360 c 1
 324 293 l 1
 316 286 308 284 299 286 c 0
 294 287 289 289 284 292 c 1
 252 265 l 1
 252 -54 l 2
 251 -59 240 -65 219 -71 c 0
 210 -74 203 -75 197 -75 c 2
 187 -75 l 1
 187 222 l 1
 152 203 112 188 67 175 c 1
341 -76 m 2
 331 -76 l 1
 331 467 l 1
 432 456 l 1
 428 441 416 432 396 428 c 1
 396 61.1171805558 l 1
 448.761788512 130.734497889 491.428455178 207.655164721 524 291 c 1
 607 231 l 1
 601 226 594 222 586 221 c 0
 577 220 568 221 561 223 c 1
 542 187 522 158 502 134 c 1
 527 94 541 70 542 63 c 1
 550 74 578 122 627 208 c 1
 627 324 l 1
 529 324 l 1
 504 303 l 1
 448 357 l 1
 463 365 481 371 502 375 c 1
 627 424.54954955 l 1
 627 463 l 1
 516 463 l 1
 507 493 l 1
 627 493 l 1
 627 584 l 1
 728 573 l 1
 724 558 712 549 692 545 c 1
 692 493 l 1
 713 493 l 1
 743 530 l 1
 832 456 l 1
 824 448 811 444 792 443 c 1
 692 406.821138211 l 1
 692 354 l 1
 817 354 l 1
 800 374 774 395 741 415 c 1
 749 426 l 1
 773 421 806 410 847 393 c 0
 877 378 895 359 902 337 c 0
 907 317 902 304 887 299 c 1
 886 298 l 1
 885 298 l 2
 874 296 862 297 852 301 c 0
 850 304 846 312 839 324 c 1
 692 324 l 1
 692 261 l 1
 761 261 l 1
 796 299 l 1
 870 240 l 1
 861 231 847 224 827 220 c 1
 827 159 l 1
 849 159 l 1
 876 197 l 1
 935 145 l 1
 931 135 922 129 908 129 c 2
 827 129 l 1
 827 54 l 1
 860 54 l 1
 887 92 l 1
 946 40 l 1
 942 30 933 24 919 24 c 2
 827 24 l 1
 827 -44 l 1
 815 -58 800 -65 781 -65 c 2
 771 -65 l 1
 771 24 l 1
 692 24 l 1
 692 -48 l 2
 691 -53 680 -59 659 -65 c 0
 650 -68 643 -69 637 -69 c 2
 627 -69 l 1
 627 141 l 1
 602 88 586 54 580 39 c 0
 579 36 578 33 576 28 c 0
 569 10 567 -3 571 -11 c 1
 563 -28 544 -44 513 -61 c 0
 496 -69 483 -73 474 -73 c 1
 475 -68 476 -59 479 -47 c 0
 486 -14 489 9 489 23 c 0
 487 49 482 77 474 105 c 1
 456 87 431 66 398 41 c 1
 396 43.4444444444 l 1
 396 -55 l 2
 395 -60 384 -66 363 -72 c 0
 354 -75 347 -76 341 -76 c 2
348 514 m 0
 342 514 337 516 332 518 c 1
 267 445 192 392 108 358 c 0
 105 356 102 355 99 354 c 2
 90 368 l 1
 161 415 226 486 285 582 c 1
 373 523 l 1
 365 516 356 513 348 514 c 0
797 651 m 1
 847 716 l 1
 940 637 l 1
 936 627 927 621 913 621 c 2
 71 621 l 1
 62 651 l 1
 530 651 l 1
 573 705 613 763 650 824 c 1
 751 788 l 1
 742 775 729 770 712 772 c 1
 667 728 616 688 560 651 c 1
 797 651 l 1
382 681 m 0
 370 669 353 668 333 679 c 1
 316 724 283 767 233 809 c 1
 243 818 l 1
 318 805 366 779 386 739 c 0
 398 715 397 696 382 681 c 0
771 159 m 1
 771 233 l 1
 692 233 l 1
 692 159 l 1
 771 159 l 1
692 129 m 1
 692 54 l 1
 771 54 l 1
 771 129 l 1
 692 129 l 1
692 450.315315315 m 1
 724 463 l 1
 692 463 l 1
 692 450.315315315 l 1
627 383.304878049 m 1
 546 354 l 1
 627 354 l 1
 627 383.304878049 l 1
EndSplineSet
EndChar

StartChar: u18D1B
Encoding: 101659 101659 34
Width: 1000
GlyphClass: 1
Flags: W
HStem: 119 30<536 705 770 833> 224 29<109 322> 293 30<536 705 770 810> 469 30<536 695> 643 30<536 768>
VStem: 471 65<-67.3521 119 149 293 323 469 499 643 673 793.205> 705 65<-65.2327 119 149 293 323 462.293>
LayerCount: 2
Fore
SplineSet
536 293 m 1
 536 149 l 1
 705 149 l 1
 705 293 l 1
 536 293 l 1
705 323 m 1
 705 469 l 1
 536 469 l 1
 536 323 l 1
 705 323 l 1
833 149 m 1
 873 202 l 1
 952 135 l 1
 948 125 939 119 925 119 c 2
 770 119 l 1
 770 -52 l 1
 756 -64 738 -71 715 -73 c 2
 705 -73 l 1
 705 119 l 1
 536 119 l 1
 536 -54 l 2
 535 -59 524 -65 503 -71 c 0
 494 -74 487 -75 481 -75 c 2
 471 -75 l 1
 471 824 l 1
 572 813 l 1
 568 798 556 789 536 785 c 1
 536 673 l 1
 768 673 l 1
 808 730 l 1
 834 710 864 686 897 658 c 1
 893 648 885 643 872 643 c 2
 536 643 l 1
 536 499 l 1
 695 499 l 1
 731 538 l 1
 813 476 l 1
 804 467 790 460 770 456 c 1
 770 323 l 1
 810 323 l 1
 850 376 l 1
 929 309 l 1
 925 299 916 293 902 293 c 2
 770 293 l 1
 770 149 l 1
 833 149 l 1
100 253 m 1
 322 253 l 1
 353 292 l 1
 440 230 l 1
 432 222 419 218 400 217 c 1
 354 120 270 34 147 -40 c 0
 128 -52 106 -64 83 -77 c 1
 74 -65 l 1
 196 26 279 122 323 224 c 1
 109 224 l 1
 100 253 l 1
205 403 m 0
 198 449 181 497 153 548 c 1
 130 533 104 517 74 499 c 1
 67 518 l 1
 159 601 230 689 277 782 c 0
 282 791 287 800 291 809 c 1
 382 743 l 1
 377 738 372 734 365 733 c 0
 360 732 350 732 335 733 c 1
 295 670 245 615 184 570 c 1
 219 533 245 499 262 467 c 0
 264 462 266 459 267 456 c 1
 280 471 313 520 366 604 c 0
 381 628 394 648 405 665 c 1
 428 648 l 1
 361 525 323 455 316 438 c 0
 313 431 311 425 309 421 c 0
 303 401 304 382 313 363 c 1
 307 347 286 329 249 309 c 0
 228 298 213 292 202 292 c 1
 207 335 208 372 205 403 c 0
EndSplineSet
EndChar

StartChar: u18D1C
Encoding: 101660 101660 35
Width: 1000
GlyphClass: 1
Flags: W
HStem: 431 30<608 716 779 831> 684 30<633 716 779 797>
VStem: 257 69<-74.3209 63.4958> 384 79<8.53125 210.401> 522 65<-25.3521 359 396.514 681 690 785.205> 716 63<-71.2537 431 461 684>
LayerCount: 2
Fore
SplineSet
831 461 m 1
 869 512 l 1
 945 447 l 1
 941 437 932 431 918 431 c 2
 779 431 l 1
 779 -57 l 2
 778 -63 767 -68 747 -75 c 0
 739 -77 732 -78 726 -78 c 2
 716 -78 l 1
 716 431 l 1
 608 431 l 1
 599 461 l 1
 716 461 l 1
 716 684 l 1
 633 684 l 1
 624 714 l 1
 797 714 l 1
 835 765 l 1
 910 700 l 1
 906 690 897 684 883 684 c 2
 779 684 l 1
 779 461 l 1
 831 461 l 1
156 295 m 1
 179 268 202 240 223 210 c 1
 239 251 253 294 265 341 c 1
 368 299 l 1
 361 290 352 285 342 284 c 0
 341 284 336 284 329 284 c 1
 310 233 288 188 265 147 c 1
 316 62 336 -2 326 -45 c 0
 322 -64 311 -75 295 -77 c 0
 290 -78 286 -77 282 -76 c 0
 272 -71 264 -65 257 -56 c 1
 254 -10 244 38 228 88 c 1
 183 24 130 -33 70 -82 c 1
 56 -70 l 1
 114 -6 163 70 203 159 c 1
 184 204 164 245 143 280 c 1
 115 252 89 228 64 209 c 1
 51 220 l 1
 135 314 203 441 254 600 c 1
 355 561 l 1
 349 552 341 547 331 546 c 2
 318 546 l 1
 271 446 217 362 156 295 c 1
440 225 m 0
 440 222 441 219 441 217 c 1
 449 235 475 316 521 459 c 0
 521 461 522 462 522 463 c 2
 522 681 l 1
 517 677 512 674 507 673 c 0
 498 671 489 671 479 673 c 1
 451 592 419 523 383 466 c 1
 406 395 425 315 440 225 c 0
303 766 m 0
 300 765 296 764 289 764 c 1
 240 648 177 555 100 486 c 0
 99 484 98 484 97 483 c 2
 83 494 l 1
 143 576 188 683 219 815 c 1
 325 781 l 1
 320 772 312 767 303 766 c 0
587 777 m 1
 587 -12 l 2
 586 -17 575 -23 554 -29 c 0
 545 -32 538 -33 532 -33 c 2
 522 -33 l 1
 522 359 l 1
 493 246 475 174 470 144 c 0
 465 122 463 87 463 38 c 1
 457 21 439 3 409 -16 c 0
 392 -26 378 -32 369 -32 c 1
 378 22 383 76 384 132 c 0
 388 209 379 307 357 428 c 1
 339 404 319 378 296 351 c 1
 283 361 l 1
 342 475 388 598 421 732 c 1
 522 690 l 1
 522 816 l 1
 623 805 l 1
 619 790 607 781 587 777 c 1
EndSplineSet
EndChar

StartChar: u18D1D
Encoding: 101661 101661 36
Width: 1000
GlyphClass: 1
Flags: W
HStem: -73 16<494.812 507.684> 260 28<349 416> 263 15<70.7333 86.9365> 686 30<68 235 300 445 510 659 724 800>
VStem: 144 77<-12.8586 67.1032> 184 67<384.285 445.138> 235 65<583.368 686 716 792.79> 289 60<-76.4648 175 206.469 260 288 335 431 528.885> 424 64<-57.7811 254.948> 445 65<577.368 686 716 797.79> 659 65<586.368 686 716 792.79>
LayerCount: 2
Fore
SplineSet
800 716 m 1x9260
 850 781 l 1
 943 702 l 1
 939 692 930 687 916 686 c 2
 724 686 l 1
 724 600 l 2
 724 595 713 589 691 583 c 0
 683 580 675 579 669 579 c 2
 659 579 l 1
 659 686 l 1
 510 686 l 1
 510 591 l 2
 510 586 499 580 477 574 c 0
 469 571 461 570 455 570 c 2
 445 570 l 1
 445 686 l 1
 300 686 l 1
 300 597 l 2
 300 592 289 586 267 580 c 0
 259 577 251 576 245 576 c 2
 235 576 l 1
 235 686 l 1
 68 686 l 1
 59 716 l 1
 235 716 l 1
 235 824 l 1
 336 813 l 1
 332 798 320 788 300 785 c 1
 300 716 l 1
 445 716 l 1
 445 829 l 1
 546 818 l 1
 542 803 530 793 510 790 c 1
 510 716 l 1
 659 716 l 1
 659 824 l 1
 760 813 l 1
 756 798 744 788 724 785 c 1
 724 716 l 1
 800 716 l 1x9260
892 200 m 2
 887 201 883 202 880 203 c 0
 843 155 805 113 765 78 c 1
 816 45 875 22 941 11 c 1
 941 1 l 1
 920 -8 906 -27 897 -56 c 0
 895 -62 894 -68 893 -75 c 1
 824 -50 766 -12 720 40 c 1
 653 -11 578 -49 497 -73 c 1
 492 -57 l 1
 559 -26 625 19 688 79 c 1
 667 108 648 139 633 172 c 1
 610 161 588 151 566 144 c 1
 560 160 l 1
 645 208 726 292 803 413 c 0
 806 418 809 423 813 429 c 1
 880 361 l 1
 875 356 869 353 863 353 c 0
 861 353 858 353 856 354 c 0
 852 355 849 356 847 357 c 0
 785 281 721 224 656 185 c 1
 676 157 698 133 722 112 c 1
 765 159 806 210 844 267 c 1
 914 210 l 1
 908 203 901 200 894 200 c 2
 892 200 l 2
580 310 m 1
 573 325 l 1
 634 374 694 452 752 560 c 1
 821 496 l 1
 815 490 809 488 803 488 c 2
 799 488 l 2
 794 489 790 489 789 490 c 1
 731 411 667 353 597 318 c 0
 592 316 587 313 580 310 c 1
217 382 m 2
 207 382 196 386 184 394 c 1
 177 419 165 445 146 470 c 0
 132 490 115 508 96 524 c 1
 106 536 l 1
 141 525 173 509 202 488 c 0
 232 467 248 445 251 422 c 2
 251 416 l 2x9420
 251 401 244 390 229 384 c 2
 221 382 l 1x9820
 217 382 l 2
349 518 m 1xb920
 349 431 l 1
 388 462 424 499 455 544 c 1
 537 492 l 1
 532 484 524 480 514 479 c 0
 510 479 506 480 502 481 c 0
 461 439 410 400 349 365 c 1
 349 288 l 1
 416 288 l 1
 450 331 l 1
 525 267 l 1
 518 258 505 251 488 248 c 1
 488 -43 l 1
 475 -56 458 -63 436 -65 c 2
 424 -65 l 1
 424 260 l 1
 349 260 l 1
 349 -62 l 2xd9a0
 348 -67 339 -72 321 -79 c 0
 313 -82 306 -83 300 -83 c 2xd220
 289 -83 l 1
 289 175 l 1
 258 106 238 60 231 38 c 0
 230 35 229 32 227 27 c 0
 223 15 221 6 221 -2 c 0
 221 -6 222 -10 223 -13 c 0
 216 -29 198 -45 171 -62 c 0
 157 -71 144 -75 133 -75 c 2
 131 -75 l 1
 132 -70 133 -62 135 -50 c 0
 141 -16 144 8 144 21 c 0
 142 47 138 73 132 98 c 1
 119 84 97 64 66 37 c 1
 56 50 l 1
 104.865254881 121.802007172 144.779939911 202.554584195 175.744055091 291.265958104 c 1
 143.464908216 280.8582341 109.521044484 271.436248065 74 263 c 1
 67 278 l 1
 153 309 227 345 289 386 c 1
 289 555 l 1
 380 544 l 1
 376 531 366 522 349 518 c 1xb920
176.576204046 291.534604424 m 1
 254 229 l 1
 249 224 242 220 234 219 c 2
 225 219 l 2
 220 219 216 219 213 220 c 0
 196 186 179 157 161 132 c 1
 184 91 195 69 196 68 c 1
 201 77 232 136 287 245 c 0
 287 246 287 246 288 247 c 0
 289 248 289 249 289 250 c 2
 289 335 l 1
 254.213306807 318.987077737 216.682590886 304.498612545 176.576204046 291.534604424 c 1
EndSplineSet
EndChar

StartChar: u18D1E
Encoding: 101662 101662 37
Width: 1000
GlyphClass: 1
Flags: HW
HStem: 247 29<418 545> 540 30<73 116 178 206 269 297> 590 17<814.812 829.799> 664 30<586 706 771 832> 722 30<95 293> 766 27<771 793.643>
VStem: 116 62<399.71 540 570 662.412> 206 63<443.998 540 570 671.384> 297 62<410.71 540 570 662.897> 325 59<-73.1611 -16.2353> 465 94<347.051 463.308> 706 65<694 766> 857 69<-71.7344 39.322>
LayerCount: 2
Fore
SplineSet
928.210109302 -23.9509670013 m 0
 928.210109302 -26.5475917726 927.74784965 -74.5161985908 893.587966461 -74.5161985908 c 0
 891.483554374 -74.5161985908 889.287565553 -74.343134833 887 -74 c 0
 885 -74 883 -73 882 -73 c 0
 873 -70 865 -64 857 -55 c 1
 855 -17 845 26 767 217 c 1
 710 107 595 -17 530 -73 c 1
 516 -62 l 1
 579 8 689 148 740 277 c 1
 719 318 697 354 674 384 c 1
 652 357 627 331 599 306 c 1
 586 316 l 1
 658 410 710 515 732 639 c 1
 838 607 l 1
 833 598 825 592 815 590 c 1
 810 590 l 1
 806 589 804 589 802 589 c 0
 777 522 736 463 687 400 c 1
 714 374 739 348 761 322 c 1
 792 398 817 475 834 553 c 1
 939 517 l 1
 927.6 498 911.361403509 498 901 498 c 1
 878 418 845 343 802 271 c 1xff38
 899.002455946 84.7209474303 928.210109302 16.345899367 928.210109302 -23.9509670013 c 0
921 664 m 2
 586 664 l 1
 578 694 l 1
 706 694 l 1
 706 803 l 1
 806 793 l 1
 805 778 794 769 773 766 c 1
 771 766 l 1
 771 694 l 1
 832 694 l 1
 871 746 l 1
 947 680 l 1
 943 670 934 664 921 664 c 2
410 276 m 1
 545 276 l 1
 574 317 l 1
 656 253 l 1
 650 246 636 241 621 240 c 1
 593 142 541 54 465 -26 c 0
 450 -42 433 -58 411 -79 c 1
 399 -67 l 1
 477 34 528 139 549 247 c 1
 418 247 l 1
 410 276 l 1
178 414 m 2
 178 407.921995468 146.320258061 393 131 393 c 2
 116 393 l 1
 116 540 l 1
 73 540 l 1
 67 570 l 1
 116 570 l 1
 116 685 l 1
 204 672 l 1
 201 661 192 650 178 647 c 1
 178 570 l 1
 206 570 l 1
 206 693 l 1
 294 680 l 1
 292 669 282 658 269 655 c 1
 269 570 l 1
 297 570 l 1
 297 685 l 1
 385 672 l 1
 382 661 372 650 359 647 c 1
 359 570 l 1xffb8
 385 620 l 1
 437.943780079 556.271375831 l 1
 440.345441664 561.533007313 442.696307495 566.778296988 445 572 c 2
 459 604 l 1
 478 650 497 707 518 776 c 1
 608 722 l 1
 603.442924266 717.442924266 594.972830169 708.972830169 576.680955438 708.972830169 c 0
 573.164317714 708.972830169 569.284661243 709.285889793 565 710 c 1
 545 656 523 609 497 570 c 1
 519 518 529 484 532 466 c 1
 532 466 538 477 548 491 c 1
 620 633 l 1
 646 618 l 1
 601.701655991 519.373498243 554.434969365 406.955214442 559 375 c 1
 549.385911669 349.362431117 495.886814783 309 465 309 c 1
 473.975296701 351.881973129 477.592230826 378.6608791 477.592230826 428.405105905 c 0
 477.592230826 457.553755053 474.234628196 491.630706599 467 527 c 1
 454 511 433 486 406 457 c 1
 393 469 l 1
 408.240090379 494.908153644 421.738228097 521.396958175 433.936871704 547.581496417 c 1
 429.414041981 543.813483302 422.134025742 540.608935023 413 540 c 2
 359 540 l 1
 359 425 l 2
 359 419.65830096 328.109501571 404 312 404 c 2
 297 404 l 1
 297 540 l 1
 269 540 l 1
 269 458 l 1
 266.814866077 451.444598231 235.802795053 437 222 437 c 2
 206 437 l 1
 206 540 l 1
 178 540 l 1
 178 414 l 2
386.176818458 -36.1506890539 m 0
 386.176818458 -40.6917315532 385.062296961 -74.9089275651 351.470714478 -74.9089275651 c 0
 344.492924508 -74.9089275651 335.919608934 -72.6437262536 325 -65 c 1xff78
 313 -26 284 22 246 68 c 1
 203 18 143 -33 65 -79 c 1
 56 -60 l 1
 109 -19 160 37 210 110 c 1
 171 151 137 182 107 204 c 1
 151 256 195 330 240 430 c 1
 320 372 l 1
 319 368 310 361 297 360 c 0
 293 360 288 361 292 360 c 1
 256 309 212 259 160 213 c 1
 190 194 220 173 240 158 c 1
 267 200 296 257 326 329 c 1
 401 264 l 1
 398.06953191 260.092709214 386.551420596 254.277053267 372.970136466 254.941636946 c 1
 350.973759042 211.958377648 321.98461797 165.978284215 288 118 c 1
 361.379368402 48.5516691911 386.176818458 -3.70848204499 386.176818458 -36.1506890539 c 0
380 722 m 1
 95 722 l 1
 88 752 l 1
 293 752 l 1
 333 825 l 1
 406 737 l 1
 405 731 395 723 380 722 c 1
370.372100048 255.782319249 m 1
 370.115439881 255.88756248 369.926842099 255.941922914 369.732504757 255.970001973 c 1
 369.931309403 255.911921711 370.144244474 255.849444342 370.372100048 255.782319249 c 1
EndSplineSet
EndChar

StartChar: u18D1F
Encoding: 101663 101663 38
Width: 1000
GlyphClass: 1
Flags: W
HStem: 165 29<412 545> 232 30<745 807> 357 30<644 833> 482 30<669 806> 561 30<83 344> 614 30<427 685.523 713 821> 722 30<110 317>
VStem: 319 62<-22.9507 42.1204> 523 64<667.552 747.656> 669 65<-66.3521 232> 818 65<-71.3521 227.762>
LayerCount: 2
Fore
SplineSet
403 194 m 1
 545 194 l 1
 576 233 l 1
 663 171 l 1
 655 163 642 159 623 158 c 1
 585 81 531 18 460 -30 c 0
 443 -41 423 -54 400 -67 c 1
 391 -57 l 1
 462 6 515 80 549 165 c 1
 412 165 l 1
 403 194 l 1
745 262 m 1
 807 262 l 1
 843 301 l 1
 924 240 l 1
 915 231 901 225 883 221 c 1
 883 -58 l 2
 882 -63 871 -69 850 -75 c 0
 841 -78 834 -79 828 -79 c 2
 818 -79 l 1
 818 232 l 1
 734 232 l 1
 734 -53 l 2
 733 -58 722 -64 701 -70 c 0
 692 -73 685 -74 679 -74 c 2
 669 -74 l 1
 669 295 l 1
 745 262 l 1
833 387 m 1
 872 440 l 1
 948 373 l 1
 944 363 935 357 921 357 c 2
 644 357 l 1
 635 387 l 1
 833 387 l 1
660 512 m 1
 806 512 l 1
 845 564 l 1
 922 498 l 1
 918 488 909 482 895 482 c 2
 669 482 l 1
 660 512 l 1
622 500 m 2
 644 486 l 1
 637 469 626 443 612 410 c 0
 593 368 582 342 578 331 c 0
 569 308 565 293 566 286 c 0
 567 283 568 280 569 278 c 0
 560 262 540 246 508 230 c 0
 492 222 479 219 470 219 c 1
 471 225 473 235 476 249 c 0
 483 281 486 304 486 317 c 0
 484 350 478 382 468 414 c 1
 446 398 419 380 386 361 c 1
 378 375 l 1
 442 441 496 517 538 603 c 1
 621 535 l 1
 615 529 608 526 601 526 c 0
 593 525 584 525 574 528 c 1
 550 493 525 463 497 438 c 1
 524 399 538 373 540 360 c 1
 546 368 572 411 616 490 c 0
 618 493 620 497 622 500 c 2
465 802 m 1
 476 807 l 1
 539 787 576 758 587 722 c 0
 593 699 588 682 572 671 c 0
 557 661 540 664 523 680 c 1
 518 721 499 761 465 802 c 1
915 614 m 2
 427 614 l 1
 418 644 l 1
 679 644 l 1
 702 689 727 747 756 816 c 1
 858 782 l 1
 849 769 836 764 818 766 c 1
 789 725 754 684 713 644 c 1
 821 644 l 1
 862 699 l 1
 942 630 l 1
 938 620 929 614 915 614 c 2
401 312 m 1
 376 254 343 197 304 142 c 1
 353 96 379 57 381 25 c 0
 383 -4 374 -21 355 -24 c 0
 353 -25 351 -25 350 -25 c 0
 339 -27 329 -24 319 -17 c 1
 311 19 293 55 266 93 c 1
 209 26 144 -32 71 -81 c 1
 58 -69 l 1
 125 -10 182 59 230 138 c 1
 192 180 148 218 97 252 c 1
 152 330 200 423 240 531 c 1
 340 482 l 1
 335 475 326 471 313 472 c 2
 302 474 l 1
 261 389 209 317 146 256 c 1
 185 234 222 209 256 183 c 1
 289 242 317 306 341 374 c 1
 441 325 l 1
 434 316 425 311 414 311 c 0
 411 310 407 311 401 312 c 1
435 561 m 2
 83 561 l 1
 74 591 l 1
 344 591 l 1
 384 644 l 1
 462 577 l 1
 458 567 449 561 435 561 c 2
408 722 m 2
 110 722 l 1
 101 752 l 1
 317 752 l 1
 357 805 l 1
 435 738 l 1
 431 728 422 722 408 722 c 2
EndSplineSet
EndChar

StartChar: u18D20
Encoding: 101664 101664 39
Width: 1000
GlyphClass: 1
Flags: W
HStem: 296 30<72 157 222 341 406 421> 312 30<630 742> 454 30<500 825> 560 30<233 330> 588 30<541 780> 714 30<94 352> 732 30<546 770>
VStem: 157 65<-66.3521 296 326 560> 341 65<-71.3521 296 326 555.762> 554 65<-66.3521 312> 753 65<-71.3521 307.762> 780 68<560.958 588 618 727.226>
LayerCount: 2
Fore
SplineSet
222 560 m 1xb1c0
 222 326 l 1
 341 326 l 1
 341 560 l 1
 222 560 l 1xb1c0
502 296 m 2
 406 296 l 1
 406 -58 l 2
 405 -63 394 -69 373 -75 c 0
 364 -78 357 -79 351 -79 c 2
 341 -79 l 1
 341 296 l 1
 222 296 l 1
 222 -53 l 2
 221 -58 210 -64 189 -70 c 0
 180 -73 173 -74 167 -74 c 2
 157 -74 l 1
 157 296 l 1
 72 296 l 1
 63 326 l 1
 157 326 l 1
 157 623 l 1
 170 617 l 1
 233 590 l 1
 330 590 l 1
 366 629 l 1
 447 568 l 1
 438 559 424 553 406 549 c 1
 406 326 l 1
 421 326 l 1xb1c0
 457 374 l 1
 529 312 l 1x61c0
 525 302 516 296 502 296 c 2
468 714 m 2x25c0
 94 714 l 1
 85 744 l 1
 352 744 l 1
 402 809 l 1
 495 730 l 1
 491 720 482 714 468 714 c 2x25c0
630 342 m 1x61e0
 742 342 l 1
 778 381 l 1
 859 320 l 1
 850 311 836 305 818 301 c 1
 818 -58 l 2
 817 -63 806 -69 785 -75 c 0
 776 -78 769 -79 763 -79 c 2
 753 -79 l 1
 753 312 l 1
 619 312 l 1
 619 -53 l 2
 618 -58 607 -64 586 -70 c 0
 577 -73 570 -74 564 -74 c 2
 554 -74 l 1
 554 375 l 1
 567 369 l 1
 630 342 l 1x61e0
825 484 m 1
 867 540 l 1
 948 470 l 1
 944 460 935 454 921 454 c 2
 500 454 l 1
 491 484 l 1
 825 484 l 1
541 588 m 1x2bd0
 532 618 l 1
 780 618 l 1
 780 732 l 1
 546 732 l 1
 537 762 l 1
 770 762 l 1
 809 804 l 1
 889 740 l 1
 882 732 868 725 848 721 c 1
 848 577 l 2
 847 571 837 565 817 557 c 0
 807 554 799 552 791 552 c 2
 780 552 l 1
 780 588 l 1
 541 588 l 1x2bd0
EndSplineSet
EndChar

StartChar: u18D80
Encoding: 101760 101760 40
Width: 1000
GlyphClass: 1
Flags: W
HStem: -75 58<617.56 683.039> 425 30<341 397> 584 30<258 346.391 370 407>
VStem: 268 62<-63.9847 425 670.908 772.742> 409 62<-68.6316 420.762> 549 67<-16.5158 356.611 377 777.807> 724 16<172.949 223>
LayerCount: 2
Fore
SplineSet
341 455 m 1
 397 455 l 1
 433 494 l 1
 512 433 l 1
 503 424 489 418 471 414 c 1
 471 -55 l 2
 470 -60 460 -66 439 -72 c 0
 431 -75 425 -76 419 -76 c 2
 409 -76 l 1
 409 425 l 1
 330 425 l 1
 330 -50 l 2
 329 -56 319 -61 299 -67 c 0
 291 -70 284 -71 278 -71 c 2
 268 -71 l 1
 268 488 l 1
 281 483 l 1
 341 455 l 1
740 223 m 1
 741 -2 l 1
 765 -10 777 -20 778 -31 c 0
 778 -51 763 -64 734 -70 c 0
 714 -73 684 -75 642 -75 c 0
 595 -75 567 -65 557 -46 c 0
 552 -35 549 -21 549 -3 c 2
 549 810 l 1
 653 798 l 1
 649 783 637 774 616 770 c 1
 616 377 l 1
 655 422 684 472 703 527 c 1
 781 470 l 1
 776 462 768 457 758 457 c 0
 755 457 750 458 743 459 c 1
 714 415 672 377 616 344 c 1
 616 14 l 2
 616 -5 621 -15 631 -16 c 0
 633 -17 635 -17 637 -17 c 0
 652 -17 661 -17 664 -16 c 0
 672 -12 679 -4 684 7 c 0
 690 23 703 89 721 204 c 0
 722 211 723 218 724 223 c 1
 740 223 l 1
219 820 m 1
 231 824 l 1
 292 797 327 764 336 725 c 0
 341 701 335 684 318 674 c 0
 302 664 285 668 269 687 c 1
 269 729 252 774 219 820 c 1
370 614 m 1
 407 614 l 1
 449 669 l 1
 530 600 l 1
 526 590 517 584 503 584 c 2
 258 584 l 1
 249 614 l 1
 341 614 l 1
 364 674 387 745 411 827 c 1
 513 792 l 1
 504 779 491 774 474 776 c 1
 444 721 409 667 370 614 c 1
EndSplineSet
EndChar

StartChar: u18D81
Encoding: 101761 101761 41
Width: 1000
GlyphClass: 1
Flags: W
HStem: 450 30<237 662> 596 30<252 662> 741 30<242 652>
VStem: 662 68<422.958 450 480 596 625.14 736.226>
LayerCount: 2
Fore
SplineSet
237 450 m 1
 228 480 l 1
 662 480 l 1
 662 559 l 1
 662 596 l 1
 252 596 l 1
 243 626 l 1
 662 625.13963039 l 1
 662 741 l 1
 242 741 l 1
 233 771 l 1
 652 771 l 1
 691 813 l 1
 771 749 l 1
 764 741 750 734 730 730 c 1
 730 625 l 1
 730 584 l 1
 730 439 l 2
 729 433 719 427 699 419 c 0
 689 416 681 414 673 414 c 2
 662 414 l 1
 662 450 l 1
 237 450 l 1
EndSplineSet
EndChar

StartChar: u18D82
Encoding: 101762 101762 42
Width: 1000
GlyphClass: 1
Flags: W
VStem: 277 22<547.203 564.455>
LayerCount: 2
Fore
SplineSet
368 421 m 2
 390 382 l 1
 477 236 588 110 723 3 c 1
 723 -9 l 1
 697 -7 676 -26 660 -65 c 0
 659 -69 658 -73 657 -76 c 1
 522 50 416 202 340 382 c 2
 324 421 l 2
 306 468 290 514 277 560 c 1
 299 574 l 1
 318 522 341 470 368 421 c 2
EndSplineSet
EndChar

StartChar: u18D83
Encoding: 101763 101763 43
Width: 1000
GlyphClass: 1
Flags: W
HStem: -72 174
VStem: 492 77<-67.4332 21.431>
LayerCount: 2
Fore
SplineSet
528 -72 m 0
 515 -70 503 -63 492 -51 c 1
 490 -24 483 2 471 29 c 0
 463 48 449 69 430 93 c 1
 442 102 l 1
 478 84 508 63 532 39 c 0
 559 12 571 -14 569 -37 c 0
 567 -56 557 -68 538 -71 c 0
 535 -72 531 -72 528 -72 c 0
EndSplineSet
EndChar

StartChar: u18D84
Encoding: 101764 101764 44
Width: 1000
GlyphClass: 1
Flags: W
HStem: 766 30<333 590>
LayerCount: 2
Fore
SplineSet
223 27 m 1
 322 95 406 184 475 294 c 1
 475 294 502 333 514 361 c 1
 592 327 l 1
 587 321 581 318 573 317 c 2
 563 317 l 1
 519 242 449 162 365 97 c 1
 388 58 408 31 425 16 c 0
 439 7 451 7 461 15 c 0
 498 42 537 88 577 156 c 0
 608 207 636 265 659 328 c 1
 412 432 l 1
 394 397 l 1
 303 460 l 1
 317 470 332 477 347 479 c 1
 597 766 l 1
 333 766 l 1
 324 796 l 1
 590 796 l 1
 619 832 l 1
 712 769 l 1
 703 758 691 752 676 751 c 1
 417 463 l 1
 668 362 l 1
 715 393 l 1
 776 314 l 1
 767 308 752 305 732 306 c 1
 682 166 619 59 541 -16 c 0
 526 -30 513 -41 501 -48 c 0
 467 -70 426 -77 379 -70 c 1
 384 -49 384 -29 379 -9 c 0
 371 20 361 51 347 84 c 1
 312 59 274 35 234 13 c 1
 223 27 l 1
EndSplineSet
EndChar

StartChar: u18D85
Encoding: 101765 101765 45
Width: 1000
GlyphClass: 1
Flags: W
HStem: -68 21<288 307.023> 144 30<418 583> 314 30<418 548> 464 30<332 533> 597 30<287 447 512 606> 773 27<512 534.643>
VStem: 447 65<627 773>
LayerCount: 2
Fore
SplineSet
418 174 m 1
 589 174 l 1
 624 216 l 1
 706 154 l 1
 698 146 686 142 670 141 c 1
 604 44 478 -26 292 -68 c 1
 280 -47 l 1
 427 -2 528 62 583 144 c 1
 387 144 l 1
 363 125 l 1
 317 186 l 1
 324 189 337 192 357 195 c 1
 548 314 l 1
 386 314 l 1
 362 295 l 1
 316 357 l 1
 322 359 336 362 356 365 c 1
 533 464 l 1
 332 464 l 1
 324 494 l 1
 565 494 l 1
 602 533 l 1
 678 472 l 1
 670 464 658 460 642 459 c 1
 418 344 l 1
 570 344 l 1
 607 384 l 1
 686 324 l 1
 678 316 666 312 650 311 c 1
 418 174 l 1
606 627 m 1
 645 679 l 1
 721 613 l 1
 717 603 708 597 695 597 c 2
 287 597 l 1
 279 627 l 1
 447 627 l 1
 447 810 l 1
 547 800 l 1
 546 785 535 776 514 773 c 0
 513 773 513 773 512 773 c 1
 512 627 l 1
 606 627 l 1
EndSplineSet
EndChar

StartChar: u18D86
Encoding: 101766 101766 46
Width: 1000
GlyphClass: 1
Flags: W
HStem: -74 58<559.14 620.039> 727 30<294 564>
VStem: 335 65<-67.3521 644.205> 478 67<-14.9004 285.971 303 635.807> 661 16<170.976 219>
LayerCount: 2
Fore
SplineSet
677 219 m 1
 678 -1 l 1
 702 -9 714 -19 715 -30 c 0
 715 -50 702 -62 675 -68 c 0
 654 -72 620 -74 571 -74 c 0
 524 -74 496 -64 486 -45 c 0
 481 -34 478 -20 478 -2 c 2
 478 668 l 1
 582 656 l 1
 578 641 566 632 545 628 c 1
 545 303 l 1
 582 355 610 412 630 474 c 1
 713 422 l 1
 708 414 700 409 690 409 c 0
 687 409 682 410 675 411 c 1
 645 361 602 314 545 269 c 1
 545 15 l 2
 545 -3 550 -13 559 -15 c 0
 562 -16 564 -16 567 -16 c 0
 587 -16 598 -16 601 -15 c 0
 609 -11 616 -3 621 8 c 0
 629 28 642 98 661 219 c 1
 677 219 l 1
345 -75 m 2
 335 -75 l 1
 335 675 l 1
 436 664 l 1
 432 649 420 640 400 636 c 1
 400 -54 l 2
 399 -59 388 -65 367 -71 c 0
 358 -74 351 -75 345 -75 c 2
669 727 m 2
 294 727 l 1
 285 757 l 1
 564 757 l 1
 610 817 l 1
 696 743 l 1
 692 733 683 727 669 727 c 2
EndSplineSet
EndChar

StartChar: u18D87
Encoding: 101767 101767 47
Width: 1000
GlyphClass: 1
Flags: W
HStem: -75 22<299.864 330.035> 101 30<422 592> 252 30<415 550> 386 30<319 510> 414 17<215.706 231.761> 467 10<770.821 784>
LayerCount: 2
Fore
SplineSet
422 131 m 1xf4
 602 131 l 1
 637 172 l 1
 721 111 l 1
 713 103 701 99 685 98 c 1
 619 14 492 -44 304 -75 c 1
 291 -53 l 1
 435 -19 536 32 592 101 c 1
 381 101 l 1
 357 82 l 1
 311 144 l 1
 317 146 331 149 351 152 c 1
 550 252 l 1
 373 252 l 1
 349 233 l 1
 303 296 l 1
 308 297 321 300 343 303 c 1
 510 386 l 1
 319 386 l 1
 311 416 l 1
 560 416 l 1
 599 455 l 1
 673 394 l 1
 665 386 653 382 637 381 c 1
 415 282 l 1
 588 282 l 1
 626 322 l 1
 705 262 l 1
 697 254 685 250 669 249 c 1
 422 131 l 1xf4
671 669 m 1
 625 623 579 584 532 553 c 1
 610 523 696 498 788 477 c 1
 784 467 l 1
 759 462 742 445 731 417 c 1
 639 443 555 477 479 518 c 1
 398 471 311 436 219 414 c 1
 211 431 l 1xec
 285 458 357 498 428 549 c 1
 381 580 340 614 305 651 c 1
 381 698 443 754 491 821 c 1
 570 760 l 1
 564 752 556 748 546 749 c 0
 544 749 542 750 539 751 c 0
 534 753 531 754 529 754 c 0
 482 709 424 672 356 641 c 1
 389 619 426 598 468 579 c 1
 523 624 577 676 628 735 c 1
 711 673 l 1
 705 665 697 662 687 664 c 0
 683 664 678 666 671 669 c 1
EndSplineSet
EndChar

StartChar: u18D88
Encoding: 101768 101768 48
Width: 1000
GlyphClass: 1
Flags: W
HStem: 434 28<338 487> 577 30<289 468.515 491 576>
VStem: 497 65<-68.2327 427.293>
LayerCount: 2
Fore
SplineSet
507 -76 m 2
 497 -76 l 1
 497 434 l 1
 338 434 l 1
 330 462 l 1
 487 462 l 1
 523 503 l 1
 605 441 l 1
 596 432 582 425 562 421 c 1
 562 -55 l 1
 548 -67 530 -74 507 -76 c 2
290 808 m 1
 303 813 l 1
 374 780 416 741 429 696 c 0
 437 669 433 649 417 637 c 0
 402 627 386 630 369 647 c 1
 364 695 338 749 290 808 c 1
576 607 m 1
 626 672 l 1
 719 593 l 1
 715 583 706 577 692 577 c 2
 289 577 l 1
 280 607 l 1
 462 607 l 1
 497 680 528 752 554 820 c 1
 654 782 l 1
 645 770 632 765 615 767 c 1
 574 705 533 652 491 607 c 1
 576 607 l 1
EndSplineSet
EndChar

StartChar: u18D89
Encoding: 101769 101769 49
Width: 1000
GlyphClass: 1
Flags: W
HStem: 193 30<243 336 401 442> 453 30<247 336 401 421> 712 30<260 336 401 418> 738 21<674 691.453>
VStem: 336 65<-67.3521 193 223 453 483 712>
LayerCount: 2
Fore
SplineSet
234 223 m 1xd8
 336 223 l 1
 336 453 l 1
 247 453 l 1
 238 483 l 1
 336 483 l 1
 336 712 l 1
 260 712 l 1
 251 742 l 1
 418 742 l 1
 454 791 l 1
 527 728 l 1
 523 718 514 712 500 712 c 2
 401 712 l 1xe8
 401 483 l 1
 421 483 l 1
 457 532 l 1
 520 478 l 1
 554 570 579 673 594 786 c 1
 702 759 l 1
 698 749 690 742 678 738 c 0
 677 738 675 737 672 737 c 0
 668 737 666 736 665 736 c 0
 637 617 595 511 537 420 c 1
 572 279 648 146 766 21 c 1
 762 11 l 1
 737 18 713 6 687 -23 c 0
 686 -25 684 -27 683 -28 c 1
 591 92 535 230 513 384 c 1
 498 363 481 340 462 317 c 1
 446 327 l 1
 468 362 489 404 510 453 c 1
 401 453 l 1
 401 223 l 1
 442 223 l 1
 478 272 l 1
 550 209 l 1
 546 199 537 193 523 193 c 2
 401 193 l 1
 401 -54 l 2
 400 -59 389 -65 368 -71 c 0
 359 -74 352 -75 346 -75 c 2
 336 -75 l 1
 336 193 l 1
 243 193 l 1
 234 223 l 1xd8
EndSplineSet
EndChar

StartChar: u18D8A
Encoding: 101770 101770 50
Width: 1000
GlyphClass: 1
Flags: W
HStem: -66 56<538.089 668.661> 155 30<293 471 536 580> 347 30<293 471 536 582> 540 30<293 471 536 580> 725 30<304 460>
VStem: 228 65<-58.3521 155 185 347 377 540 570 725> 471 65<-8.85278 155 185 347 377 540 570 720.762> 722 17<97.358 145>
LayerCount: 2
Fore
SplineSet
580 185 m 1
 619 237 l 1
 696 171 l 1
 692 161 683 155 669 155 c 2
 536 155 l 1
 536 38 l 2
 536 27 l 2
 536 6 540 -6 547 -9 c 0
 549 -9 550 -10 552 -10 c 0
 640 -10 662 -9 669 -6 c 0
 677 -3 683 4 688 15 c 0
 699 42 710 65 722 145 c 1
 739 145 l 1
 740 10 l 1
 760 1 770 -9 771 -20 c 0
 770 -52 728 -66 653 -66 c 2
 557 -66 l 2
 514 -66 488 -57 479 -40 c 0
 474 -30 471 -15 471 4 c 2
 471 29 l 1
 471 38 l 1
 471 155 l 1
 293 155 l 1
 293 -45 l 2
 292 -50 281 -56 260 -62 c 0
 251 -65 244 -66 238 -66 c 2
 228 -66 l 1
 228 788 l 1
 240 783 l 1
 304 755 l 1
 460 755 l 1
 496 794 l 1
 577 733 l 1
 568 724 554 718 536 714 c 1
 536 570 l 1
 580 570 l 1
 619 622 l 1
 695 556 l 1
 691 546 682 540 668 540 c 2
 536 540 l 1
 536 377 l 1
 582 377 l 1
 621 429 l 1
 697 363 l 1
 693 353 684 347 670 347 c 2
 536 347 l 1
 536 185 l 1
 580 185 l 1
471 570 m 1
 471 725 l 1
 293 725 l 1
 293 570 l 1
 471 570 l 1
293 377 m 1
 471 377 l 1
 471 540 l 1
 293 540 l 1
 293 377 l 1
293 347 m 1
 293 185 l 1
 471 185 l 1
 471 347 l 1
 293 347 l 1
EndSplineSet
EndChar

StartChar: u18D8B
Encoding: 101771 101771 51
Width: 1000
GlyphClass: 1
Flags: W
HStem: -75 19<287.684 313.457> 106 30<445 590> 272 30<356 516>
LayerCount: 2
Fore
SplineSet
445 136 m 1
 590 136 l 1
 629 178 l 1
 720 116 l 1
 712 108 700 104 684 103 c 1
 622 27 519 -27 373 -60 c 0
 346 -66 319 -71 291 -75 c 1
 282 -56 l 1
 396 -28 487 14 556 71 c 0
 571 83 583 95 592 106 c 1
 406 106 l 1
 382 87 l 1
 329 149 l 1
 335 151 349 154 369 157 c 1
 516 272 l 1
 356 272 l 1
 348 302 l 1
 519 302 l 1
 558 344 l 1
 659 281 l 1
 651 273 639 269 623 268 c 1
 445 136 l 1
657 574 m 1
 620 532 580 494 539 459 c 1
 607 429 684 402 769 378 c 1
 766 367 l 1
 739 362 720 344 709 313 c 1
 625 341 551 377 488 421 c 1
 434 384 376 354 313 332 c 1
 306 347 l 1
 353 373 400 408 448 450 c 1
 404 486 369 521 341 556 c 1
 428 620 499 697 556 788 c 1
 639 732 l 1
 632 724 624 719 615 719 c 0
 614 719 611 720 608 721 c 0
 603 722 600 723 598 723 c 0
 544 659 474 600 389 548 c 1
 419 525 451 504 485 486 c 1
 529 531 571 581 611 638 c 1
 697 580 l 1
 691 573 683 569 673 570 c 0
 668 570 663 572 657 574 c 1
240 595 m 1
 231 610 l 1
 300 656 365 727 426 825 c 1
 515 777 l 1
 508 769 500 764 492 764 c 0
 485 766 479 767 474 769 c 1
 409 692 331 634 240 595 c 1
EndSplineSet
EndChar

StartChar: u18D8C
Encoding: 101772 101772 52
Width: 1000
GlyphClass: 1
Flags: W
HStem: -68 58<436.192 565.897> 577 30<281 360 427 480.284 503 584>
VStem: 360 67<-7.85425 244.422 259 577> 621 16<181.645 225>
LayerCount: 2
Fore
SplineSet
313 812 m 1
 325 817 l 1
 394 788 434 752 447 710 c 0
 454 684 450 665 434 654 c 0
 419 643 402 646 385 663 c 1
 380 708 356 757 313 812 c 1
584 607 m 1
 634 672 l 1
 727 593 l 1
 723 583 714 577 700 577 c 2
 427 577 l 1
 427 259 l 1
 499 314 552 376 586 447 c 1
 661 387 l 1
 656 379 648 374 638 374 c 0
 635 374 630 375 623 376 c 1
 575 318 510 271 427 236 c 1
 427 21 l 2
 427 5 433 -5 444 -8 c 0
 450 -9 456 -10 463 -10 c 0
 518 -10 548 -9 556 -7 c 0
 567 -3 574 4 579 14 c 0
 586 32 600 103 621 225 c 1
 637 225 l 1
 638 5 l 1
 662 -3 674 -13 675 -24 c 0
 675 -41 666 -52 649 -57 c 0
 625 -64 560 -68 455 -68 c 0
 407 -68 378 -58 368 -39 c 0
 363 -29 360 -14 360 4 c 2
 360 577 l 1
 281 577 l 1
 272 607 l 1
 473 607 l 1
 504 667 536 740 569 825 c 1
 671 788 l 1
 662 776 649 771 631 773 c 1
 594 714 551 658 503 607 c 1
 584 607 l 1
EndSplineSet
EndChar

StartChar: u18D8D
Encoding: 101773 101773 53
Width: 1000
GlyphClass: 1
Flags: W
HStem: -76 18<277.111 298.217> 133 30<427 597> 318 30<340 549> 462 30<319 613> 595 30<324 498.057 519 603>
VStem: 383 66<658.656 751.516> 613 68<434.958 462 492 590.226>
LayerCount: 2
Fore
SplineSet
597 163 m 1
 635 206 l 1
 728 143 l 1
 720 135 708 131 692 130 c 1
 631 49 530 -11 387 -52 c 0
 353 -62 317 -70 281 -76 c 1
 271 -58 l 1
 389 -26 483 21 553 81 c 0
 574 99 590 117 601 133 c 1
 391 133 l 1
 367 114 l 1
 313 176 l 1
 319 178 333 181 353 184 c 1
 549 318 l 1
 340 318 l 1
 332 348 l 1
 555 348 l 1
 593 390 l 1
 693 327 l 1
 685 319 673 315 657 314 c 1
 427 163 l 1
 597 163 l 1
333 802 m 1
 345 807 l 1
 406 781 441 749 449 711 c 0
 455 688 449 671 432 661 c 0
 416 651 399 655 383 673 c 1
 382 713 365 756 333 802 c 1
319 462 m 1
 310 492 l 1
 613 492 l 1
 613 595 l 1
 324 595 l 1
 315 625 l 1
 492 625 l 1
 518 688 542 751 563 813 c 1
 664 775 l 1
 654 763 640 758 623 761 c 1
 590 708 555 663 519 625 c 1
 603 625 l 1
 642 667 l 1
 722 603 l 1
 715 595 701 588 681 584 c 1
 681 451 l 2
 680 445 670 439 650 431 c 0
 640 428 631 426 624 426 c 2
 613 426 l 1
 613 462 l 1
 319 462 l 1
EndSplineSet
EndChar

StartChar: u18D8E
Encoding: 101774 101774 54
Width: 1000
GlyphClass: 1
Flags: W
HStem: 325 28<530 615> 451 30<363 465 530 705.784> 661 30<284 465 530 614>
VStem: 465 65<-67.3521 233 266.75 325 353 451 481 530 619 661 691 793.205> 625 65<-28.2327 318.293> 728 65<409.578 450.035>
LayerCount: 2
Fore
SplineSet
614 661 m 1
 530 661 l 1
 530 619 l 1
 614 661 l 1
465 530 m 1
 363 481 l 1
 465 481 l 1
 465 530 l 1
718 451 m 1
 530 451 l 1
 530 353 l 1
 615 353 l 1
 651 394 l 1
 733 332 l 1
 724 323 710 316 690 312 c 1
 690 -15 l 1
 676 -27 658 -34 635 -36 c 2
 625 -36 l 1
 625 325 l 1
 530 325 l 1
 530 -54 l 2
 529 -59 518 -65 497 -71 c 0
 488 -74 481 -75 475 -75 c 2
 465 -75 l 1
 465 233 l 1
 428 145 407 90 401 67 c 0
 393 41 392 17 398 -4 c 1
 391 -21 372 -39 341 -59 c 0
 325 -69 312 -74 303 -75 c 1
 310 -23 312 18 311 46 c 0
 307 90 299 134 285 180 c 1
 269 163 246 142 218 117 c 1
 207 129 l 1
 270 215 319 312 355 420 c 1
 445 369 l 1
 440 363 433 359 426 357 c 0
 417 355 409 355 400 357 c 1
 376 301 346 252 312 211 c 1
 341 161 358 126 362 104 c 1
 375 124 409 192 465 308 c 1
 465 451 l 1
 322 451 l 1
 297 430 l 1
 241 484 l 1
 256 492 274 498 295 502 c 1
 465 587 l 1
 465 661 l 1
 284 661 l 1
 275 691 l 1
 465 691 l 1
 465 824 l 1
 566 813 l 1
 562 798 550 789 530 785 c 1
 530 691 l 1
 615 691 l 1
 645 729 l 1
 737 654 l 1
 729 646 716 642 697 641 c 1
 530 561 l 1
 530 481 l 1
 705.783703519 481 l 1
 689.580481899 514.179539635 668.449095888 545.309388131 643 575 c 1
 654 585 l 1
 692 562 723 540 747 519 c 0
 778 489 794 464 793 443 c 0
 792 423 783 411 766 408 c 2
 759 408 l 2
 748 409 737 413 728 421 c 0
 726 427 725 431 724 433 c 2
 718 451 l 1
EndSplineSet
EndChar

StartChar: u18D8F
Encoding: 101775 101775 55
Width: 1000
GlyphClass: 1
Flags: W
HStem: -75 56<605.094 705.998> 99 30<210 327 392 531 596 685> 243 30<403 520> 415 14<199.5 221.481> 748 30<336 549>
VStem: 327 65<-67.3521 99 129 243> 531 65<-17.8989 99 129 238.762> 729 19<38.103 74>
LayerCount: 2
Fore
SplineSet
392 243 m 1
 392 129 l 1
 531 129 l 1
 531 243 l 1
 392 243 l 1
775 99 m 2
 596 99 l 1
 596 18 l 2
 596 -4 599 -16 605 -18 c 0
 607 -19 609 -19 611 -19 c 0
 655 -19 681 -18 687 -16 c 0
 695 -13 701 -7 706 3 c 0
 716 25 724 48 729 74 c 1
 748 74 l 1
 749 -5 l 1
 765 -12 774 -18 775 -25 c 0
 776 -27 776 -29 776 -31 c 0
 776 -53 751 -67 702 -72 c 0
 680 -74 651 -75 616 -75 c 0
 573 -75 547 -67 538 -50 c 0
 534 -40 531 -25 531 -5 c 2
 531 99 l 1
 392 99 l 1
 392 -54 l 2
 391 -59 380 -65 359 -71 c 0
 350 -74 343 -75 337 -75 c 2
 327 -75 l 1
 327 99 l 1
 210 99 l 1
 201 129 l 1
 327 129 l 1
 327 306 l 1
 349 296 l 1
 403 273 l 1
 520 273 l 1
 556 312 l 1
 637 251 l 1
 628 242 614 236 596 232 c 1
 596 129 l 1
 685 129 l 1
 725 182 l 1
 802 115 l 1
 798 105 789 99 775 99 c 2
647 511 m 1
 559 541 l 1
 501 503 440 473 376 453 c 1
 394 426 407 410 415 403 c 0
 427 395 440 392 452 396 c 0
 538 429 603 468 647 511 c 1
386 566 m 1
 306 620 l 1
 318 630 332 635 350 635 c 1
 549 748 l 1
 336 748 l 1
 327 778 l 1
 561 778 l 1
 604 810 l 1
 676 749 l 1
 667 737 654 732 637 733 c 1
 426 621 l 1
 521 589 l 1
 557 618 589 648 617 679 c 1
 712 634 l 1
 706 621 692 618 671 625 c 1
 646 604 620 584 593 564 c 1
 656 543 l 1
 700 572 l 1
 765 502 l 1
 756 496 741 493 721 494 c 1
 666 430 588 379 486 342 c 0
 447 326 407 321 366 325 c 1
 373 348 375 369 373 389 c 0
 368 409 362 429 355 447 c 1
 313 435 262 424 202 415 c 1
 197 429 l 1
 302 454 400 500 490 565 c 1
 409 592 l 1
 386 566 l 1
EndSplineSet
EndChar

StartChar: u18D90
Encoding: 101776 101776 56
Width: 1000
GlyphClass: 1
Flags: W
HStem: -12 11<762.314 777>
VStem: 686 68<442.917 500.844>
LayerCount: 2
Fore
SplineSet
297 431 m 1
 258 524 l 1
 267 525 275 529 283 535 c 0
 348 587 406 659 458 752 c 0
 469 770 478 789 486 806 c 1
 585 763 l 1
 580 754 573 749 563 749 c 0
 556 749 551 749 547 750 c 0
 522 711 491 672 453 634 c 1
 481 618 503 603 519 590 c 0
 538 571 547 553 546 534 c 0
 546 530 545 527 545 525 c 1
 658 529 l 1
 636 571 604 612 561 650 c 1
 571 661 l 1
 619 637 660 610 694 581 c 0
 736 542 756 508 754 477 c 0
 753 455 743 443 724 441 c 2
 718 441 l 2
 707 442 696 446 686 455 c 1
 681 473 676 489 670 502 c 1
 321 455 l 1
 313 443 305 435 297 431 c 1
301 195 m 1
 291 212 l 1
 388 276 450 365 503 472 c 1
 593 423 l 1
 588 414 580 410 570 411 c 0
 565 410 560 411 554 413 c 1
 508 345 455 291 394 249 c 1
 421 212 453 178 490 147 c 1
 539 202 583 264 622 332 c 1
 715 288 l 1
 710 279 702 274 692 274 c 0
 688 274 683 275 676 276 c 1
 635 215 589 160 537 112 c 1
 606 64 686 27 779 -1 c 1
 777 -12 l 1
 747 -17 726 -35 711 -65 c 0
 709 -69 707 -74 706 -78 c 1
 622 -41 549 8 489 70 c 1
 415 10 328 -40 229 -78 c 1
 220 -63 l 1
 307 -19 385 39 454 109 c 1
 421 148 394 190 371 234 c 1
 363 229 341 217 301 195 c 1
476 523 m 1
 469 560 456 591 437 617 c 1
 394 578 351 545 308 518 c 1
 476 523 l 1
EndSplineSet
EndChar

StartChar: u18D91
Encoding: 101777 101777 57
Width: 1000
GlyphClass: 1
Flags: W
HStem: -75 57<636.094 684.051> 416 30<328 400> 580 30<234 649> 729 30<272 588>
VStem: 258 63<-67.2537 416> 410 63<-71.9568 413.218> 558 67<-16.9004 208.258 232 468.807> 720 17<128.613 175>
LayerCount: 2
Fore
SplineSet
328 446 m 1
 400 446 l 1
 434 483 l 1
 510 424 l 1
 500 415 488 409 473 405 c 1
 473 -58 l 2
 472 -64 461 -69 440 -76 c 0
 432 -78 426 -79 420 -79 c 2
 410 -79 l 1
 410 416 l 1
 321 416 l 1
 321 -53 l 2
 320 -59 309 -64 289 -71 c 0
 281 -73 274 -74 268 -74 c 2
 258 -74 l 1
 258 478 l 1
 328 446 l 1
737 175 m 1
 738 -3 l 1
 759 -12 771 -21 772 -31 c 0
 772 -54 751 -68 710 -72 c 0
 694 -74 674 -75 649 -75 c 0
 603 -75 575 -65 566 -46 c 0
 561 -36 558 -22 558 -3 c 2
 558 501 l 1
 662 489 l 1
 658 474 646 465 625 461 c 1
 625 232 l 1
 655 267 679 302 696 339 c 1
 774 282 l 1
 769 274 761 269 751 269 c 0
 748 269 743 270 736 271 c 1
 709 245 672 221 625 197 c 1
 625 14 l 2
 625 -5 629 -15 636 -17 c 0
 638 -18 640 -18 642 -18 c 0
 652 -18 660 -17 666 -16 c 0
 674 -12 680 -5 685 6 c 0
 691 22 703 78 720 175 c 1
 737 175 l 1
739 580 m 2
 234 580 l 1
 226 610 l 1
 649 610 l 1
 689 663 l 1
 767 596 l 1
 762 586 753 580 739 580 c 2
679 729 m 2
 272 729 l 1
 263 759 l 1
 588 759 l 1
 628 812 l 1
 706 745 l 1
 702 735 693 729 679 729 c 2
EndSplineSet
EndChar

StartChar: u18D92
Encoding: 101778 101778 58
Width: 1000
GlyphClass: 1
Flags: W
HStem: 579 30<375 471 477 607> 708 30<287 579>
VStem: 305 63<59.375 269.205 297 579> 617 63<111.043 330 359 576.218>
LayerCount: 2
Fore
SplineSet
305 53 m 1
 305 640 l 1
 318 635 l 1
 375 609 l 1
 607 609 l 1
 641 645 l 1
 717 587 l 1
 707 578 695 572 680 568 c 1
 680 125 l 2
 679 119 668 114 647 107 c 0
 639 105 633 104 627 104 c 2
 617 104 l 1
 617 330 l 1
 593 267 562 206 525 149 c 1
 569 88 625 32 693 -18 c 1
 691 -29 l 1
 669 -26 649 -38 629 -65 c 0
 625 -70 622 -75 620 -79 c 1
 563 -27 518 30 484 93 c 1
 437 31 377 -28 306 -83 c 1
 292 -71 l 1
 355 -7 410 67 456 153 c 1
 437 199 423 247 414 297 c 1
 398 278 383 261 368 246 c 1
 368 74 l 2
 367 68 356 62 336 56 c 0
 328 54 321 53 315 53 c 2
 305 53 l 1
579 738 m 1
 629 803 l 1
 722 724 l 1
 718 714 709 708 695 708 c 2
 287 708 l 1
 278 738 l 1
 579 738 l 1
368 579 m 1
 368 297 l 1
 415 381 449 475 471 579 c 1
 368 579 l 1
546 381 m 1
 617 359 l 1
 617 579 l 1
 477 579 l 1
 578 548 l 1
 573 539 565 534 555 532 c 0
 552 531 547 530 542 530 c 1
 510 447 475 380 437 328 c 1
 451 283 467 245 485 212 c 1
 510 270 531 327 546 381 c 1
EndSplineSet
EndChar

StartChar: u18D93
Encoding: 101779 101779 59
Width: 1000
GlyphClass: 1
Flags: W
HStem: -75 58<633.876 682.364> 271 30<342 398> 431 30<269 429> 572 30<274 419> 711 30<236 649>
VStem: 266 65<-65.3521 271> 409 65<-70.3521 266.762> 429 68<403.958 431 461 567.226> 565 67<-16.4971 616.807> 717 17<129.471 179>
LayerCount: 2
Fore
SplineSet
342 301 m 1xfec0
 398 301 l 1
 434 340 l 1
 515 279 l 1
 506 270 492 264 474 260 c 1
 474 -57 l 2
 473 -62 462 -68 441 -74 c 0
 432 -77 425 -78 419 -78 c 2
 409 -78 l 1
 409 271 l 1
 331 271 l 1
 331 -52 l 2
 330 -57 319 -63 298 -69 c 0
 289 -72 282 -73 276 -73 c 2
 266 -73 l 1
 266 334 l 1
 280 329 l 1
 342 301 l 1xfec0
265 602 m 1
 419 602 l 1
 458 644 l 1
 538 580 l 1
 531 572 517 565 497 561 c 1
 497 420 l 2
 496 414 486 408 466 400 c 0
 456 397 447 395 440 395 c 2
 429 395 l 1
 429 431 l 1
 269 431 l 1
 260 461 l 1
 429 461 l 1
 429 572 l 1xfdc0
 274 572 l 1
 265 602 l 1
734 179 m 1
 735 -3 l 1
 757 -12 769 -21 770 -31 c 0
 770 -56 744 -71 693 -74 c 0
 682 -75 670 -75 656 -75 c 0
 610 -75 582 -65 572 -45 c 0
 567 -35 565 -21 565 -3 c 2
 565 649 l 1
 669 637 l 1
 665 622 653 613 632 609 c 1
 632 14 l 2
 634 -5 640 -16 648 -17 c 0
 657 -17 663 -16 664 -16 c 0
 672 -12 678 -5 683 6 c 0
 691 26 702 84 717 179 c 1
 734 179 l 1
746 711 m 2
 236 711 l 1
 227 741 l 1
 649 741 l 1
 692 797 l 1
 773 727 l 1
 769 717 760 711 746 711 c 2
EndSplineSet
EndChar

StartChar: u18D94
Encoding: 101780 101780 60
Width: 1000
GlyphClass: 1
Flags: W
HStem: 720 30<337 631>
VStem: 235 65<7.64787 782.205> 490 65<-71.5627 85.0794> 588 65<-71.3521 664.205>
LayerCount: 2
Fore
SplineSet
367 346 m 1
 395 313 419 282 439 254 c 1
 457 307 470 361 480 415 c 1
 573 382 l 1
 566 372 559 367 551 365 c 0
 550 365 547 364 544 364 c 0
 541 364 538 363 537 363 c 0
 522 303 502 247 477 196 c 1
 539 94 565 16 555 -36 c 0
 549 -62 537 -75 519 -75 c 0
 518 -75 517 -75 517 -75 c 2
 509 -74 500 -69 490 -60 c 1
 491 2 477 69 450 142 c 1
 405 62 350 -10 283 -75 c 1
 269 -65 l 1
 333 14 384 104 423 207 c 1
 404 248 382 289 356 328 c 1
 344 309 334 295 328 287 c 1
 313 296 l 1
 369 397 408 529 432 692 c 1
 528 659 l 1
 523 647 514 640 503 637 c 0
 501 636 497 635 489 634 c 1
 463 529 423 433 367 346 c 1
598 -79 m 2
 588 -79 l 1
 588 695 l 1
 689 684 l 1
 685 669 673 660 653 656 c 1
 653 -58 l 2
 652 -63 641 -69 620 -75 c 0
 611 -78 604 -79 598 -79 c 2
738 720 m 2
 337 720 l 1
 328 750 l 1
 631 750 l 1
 677 811 l 1
 765 736 l 1
 761 726 752 720 738 720 c 2
300 774 m 1
 300 21 l 2
 299 16 288 10 267 4 c 0
 258 1 251 0 245 0 c 2
 235 0 l 1
 235 813 l 1
 336 802 l 1
 332 787 320 778 300 774 c 1
EndSplineSet
EndChar

StartChar: u18D95
Encoding: 101781 101781 61
Width: 1000
GlyphClass: 1
Flags: W
HStem: -75 56<599.922 666.709> 140 30<248 354 419 533 598 645> 307 30<288 354 419 533 598 618> 470 30<430 522> 616 30<298 461 526 616> 778 27<526 548.643>
VStem: 354 65<-67.3521 140 170 307 337 470> 461 65<646 778> 533 65<-17.8535 140 170 307 337 465.762> 712 18<62.5938 109>
LayerCount: 2
Fore
SplineSet
419 307 m 1
 419 170 l 1
 533 170 l 1
 533 307 l 1
 419 307 l 1
533 470 m 1
 419 470 l 1
 419 337 l 1
 533 337 l 1
 533 470 l 1
730 109 m 1
 731 -3 l 1
 748 -9 758 -16 759 -24 c 0
 760 -26 760 -28 760 -30 c 0
 759 -60 711 -75 617 -75 c 0
 574 -75 549 -67 540 -50 c 0
 535 -40 533 -26 533 -7 c 2
 533 140 l 1
 419 140 l 1
 419 -54 l 2
 418 -59 407 -65 386 -71 c 0
 377 -74 370 -75 364 -75 c 2
 354 -75 l 1
 354 140 l 1
 248 140 l 1
 239 170 l 1
 354 170 l 1
 354 307 l 1
 288 307 l 1
 279 337 l 1
 354 337 l 1
 354 533 l 1
 377 524 l 1
 430 500 l 1
 522 500 l 1
 558 539 l 1
 639 478 l 1
 630 469 616 463 598 459 c 1
 598 337 l 1
 618 337 l 1
 652 384 l 1
 722 323 l 1
 718 313 709 307 695 307 c 2
 598 307 l 1
 598 170 l 1
 645 170 l 1
 679 217 l 1
 749 156 l 1
 745 146 736 140 722 140 c 2
 598 140 l 1
 598 17 l 2
 598 -4 601 -15 606 -18 c 0
 608 -18 610 -19 612 -19 c 0
 642 -19 661 -18 667 -16 c 0
 674 -13 680 -6 685 4 c 0
 696 29 705 64 712 109 c 1
 730 109 l 1
712 616 m 2
 298 616 l 1
 290 646 l 1
 461 646 l 1
 461 815 l 1
 561 805 l 1
 560 790 549 781 528 778 c 0
 527 778 527 778 526 778 c 1
 526 646 l 1
 616 646 l 1
 658 701 l 1
 738 632 l 1
 734 622 725 616 712 616 c 2
EndSplineSet
EndChar

StartChar: u18D96
Encoding: 101782 101782 62
Width: 1000
GlyphClass: 1
Flags: W
HStem: 273 24<507 666> 510 24<448 643> 641 30<393 502 567 654>
VStem: 317 63<230.127 641> 502 65<671 790.205> 666 75<218.172 271> 683 65<-72.8884 -32.3141>
LayerCount: 2
Fore
SplineSet
578 161 m 2xfa
 602 143 l 2
 605.390917923 140.197302533 608.707606763 137.452072743 611.95164071 134.76116225 c 1
 641.146938946 183.049351616 658.644988154 228.869928921 666 273 c 1
 493 273 l 1
 474 258 l 1
 426 308 l 1
 431 310 442 312 459 314 c 1
 643 510 l 1
 448 510 l 1
 442 534 l 1
 646 534 l 1
 673 566 l 1
 741 517 l 1
 735 511 725 507 712 506 c 1
 507 297 l 1
 666 297 l 1
 692 334 l 1
 770 281 l 1
 764 275 754 271 741 271 c 1xfc
 719.325187167 210.733447246 692.340348924 153.261644708 649.998785822 102.721468629 c 1
 712.425345958 48.9202429993 738.206079516 17.7857624594 748 -32 c 0
 749 -55 740 -69 723 -74 c 0
 720 -75 717 -75 714 -75 c 0
 703 -75 693 -72 683 -66 c 1
 658.073604031 -24.7156566768 638.001311312 0.792851084125 599.151227375 52.117657548 c 1
 569.79609908 27.752248223 534.938714336 5.82962684452 493 -13 c 1
 436 -45 405 -54 363 -71 c 1
 352 -54 l 1
 432.229805219 -15.9528758756 519.984856277 28.2512675717 574.524826493 84.8366469181 c 1
 570.218889634 90.5958605048 565.716697321 96.639605128 561 103 c 0
 538 136 510 168 450 213 c 1
 464 230 l 1
 523 198 553 179 578 161 c 2xfa
701 729 m 1
 743 695 772 671 787 657 c 1
 783 647 774 641 760 641 c 2
 380 641 l 1
 380 455 l 2
 380 308 365 191 334 104 c 0
 309 34 274 -26 228 -77 c 1
 212 -67 l 1
 275 38 309 179 315 355 c 0
 316 384 317 417 317 454 c 2
 317 706 l 1
 393 671 l 1
 502 671 l 1
 502 821 l 1
 603 810 l 1
 599 795 587 786 567 782 c 1
 567 671 l 1
 654 671 l 1
 701 729 l 1
EndSplineSet
EndChar

StartChar: u18D97
Encoding: 101783 101783 63
Width: 1000
GlyphClass: 1
Flags: W
HStem: 214 30<460 613> 358 30<346 660> 451 16<234.5 249.223> 495 30<432 650>
VStem: 384 65<-65.3521 214> 394 74<620.925 689.899> 624 65<-70.3521 209.762> 660 68<330.958 358 388 490.226>
LayerCount: 2
Fore
SplineSet
460 244 m 1xf8
 613 244 l 1
 649 283 l 1
 730 222 l 1
 721 213 707 207 689 203 c 1
 689 -57 l 2
 688 -62 677 -68 656 -74 c 0
 647 -77 640 -78 634 -78 c 2
 624 -78 l 1
 624 214 l 1
 449 214 l 1
 449 -52 l 2xfa
 448 -57 437 -63 416 -69 c 0
 407 -72 400 -73 394 -73 c 2xf4
 384 -73 l 1
 384 277 l 1
 460 244 l 1xf8
394 633 m 1xf4
 388 662 374 692 351 723 c 0
 336 745 316 766 292 786 c 1
 304 796 l 1
 349 779 384 760 411 739 c 0
 449 710 468 682 468 656 c 0
 469 637 461 624 443 619 c 0
 439 619 435 618 432 618 c 0
 419 618 407 623 394 633 c 1xf4
650 525 m 1
 689 567 l 1xf2
 769 503 l 1
 762 495 748 488 728 484 c 1
 728 347 l 2
 727 341 717 335 697 327 c 0
 687 324 678 322 671 322 c 2
 660 322 l 1
 660 358 l 1
 346 358 l 1
 337 388 l 1
 660 388 l 1
 660 495 l 1xf1
 367 495 l 1
 322 477 279 462 238 451 c 1
 230 467 l 1
 271 483 312 502 354 525 c 0
 490 601 592 695 658 807 c 1
 762 759 l 1
 756 750 748 745 738 745 c 2
 716 748 l 1
 641 657 547 583 432 525 c 1
 650 525 l 1
EndSplineSet
EndChar

StartChar: u18D98
Encoding: 101784 101784 64
Width: 1000
GlyphClass: 1
Flags: W
HStem: 209 30<396 540> 344 30<396 593> 485 30<261 625> 609 30<331 585> 723 30<336 575>
VStem: 331 65<-67.3521 209 239 344 374 427.205> 550 65<-65.2327 202.293> 585 68<581.958 609 639 718.226>
LayerCount: 2
Fore
SplineSet
396 374 m 1xfe
 593 374 l 1
 633 431 l 1
 659 411 689 387 722 359 c 1
 718 349 710 344 697 344 c 2
 396 344 l 1
 396 239 l 1
 540 239 l 1
 576 278 l 1
 658 216 l 1
 649 207 635 200 615 196 c 1
 615 -52 l 1
 601 -64 583 -71 560 -73 c 2
 550 -73 l 1
 550 209 l 1
 396 209 l 1
 396 -54 l 2
 395 -59 384 -65 363 -71 c 0
 354 -74 347 -75 341 -75 c 2
 331 -75 l 1
 331 458 l 1
 432 447 l 1
 428 432 416 423 396 419 c 1
 396 374 l 1xfe
625 515 m 1
 666 570 l 1
 747 501 l 1
 743 491 734 485 720 485 c 2
 261 485 l 1
 252 515 l 1
 625 515 l 1
331 609 m 1
 322 639 l 1
 585 639 l 1
 585 723 l 1
 336 723 l 1
 327 753 l 1
 575 753 l 1
 614 795 l 1
 694 731 l 1
 687 723 673 716 653 712 c 1
 653 598 l 2
 652 592 642 586 622 578 c 0
 612 575 604 573 596 573 c 2
 585 573 l 1
 585 609 l 1xfd
 331 609 l 1
EndSplineSet
EndChar

StartChar: u18D99
Encoding: 101785 101785 65
Width: 1000
GlyphClass: 1
Flags: W
HStem: 438 29<390 541> 569 30<274 574> 713 30<279 564>
VStem: 266 65<-5.35213 483.205> 574 68<541.958 569 599 708.226>
LayerCount: 2
Fore
SplineSet
266 -13 m 1
 266 514 l 1
 367 503 l 1
 363 488 351 479 331 475 c 1
 331 8 l 2
 330 3 319 -3 298 -9 c 0
 289 -12 282 -13 276 -13 c 2
 266 -13 l 1
274 569 m 1
 265 599 l 1
 574 599 l 1
 574 713 l 1
 279 713 l 1
 270 743 l 1
 564 743 l 1
 603 785 l 1
 683 721 l 1
 676 713 662 706 642 702 c 1
 642 558 l 2
 641 552 631 546 611 538 c 0
 601 535 593 533 585 533 c 2
 574 533 l 1
 574 569 l 1
 274 569 l 1
669 241 m 0
 633 186 596 138 556 97 c 1
 606 57 665 23 734 -4 c 1
 732 -15 l 1
 707 -17 687 -33 671 -63 c 0
 669 -68 667 -72 665 -77 c 1
 602 -42 550 1 509 51 c 1
 453 2 390 -41 318 -77 c 1
 307 -63 l 1
 367 -21 424 31 477 95 c 1
 450 136 429 178 415 222 c 1
 401 214 381 202 355 188 c 1
 346 200 l 1
 437 268 504 347 545 438 c 1
 390 438 l 1
 381 467 l 1
 541 467 l 1
 572 506 l 1
 659 444 l 1
 651 436 638 432 619 431 c 1
 578 353 518 288 439 237 c 1
 456 203 480 170 511 138 c 1
 549 190 583 245 612 303 c 1
 708 251 l 1
 702 243 693 239 682 239 c 0
 681 239 679 240 676 240 c 0
 672 240 670 241 669 241 c 0
EndSplineSet
EndChar

StartChar: u18D9A
Encoding: 101786 101786 66
Width: 1000
GlyphClass: 1
Flags: W
HStem: 50 30<268 454 519 635> 184 30<303 454 519 600> 265 15<254.2 264.852> 485 29<317 579> 610 30<295 619> 734 30<300 609>
VStem: 454 65<-67.3521 50 80 184 214 315.205> 619 68<593.958 610 640 729.226>
LayerCount: 2
Fore
SplineSet
635 80 m 1
 673 131 l 1
 748 66 l 1
 744 56 735 50 721 50 c 2
 519 50 l 1
 519 -54 l 2
 518 -59 507 -65 486 -71 c 0
 477 -74 470 -75 464 -75 c 2
 454 -75 l 1
 454 50 l 1
 268 50 l 1
 259 80 l 1
 454 80 l 1
 454 184 l 1
 303 184 l 1
 294 214 l 1
 454 214 l 1
 454 335 l 1
 402 312 336 289 257 265 c 1
 251 280 l 1
 400 339 509 408 579 485 c 1
 317 485 l 1
 308 514 l 1
 580 514 l 1
 611 553 l 1
 698 491 l 1
 690 483 677 479 658 478 c 1
 616 427 554 383 474 344 c 1
 555 335 l 1
 551 320 539 311 519 307 c 1
 519 214 l 1
 600 214 l 1
 638 265 l 1
 713 200 l 1
 709 190 700 184 686 184 c 2
 519 184 l 1
 519 80 l 1
 635 80 l 1
295 610 m 1
 286 640 l 1
 619 640 l 1
 619 734 l 1
 300 734 l 1
 291 764 l 1
 609 764 l 1
 648 806 l 1
 728 742 l 1
 721 734 707 727 687 723 c 1
 687 610 l 2
 686 604 676 598 656 590 c 0
 646 587 638 585 630 585 c 2
 619 585 l 1
 619 610 l 1
 295 610 l 1
EndSplineSet
EndChar

StartChar: u18D9B
Encoding: 101787 101787 67
Width: 1000
GlyphClass: 1
Flags: W
HStem: 127 30<418 608> 295 30<333 559> 408 30<278 351 416 541 606 643> 523 30<265 351 416 541 606 646> 749 30<325 512>
VStem: 351 65<438 523 553 635> 541 65<438 523 553 631.205>
LayerCount: 2
Fore
SplineSet
265 523 m 1
 255 553 l 1
 351 553 l 1
 351 666 l 1
 418 659 l 1
 453 688 484 718 512 749 c 1
 325 749 l 1
 316 779 l 1
 521 779 l 1
 554 818 l 1
 638 753 l 1
 629 743 615 736 595 733 c 1
 549 699 497 666 438 635 c 0
 437 634 435 633 433 632 c 0
 429 630 423 627 416 623 c 1
 416 553 l 1
 541 553 l 1
 541 662 l 1
 642 651 l 1
 638 636 626 627 606 623 c 1
 606 553 l 1
 646 553 l 1
 678 597 l 1
 745 539 l 1
 741 529 732 523 718 523 c 2
 606 523 l 1
 606 438 l 1
 643 438 l 1
 677 484 l 1
 745 424 l 1
 741 414 732 408 718 408 c 2
 278 408 l 1
 269 438 l 1
 351 438 l 1
 351 523 l 1
 265 523 l 1
541 523 m 1
 416 523 l 1
 416 438 l 1
 541 438 l 1
 541 523 l 1
418 157 m 1
 608 157 l 1
 646 200 l 1
 740 137 l 1
 732 129 720 125 704 124 c 1
 640 46 523 -16 351 -61 c 0
 326 -67 300 -74 273 -79 c 1
 264 -61 l 1
 389 -29 488 16 563 76 c 0
 584 94 601 111 613 127 c 1
 384 127 l 1
 360 108 l 1
 306 170 l 1
 312 172 326 175 346 178 c 1
 559 295 l 1
 333 295 l 1
 325 325 l 1
 564 325 l 1
 602 367 l 1
 703 304 l 1
 695 296 683 292 667 291 c 1
 418 157 l 1
EndSplineSet
EndChar

StartChar: u18D9C
Encoding: 101788 101788 68
Width: 1000
GlyphClass: 1
Flags: W
HStem: 448 30<373 518.676 573.743 649> 734 30<341 514>
VStem: 646 55<-63.9102 -22.1406>
LayerCount: 2
Fore
SplineSet
513 493 m 2
 503 523 l 2
 491.918005747 549.075280596 484.660562945 567.501458288 472.640133206 586.866071466 c 1
 373 478 l 1
 520.716911192 478 l 1
 519.445302258 478.929925872 518.204732842 479.929126362 517 481 c 0
 515 487 514 491 513 493 c 2
573.742908948 478 m 1
 649 478 l 1
 638 517 617 556 584 596 c 1
 595 604 l 1
 629 586 661 563 692 533 c 0
 717 504 729 478 727 454 c 0
 724 433 714 421 695 421 c 2
 688 421 l 2
 677 423 666 428 657 437 c 1
 655 448 l 1
 554.718309859 448 l 1
 614 379 l 1
 605 371 596 369 586 373 c 0
 582 375 578 377 574 379 c 1
 519 317 464 269 408 235 c 1
 442 220 477 202 514 181 c 1
 538 205 560 229 580 253 c 0
 601 277 619 300 635 321 c 1
 715 229 l 1
 706 221 697 219 687 223 c 0
 683 224 679 226 675 229 c 1
 642 193 611 162 583 136 c 1
 650 87 689 40 701 -6 c 0
 707 -31 702 -49 687 -60 c 0
 684 -62 681 -64 678 -64 c 0
 667 -65 656 -63 646 -58 c 1
 618 -7 580 44 532 95 c 1
 474 34 393 -19 290 -64 c 1
 283 -43 l 1
 364 13 429 76 478 146 c 1
 451 170 420 195 384 220 c 1
 357 205 325 191 288 178 c 1
 280 196 l 1
 363.512304776 249.686481642 443.070921883 334.014042723 518.675851321 448 c 1
 353 448 l 1
 328 427 l 1
 272 481 l 1
 287 489 305 495 326 499 c 1
 519 734 l 1
 341 734 l 1
 332 764 l 1
 514 764 l 1
 542 800 l 1
 629 727 l 1
 621 719 608 715 589 714 c 1
 493.36828086 609.51349205 l 1
 509.338598415 599.899081652 520.884254096 592.226277666 536 579 c 0
 567 549 583 524 582 503 c 0
 581.467311112 492.346222243 578.664562614 483.962504096 573.742908948 478 c 1
EndSplineSet
EndChar

StartChar: u18D9D
Encoding: 101789 101789 69
Width: 1000
GlyphClass: 1
Flags: W
HStem: -75 56<585.547 636.049> 115 30<257 344 409 516 581 632> 269 30<420 505> 593 30<285 610> 737 30<317 571>
VStem: 344 65<-67.3521 115 145 269> 347 81<405.131 490.625> 516 65<-17.8997 115 145 264.762> 671 18<53.2975 95>
LayerCount: 2
Fore
SplineSet
409 269 m 1xfd80
 409 145 l 1
 516 145 l 1
 516 269 l 1
 409 269 l 1xfd80
296 549 m 1
 308 559 l 1
 342 543 371 525 395 503 c 0
 418 481 429 459 428 437 c 0
 427 417 417 405 398 401 c 0
 394 400 390 400 386 400 c 0
 371 402 358 409 347 421 c 1xfb80
 345 447 340 470 331 491 c 0
 323 510 311 529 296 549 c 1
632 145 m 1
 673 199 l 1
 752 131 l 1
 748 121 739 115 725 115 c 2
 581 115 l 1
 581 15 l 2
 581 -5 583 -16 588 -18 c 0
 589 -19 591 -19 592 -19 c 0
 613 -19 625 -18 628 -17 c 0
 635 -13 641 -7 646 3 c 0
 655 26 664 56 671 95 c 1
 689 95 l 1
 690 -4 l 1
 706 -10 715 -17 717 -23 c 0
 718 -25 718 -28 718 -30 c 0
 717 -60 677 -75 598 -75 c 0
 556 -75 531 -67 523 -50 c 0
 518 -41 516 -27 516 -9 c 2
 516 115 l 1
 409 115 l 1
 409 -54 l 2
 408 -59 397 -65 376 -71 c 0
 367 -74 360 -75 354 -75 c 2
 344 -75 l 1
 344 115 l 1
 257 115 l 1
 248 145 l 1
 344 145 l 1
 344 282 l 1xfd80
 318 271 291 260 262 251 c 1
 254 268 l 1
 386 332 489 419 564 531 c 0
 572 543 579 555 586 567 c 1
 681 510 l 1
 675 502 667 497 658 497 c 0
 654 497 649 498 643 500 c 1
 578 422 496 358 399 308 c 1
 420 299 l 1
 505 299 l 1
 541 338 l 1
 622 277 l 1
 613 268 599 262 581 258 c 1
 581 145 l 1
 632 145 l 1
707 593 m 2
 285 593 l 1
 276 623 l 1
 610 623 l 1
 653 679 l 1
 734 609 l 1
 730 599 721 593 707 593 c 2
668 737 m 2
 317 737 l 1
 308 767 l 1
 571 767 l 1
 613 823 l 1
 695 753 l 1
 691 743 682 737 668 737 c 2
EndSplineSet
EndChar

StartChar: u18D9E
Encoding: 101790 101790 70
Width: 1000
GlyphClass: 1
Flags: W
HStem: -74 18<239.278 252.064> 326 30<338 628> 452 30<343 618> 581 30<303 622> 710 30<347 569>
VStem: 628 68<298.958 326 356 447.226>
LayerCount: 2
Fore
SplineSet
729 166 m 1
 721 158 713 155 704 157 c 0
 699 157 693 159 687 163 c 1
 650 130 612 101 572 75 c 1
 652 45 698 19 713 -5 c 1
 729 -19 728 -36 712 -57 c 0
 708 -61 705 -64 702 -66 c 0
 692 -71 679 -74 662 -74 c 1
 641 -45 588 -9 504 34 c 1
 406 -20 351 -43 242 -74 c 1
 235 -56 l 1
 318 -21 355 6 445 63 c 1
 393 88 337 110 278 130 c 1
 352 172 422 228 487 297 c 1
 579 239 l 1
 574 231 566 227 555 228 c 0
 551 228 546 229 540 231 c 1
 495 202 433 173 356 145 c 1
 413 128 460 113 499 100 c 1
 549 136 598 178 647 226 c 1
 729 166 l 1
334 482 m 1
 618 482 l 1
 657 524 l 1
 737 460 l 1
 730 452 716 445 696 441 c 1
 696 315 l 2
 695 309 685 303 665 295 c 0
 655 292 646 290 639 290 c 2
 628 290 l 1
 628 326 l 1
 338 326 l 1
 329 356 l 1
 628 356 l 1
 628 452 l 1
 343 452 l 1
 334 482 l 1
622 611 m 1
 672 676 l 1
 765 597 l 1
 761 587 752 581 738 581 c 2
 303 581 l 1
 294 611 l 1
 622 611 l 1
685 710 m 2
 347 710 l 1
 338 740 l 1
 569 740 l 1
 619 805 l 1
 712 726 l 1
 708 716 699 710 685 710 c 2
EndSplineSet
EndChar

StartChar: u18D9F
Encoding: 101791 101791 71
Width: 1000
GlyphClass: 1
Flags: W
HStem: 214 29<423 442.244> 281 16<265.938 282.722> 481 29<313 604> 664 30<227 316 381 445 510 575 640 672>
VStem: 316 65<557.648 664 694 782.205> 358 65<41.4783 214> 445 65<551.648 664 694 791.205> 575 65<-66.7941 304.445 570.648 664 694 782.205>
LayerCount: 2
Fore
SplineSet
358 181 m 2xf7
 358 254 l 1
 457 243 l 1
 454 227 443 218 425 214 c 0
 424 214 423 214 423 214 c 1
 423 164 l 2
 423 87 401 18 357 -44 c 0
 348 -55 340 -66 331 -75 c 1
 317 -66 l 1
 344 -15 357 62 358 163 c 0
 358 169 358 175 358 181 c 2xf7
583 -75 m 2
 573 -75 l 1
 573 334 l 1
 674 323 l 1
 670 308 658 299 638 295 c 1
 638 -54 l 2
 637 -59 626 -65 605 -71 c 0
 596 -74 589 -75 583 -75 c 2
304 510 m 1
 607 510 l 1
 638 550 l 1
 727 487 l 1
 719 479 706 475 687 474 c 1
 607 385 467 320 269 281 c 1
 262 297 l 1
 411 340 525 401 604 481 c 1
 313 481 l 1
 304 510 l 1
672 694 m 1
 708 743 l 1
 781 680 l 1
 777 670 768 664 754 664 c 2
 640 664 l 1
 640 584 l 2
 639 579 628 573 607 567 c 0
 598 564 591 563 585 563 c 2
 575 563 l 1
 575 664 l 1
 510 664 l 1
 510 565 l 2
 509 560 498 554 477 548 c 0
 468 545 461 544 455 544 c 2
 445 544 l 1
 445 664 l 1
 381 664 l 1
 381 571 l 2
 380 566 369 560 348 554 c 0
 339 551 332 550 326 550 c 2
 316 550 l 1
 316 664 l 1
 227 664 l 1
 218 694 l 1
 316 694 l 1
 316 813 l 1
 417 802 l 1
 413 787 401 778 381 774 c 1
 381 694 l 1xfb
 445 694 l 1
 445 822 l 1
 546 811 l 1
 542 796 530 787 510 783 c 1
 510 694 l 1
 575 694 l 1
 575 813 l 1
 676 802 l 1
 672 787 660 778 640 774 c 1
 640 694 l 1
 672 694 l 1
EndSplineSet
EndChar

StartChar: u18DA0
Encoding: 101792 101792 72
Width: 1000
GlyphClass: 1
Flags: W
HStem: -75 56<598.094 652.757> 110 30<247 334 399 527 592 652> 254 30<265 334 399 527 592 628> 394 30<410 516> 404 15<265.733 274.202> 734 30<302 588>
VStem: 334 65<-67.3521 110 140 254 284 394> 361 72<542.918 621.647> 527 65<-17.8997 110 140 254 284 389.762> 694 18<43.7439 80>
LayerCount: 2
Fore
SplineSet
399 254 m 1xe6c0
 399 140 l 1
 527 140 l 1
 527 254 l 1
 399 254 l 1xe6c0
527 394 m 1xf6c0
 399 394 l 1
 399 284 l 1
 527 284 l 1
 527 394 l 1xf6c0
397 540 m 0
 384 541 372 546 361 557 c 1
 357 582 348 606 335 630 c 0
 325 649 310 669 292 688 c 1
 303 698 l 1
 341 681 371 663 394 644 c 0
 421 621 434 599 433 577 c 0xe5c0
 433 557 424 545 406 541 c 0
 403 540 400 540 397 540 c 0
734 110 m 2
 592 110 l 1
 592 16 l 2
 592 -5 594 -16 598 -18 c 0
 600 -19 602 -19 604 -19 c 0
 631 -19 648 -18 653 -17 c 0
 661 -13 667 -6 671 3 c 0
 680 25 688 51 694 80 c 1
 712 80 l 1
 713 -5 l 1
 730 -14 740 -22 741 -31 c 0
 741 -59 704 -73 629 -75 c 0
 623 -75 616 -75 610 -75 c 0
 568 -75 543 -67 534 -50 c 0
 529 -41 527 -27 527 -8 c 2
 527 110 l 1
 399 110 l 1
 399 -54 l 2
 398 -59 387 -65 366 -71 c 0
 357 -74 350 -75 344 -75 c 2
 334 -75 l 1
 334 110 l 1
 247 110 l 1
 238 140 l 1
 334 140 l 1
 334 254 l 1
 265 254 l 1
 256 284 l 1
 334 284 l 1
 334 426 l 1
 319 420 298 413 269 404 c 1
 262 419 l 1xeec0
 393 477 497 558 573 662 c 0
 585 678 595 693 605 709 c 1
 694 657 l 1
 688 649 680 644 671 644 c 0
 667 644 662 645 656 647 c 1
 580 559 485 491 371 441 c 1
 410 424 l 1
 516 424 l 1xf6c0
 552 463 l 1
 633 402 l 1
 624 393 610 387 592 383 c 1
 592 284 l 1
 628 284 l 1
 664 333 l 1
 737 270 l 1
 733 260 724 254 710 254 c 2
 592 254 l 1
 592 140 l 1
 652 140 l 1
 688 189 l 1
 761 126 l 1
 757 116 748 110 734 110 c 2
690 734 m 2
 302 734 l 1
 293 764 l 1
 588 764 l 1
 632 823 l 1
 717 750 l 1
 713 740 704 734 690 734 c 2
EndSplineSet
EndChar

StartChar: u18DA1
Encoding: 101793 101793 73
Width: 1000
GlyphClass: 1
Flags: W
HStem: -75 56<568.094 642.706> 125 30<367 494> 284 30<367 494> 445 30<378 483> 601 30<233 417 482 584> 775 27<482 504.643>
VStem: 302 65<-67.3521 125 155 284 314 445> 417 65<631 775> 494 65<-17.8989 125 155 277.478 314 440.762> 685 19<39.4241 78>
LayerCount: 2
Fore
SplineSet
367 284 m 1
 367 155 l 1
 494 155 l 1
 494 284 l 1
 367 284 l 1
494 314 m 1
 494 445 l 1
 367 445 l 1
 367 314 l 1
 494 314 l 1
709 483 m 1
 683 420 653 366 620 322 c 1
 660 254 712 197 775 152 c 1
 771 142 l 1
 742 144 719 131 700 101 c 1
 653 156 619 221 598 296 c 1
 589 286 576 272 559 255 c 1
 559 18 l 2
 559 -4 562 -16 568 -18 c 0
 570 -19 572 -19 574 -19 c 0
 614 -19 637 -18 643 -17 c 0
 651 -13 657 -6 662 3 c 0
 672 25 680 50 685 78 c 1
 704 78 l 1
 705 -5 l 1
 722 -14 731 -22 732 -31 c 0
 732 -55 704 -69 647 -73 c 0
 628 -74 605 -75 579 -75 c 0
 536 -75 510 -66 501 -49 c 0
 496 -39 494 -25 494 -6 c 2
 494 125 l 1
 367 125 l 1
 367 -54 l 2
 366 -59 355 -65 334 -71 c 0
 325 -74 318 -75 312 -75 c 2
 302 -75 l 1
 302 508 l 1
 324 499 l 1
 378 475 l 1
 483 475 l 1
 519 514 l 1
 600 453 l 1
 591 444 577 438 559 434 c 1
 559 287 l 1
 598 356 628 441 648 540 c 1
 748 499 l 1
 741 489 732 484 722 483 c 2
 709 483 l 1
689 601 m 2
 233 601 l 1
 225 631 l 1
 417 631 l 1
 417 812 l 1
 517 802 l 1
 516 787 505 778 484 775 c 0
 483 775 482 775 482 775 c 1
 482 631 l 1
 584 631 l 1
 629 691 l 1
 715 617 l 1
 711 607 702 601 689 601 c 2
EndSplineSet
EndChar

StartChar: u18DA2
Encoding: 101794 101794 74
Width: 1000
GlyphClass: 1
Flags: W
HStem: 122 30<239 373 438 498> 291 30<278 373 438 482> 459 30<273 373 438 487> 613 30<261 459 524 649> 764 27<524 546.643>
VStem: 373 65<-67.3521 122 152 291 321 459> 459 65<643 764> 622 65<-67.3521 513.205>
LayerCount: 2
Fore
SplineSet
438 152 m 1
 498 152 l 1
 538 206 l 1
 617 138 l 1
 613 128 604 122 590 122 c 2
 438 122 l 1
 438 -54 l 2
 437 -59 426 -65 405 -71 c 0
 396 -74 389 -75 383 -75 c 2
 373 -75 l 1
 373 122 l 1
 239 122 l 1
 230 152 l 1
 373 152 l 1
 373 291 l 1
 278 291 l 1
 269 321 l 1
 373 321 l 1
 373 459 l 1
 273 459 l 1
 264 489 l 1
 487 489 l 1
 527 543 l 1
 606 475 l 1
 602 465 593 459 579 459 c 2
 438 459 l 1
 438 321 l 1
 482 321 l 1
 522 375 l 1
 601 307 l 1
 597 297 588 291 574 291 c 2
 438 291 l 1
 438 152 l 1
632 -75 m 2
 622 -75 l 1
 622 544 l 1
 723 533 l 1
 719 518 707 509 687 505 c 1
 687 -54 l 2
 686 -59 675 -65 654 -71 c 0
 645 -74 638 -75 632 -75 c 2
649 643 m 1
 690 697 l 1
 769 629 l 1
 765 619 756 613 743 613 c 2
 261 613 l 1
 253 643 l 1
 459 643 l 1
 459 801 l 1
 559 791 l 1
 558 776 547 767 526 764 c 0
 525 764 525 764 524 764 c 1
 524 643 l 1
 649 643 l 1
EndSplineSet
EndChar

StartChar: u18DA3
Encoding: 101795 101795 75
Width: 1000
GlyphClass: 1
Flags: W
HStem: -76 15<230.267 242.758> 418 16<298.5 307.664> 621 30<300 477 542 633> 781 27<542 564.643>
VStem: 477 65<651 781>
LayerCount: 2
Fore
SplineSet
660 187 m 1
 631 152 599 118 562 87 c 1
 625 51 696 23 773 5 c 1
 772 -6 l 1
 745 -12 725 -30 712 -60 c 0
 709 -65 707 -71 706 -76 c 1
 631 -48 565 -7 508 46 c 1
 427 -10 336 -51 234 -76 c 1
 226 -61 l 1
 316 -27 396 22 468 86 c 1
 432 126 400 170 374 218 c 1
 392 235 l 1
 424 192 462 155 507 123 c 1
 546 162 581 204 614 251 c 1
 700 193 l 1
 693 185 684 181 675 183 c 0
 670 183 665 185 660 187 c 1
507 621 m 1
 300 621 l 1
 292 651 l 1
 477 651 l 1
 477 818 l 1
 577 808 l 1
 576 793 565 784 544 781 c 0
 543 781 543 781 542 781 c 1
 542 651 l 1
 633 651 l 1
 680 713 l 1
 681 712 685 709 691 704 c 0
 726 674 753 651 769 637 c 1
 765 627 756 621 743 621 c 2
 536 621 l 1
 600 571 l 1
 592 564 583 561 574 562 c 0
 571 563 566 565 559 568 c 1
 514 526 467 491 417 464 c 1
 450 439 485 417 521 400 c 1
 567 442 611 488 652 538 c 1
 735 476 l 1
 729 468 721 465 711 467 c 0
 707 467 702 469 695 472 c 1
 656 433 618 400 582 374 c 1
 638 353 699 338 765 329 c 1
 765 318 l 1
 738 308 720 286 711 253 c 0
 710 248 709 244 708 240 c 1
 641 260 578 291 520 331 c 1
 451 289 379 258 306 238 c 1
 298 254 l 1
 359 280 419 317 478 363 c 1
 446 390 417 420 390 451 c 1
 362 438 333 427 302 418 c 1
 294 434 l 1
 367 473 438 535 507 621 c 1
EndSplineSet
EndChar

StartChar: u18DA4
Encoding: 101796 101796 76
Width: 1000
GlyphClass: 1
Flags: W
HStem: -78 18<265.5 294.241> 100 30<403 597> 232 30<336 542> 268 20<215.8 242.408> 599 30<229 505.76 533 662>
LayerCount: 2
Fore
SplineSet
403 130 m 1
 597 130 l 1
 636 173 l 1
 729 110 l 1
 721 102 709 98 693 97 c 1
 628 24 515 -29 354 -63 c 0
 326 -69 298 -74 269 -78 c 1
 260 -60 l 1
 384 -32 484 10 558 65 c 0
 574 77 588 89 598 100 c 1
 366 100 l 1
 342 81 l 1
 288 143 l 1
 294 145 307 148 328 151 c 1
 542 232 l 1
 336 232 l 1
 328 262 l 1
 549 262 l 1
 587 304 l 1
 694 241 l 1
 686 233 674 229 658 228 c 1
 403 130 l 1
332 802 m 1
 344 808 l 1
 408 784 446 752 458 714 c 0
 464 690 460 672 444 661 c 0
 429 650 412 653 395 670 c 1
 390 713 369 757 332 802 c 1
229 599 m 1
 220 629 l 1
 499 629 l 1
 528 690 555 752 579 815 c 1
 681 780 l 1
 672 767 658 762 641 764 c 1
 609 716 573 671 533 629 c 1
 662 629 l 1
 701 681 l 1
 777 615 l 1
 773 605 764 599 750 599 c 2
 229 599 l 1
208 288 m 1
 288 308 359 335 434 373 c 1
 392 395 355 419 323 447 c 1
 400 487 459 533 502 585 c 1
 587 528 l 1
 582 520 574 516 564 516 c 0
 558 516 551 518 543 521 c 1
 486 485 432 458 380 441 c 1
 409 425 442 411 481 399 c 1
 537 432 593 469 647 511 c 1
 726 454 l 1
 718 448 710 444 703 444 c 0
 696 445 689 448 683 452 c 1
 644 426 603 401 559 377 c 1
 626 360 704 346 792 337 c 1
 789 326 l 1
 768 321 754 308 747 287 c 2
 744 278 l 1
 651 292 567 314 493 345 c 1
 407 307 316 281 220 268 c 1
 208 288 l 1
EndSplineSet
EndChar

StartChar: u18DA5
Encoding: 101797 101797 77
Width: 1000
GlyphClass: 1
Flags: W
HStem: 82 30<302 379 444 548> 215 30<302 379 444 548> 348 30<455 537> 485 30<312 583> 605 30<361 577> 729 30<366 567>
VStem: 379 65<-69.3521 82 112 215 245 348> 548 65<-70.3521 82 112 215 245 343.762> 577 68<584.958 605 635 724.226>
LayerCount: 2
Fore
SplineSet
361 605 m 1xfe80
 352 635 l 1
 577 635 l 1
 577 729 l 1
 366 729 l 1
 357 759 l 1
 567 759 l 1
 606 801 l 1
 686 737 l 1
 679 729 665 722 645 718 c 1
 645 601 l 2
 644 595 634 589 614 581 c 0
 604 578 596 576 588 576 c 2
 577 576 l 1
 577 605 l 1
 361 605 l 1xfe80
302 215 m 1
 293 245 l 1
 379 245 l 1
 379 411 l 1
 397 402 l 1
 455 378 l 1
 537 378 l 1
 573 417 l 1
 654 356 l 1
 645 347 631 341 613 337 c 1
 613 -57 l 2
 612 -62 601 -68 580 -74 c 0
 571 -77 564 -78 558 -78 c 2
 548 -78 l 1
 548 82 l 1xff
 444 82 l 1
 444 -56 l 2
 443 -61 432 -67 411 -73 c 0
 402 -76 395 -77 389 -77 c 2
 379 -77 l 1
 379 82 l 1
 302 82 l 1
 293 112 l 1
 379 112 l 1
 379 215 l 1
 302 215 l 1
583 515 m 1
 625 571 l 1
 707 501 l 1
 703 491 694 485 680 485 c 2
 312 485 l 1
 303 515 l 1
 583 515 l 1
548 348 m 1
 444 348 l 1
 444 245 l 1
 548 245 l 1
 548 348 l 1
444 215 m 1
 444 112 l 1
 548 112 l 1
 548 215 l 1
 444 215 l 1
EndSplineSet
EndChar

StartChar: u18DA6
Encoding: 101798 101798 78
Width: 1000
GlyphClass: 1
Flags: W
HStem: -75 56<590.287 643.805> 69 30<395 524> 207 30<253 330 395 524 589 645> 334 30<406 513> 472 30<256 625> 594 30<311 560> 730 30<316 550>
VStem: 330 65<-67.3521 69 99 207 237 334> 524 65<-17.8535 69 99 207 237 329.762> 560 68<566.958 594 624 725.226> 691 17<78.7031 125>
LayerCount: 2
Fore
SplineSet
311 594 m 1xff60
 302 624 l 1
 560 624 l 1
 560 730 l 1xff60
 316 730 l 1
 307 760 l 1
 550 760 l 1
 589 802 l 1xffa0
 669 738 l 1
 662 730 649 723 628 719 c 1
 628 583 l 2
 627 577 617 571 597 563 c 0
 587 560 579 558 571 558 c 2
 560 558 l 1
 560 594 l 1
 311 594 l 1xff60
247 502 m 1
 625 502 l 1
 661 551 l 1
 733 488 l 1
 729 478 720 472 706 472 c 2
 256 472 l 1
 247 502 l 1
253 207 m 1
 245 237 l 1
 330 237 l 1
 330 397 l 1
 354 387 l 1
 406 364 l 1
 513 364 l 1
 549 403 l 1
 630 342 l 1
 621 333 607 327 589 323 c 1
 589 237 l 1
 645 237 l 1
 682 286 l 1
 754 223 l 1
 750 213 741 207 727 207 c 2
 589 207 l 1
 589 16 l 2
 589 -4 591 -15 596 -18 c 0
 598 -18 600 -19 601 -19 c 0
 626 -19 640 -18 644 -16 c 0
 652 -13 658 -6 662 4 c 0
 672 28 682 68 691 125 c 1
 708 125 l 1
 709 -2 l 1
 728 -11 738 -21 739 -30 c 0
 738 -60 694 -75 607 -75 c 0
 565 -75 540 -67 531 -50 c 0
 527 -41 524 -27 524 -8 c 2
 524 69 l 1xffa0
 395 69 l 1
 395 -54 l 2
 394 -59 383 -65 362 -71 c 0
 353 -74 346 -75 340 -75 c 2
 330 -75 l 1
 330 207 l 1
 253 207 l 1
524 334 m 1
 395 334 l 1
 395 237 l 1
 524 237 l 1
 524 334 l 1
395 207 m 1
 395 99 l 1
 524 99 l 1
 524 207 l 1
 395 207 l 1
EndSplineSet
EndChar

StartChar: u18DA7
Encoding: 101799 101799 79
Width: 1000
GlyphClass: 1
Flags: W
HStem: -71 18<233.667 245.785> 465 30<331 664> 599 30<378 615> 734 30<381 609>
VStem: 615 66<571.639 599 629 733.89> 686 66<201.851 286.375>
LayerCount: 2
Fore
SplineSet
717 200 m 0
 705 201 694 207 686 216 c 1
 669 294 633 363 582 420 c 1
 593 435 l 1
 638 407 672 378 702 345 c 0
 736 303 752 267 752 236 c 0
 751 216 743 203 724 200 c 0
 722 200 719 200 717 200 c 0
634 215 m 0
 628 218 624 220 631 213 c 1
 608 178 577 141 543 105 c 1
 607 66 680 30 767 -4 c 1
 765 -11 l 1
 742 -20 727 -40 717 -81 c 1
 626 -40 552 8 493 60 c 1
 426 4 341 -41 236 -71 c 1
 230 -53 l 1
 308 -19 380 31 449 103 c 1
 410 143 378 184 352 225 c 1
 417 285 469 355 512 442 c 1
 587 382 l 1
 585 378 576 371 564 371 c 0
 560 371 557 372 557 372 c 1
 520 321 467 270 400 221 c 1
 426 193 457 166 486 144 c 1
 518 182 554 233 594 299 c 1
 665 220 l 1
 660 215 646 211 634 215 c 0
664 495 m 1
 700 559 l 1
 770 480 l 1
 768 473 759 466 744 465 c 2
 331 465 l 1
 324 495 l 1
 664 495 l 1
378 599 m 1
 371 629 l 1
 615 629 l 1
 615 734 l 1
 381 734 l 1
 375 764 l 1
 609 764 l 1
 643 813 l 1
 711 741 l 1
 707 736 695 728 681 724 c 1
 681 588 l 2
 681 584 672 577 656 570 c 0
 648 566 638 563 631 563 c 2
 615 563 l 1
 615 599 l 1
 378 599 l 1
EndSplineSet
EndChar

StartChar: u18DA8
Encoding: 101800 101800 80
Width: 1000
GlyphClass: 1
Flags: W
HStem: -75 58<630.14 686.528> 286 30<315 389> 439 30<315 413> 605 30<233 505.234 540 636> 755 30<278 556>
VStem: 250 65<-67.3521 286 316 439 469 533.205> 399 65<-65.2327 279.293> 553 67<-15.9004 234.09 257 525.807> 722 17<133.296 182>
LayerCount: 2
Fore
SplineSet
739 182 m 1
 740 -3 l 1
 762 -12 774 -21 775 -31 c 0
 775 -53 757 -66 720 -71 c 0
 701 -74 676 -75 644 -75 c 0
 598 -75 570 -65 560 -45 c 0
 555 -35 553 -21 553 -3 c 2
 553 558 l 1
 657 546 l 1
 653 531 641 522 620 518 c 1
 620 257 l 1
 653 294 679 333 699 376 c 1
 776 319 l 1
 771 311 763 306 753 306 c 0
 750 306 745 307 738 308 c 1
 709 277 670 249 620 223 c 1
 620 14 l 2
 620 -4 623 -14 630 -16 c 0
 633 -17 635 -17 638 -17 c 0
 654 -17 664 -17 668 -16 c 0
 676 -12 682 -5 687 6 c 0
 693 22 705 80 722 182 c 1
 739 182 l 1
315 469 m 1
 413 469 l 1
 448 518 l 1
 471 500 496 479 524 454 c 1
 520 444 512 439 499 439 c 2
 315 439 l 1
 315 316 l 1
 389 316 l 1
 425 355 l 1
 507 293 l 1
 498 284 484 277 464 273 c 1
 464 -52 l 1
 450 -64 432 -71 409 -73 c 2
 399 -73 l 1
 399 286 l 1
 315 286 l 1
 315 -54 l 2
 314 -59 303 -65 282 -71 c 0
 273 -74 266 -75 260 -75 c 2
 250 -75 l 1
 250 564 l 1
 351 553 l 1
 347 538 335 529 315 525 c 1
 315 469 l 1
677 688 m 1
 755 621 l 1
 751 611 742 605 728 605 c 2
 233 605 l 1
 224 635 l 1
 496 635 l 1
 521 673 543 713 562 755 c 1
 278 755 l 1
 269 785 l 1
 556 785 l 1
 589 824 l 1
 673 759 l 1
 664 749 650 742 630 739 c 1
 603 702 573 667 540 635 c 1
 636 635 l 1
 677 688 l 1
EndSplineSet
EndChar

StartChar: u18DA9
Encoding: 101801 101801 81
Width: 1000
GlyphClass: 1
Flags: W
HStem: 169 30<435 531> 226 16<250.5 263.869> 604 30<343 467 490 604> 734 30<348 594>
VStem: 359 65<-66.3521 169> 542 65<-71.3521 164.762> 604 68<576.958 604 634 729.226>
LayerCount: 2
Fore
SplineSet
435 199 m 1xfc
 531 199 l 1
 567 238 l 1
 648 177 l 1
 639 168 625 162 607 158 c 1
 607 -58 l 2
 606 -63 595 -69 574 -75 c 0
 565 -78 558 -79 552 -79 c 2
 542 -79 l 1
 542 169 l 1
 424 169 l 1
 424 -53 l 2
 423 -58 412 -64 391 -70 c 0
 382 -73 375 -74 369 -74 c 2
 359 -74 l 1
 359 232 l 1
 435 199 l 1xfc
649 474 m 1
 606 424 562 382 518 350 c 1
 584 321 663 293 754 268 c 1
 750 257 l 1
 724 252 705 235 694 206 c 1
 609 234 533 270 466 314 c 1
 401 275 331 245 254 226 c 1
 246 242 l 1
 310 267 369 301 424 344 c 1
 382 377 346 412 315 450 c 1
 377 495 428 546 467 604 c 1
 343 604 l 1
 334 634 l 1
 604 634 l 1
 604 734 l 1
 348 734 l 1
 339 764 l 1
 594 764 l 1
 633 806 l 1
 713 742 l 1
 706 734 692 727 672 723 c 1
 672 593 l 2
 671 587 661 581 641 573 c 0
 631 570 623 568 615 568 c 2
 604 568 l 1
 604 604 l 1xfa
 490 604 l 1
 558 560 l 1
 552 552 544 548 534 549 c 0
 532 549 530 549 526 550 c 0
 523 551 520 552 519 552 c 0
 476 507 423 470 362 440 c 1
 396 414 429 393 462 377 c 1
 512 421 559 474 603 536 c 1
 689 479 l 1
 682 471 673 467 664 469 c 0
 660 469 655 471 649 474 c 1
EndSplineSet
EndChar

StartChar: u18DAA
Encoding: 101802 101802 82
Width: 1000
GlyphClass: 1
Flags: W
HStem: -75 16<257.5 273.198> 125 15<305.2 316.801> 397 30<277 447 512 606> 505 30<329 447 512 571> 748 29<321 571>
VStem: 447 65<315.648 397 427 505 535 599.205>
LayerCount: 2
Fore
SplineSet
745 4 m 1
 746 -7 l 1
 720 -16 702 -36 695 -68 c 0
 694 -71 693 -75 693 -78 c 1
 626 -59 564 -28 507 14 c 1
 432 -28 350 -57 261 -75 c 1
 253 -59 l 1
 325 -35 395 1 464 50 c 1
 432 80 405 111 382 143 c 1
 359 136 334 130 308 125 c 1
 302 140 l 1
 381 174 459 233 536 317 c 1
 610 241 l 1
 601 235 592 234 583 237 c 2
 570 244 l 1
 514 202 460 171 407 151 c 1
 436 125 469 102 505 82 c 1
 555 123 601 169 643 221 c 1
 724 153 l 1
 716 146 707 144 698 146 c 0
 693 147 688 149 684 152 c 1
 647 114 608 81 566 52 c 1
 621 28 681 12 745 4 c 1
308 585 m 1
 301 599 l 1
 417 638 507 687 571 748 c 1
 321 748 l 1
 312 777 l 1
 571 777 l 1
 602 817 l 1
 692 754 l 1
 684 746 671 742 652 741 c 1
 607 694 545 657 464 628 c 1
 548 619 l 1
 544 604 532 595 512 591 c 1
 512 535 l 1
 571 535 l 1
 615 592 l 1
 699 521 l 1
 695 511 686 505 672 505 c 2
 512 505 l 1
 512 427 l 1
 606 427 l 1
 650 485 l 1
 733 413 l 1
 729 403 720 397 706 397 c 2
 512 397 l 1
 512 329 l 2
 511 324 500 318 479 312 c 0
 470 309 463 308 457 308 c 2
 447 308 l 1
 447 397 l 1
 277 397 l 1
 268 427 l 1
 447 427 l 1
 447 505 l 1
 329 505 l 1
 320 535 l 1
 447 535 l 1
 447 622 l 1
 405 609 358 596 308 585 c 1
EndSplineSet
EndChar

StartChar: u18DAB
Encoding: 101803 101803 83
Width: 1000
GlyphClass: 1
Flags: W
HStem: -75 56<591.023 676.659> 125 30<224 310 375 524 589 667> 272 30<386 401 466 513> 375 30<466 627> 476 30<466 601> 671 29<282 401 466 594>
VStem: 310 65<-67.3521 125 155 272> 401 65<302 375 405 476 533.766 539.017 576 671 700 793.205> 524 65<-17.8989 125 155 267.762> 723 18<57.2749 99>
LayerCount: 2
Fore
SplineSet
375 272 m 1
 375 155 l 1
 524 155 l 1
 524 272 l 1
 375 272 l 1
594 671 m 1
 466 671 l 1
 466 576 l 1
 515 604 558 636 594 671 c 1
757 125 m 2
 589 125 l 1
 589 18 l 2
 589 -4 593 -16 600 -18 c 0
 602 -18 603 -19 605 -19 c 0
 646 -19 670 -18 677 -16 c 0
 686 -13 692 -6 697 4 c 0
 708 29 716 61 723 99 c 1
 741 99 l 1
 742 -3 l 1
 759 -9 768 -16 769 -24 c 0
 770 -26 770 -28 770 -30 c 0
 770 -56 733 -71 659 -74 c 0
 644 -75 628 -75 610 -75 c 0
 567 -75 540 -66 531 -49 c 0
 526 -39 524 -24 524 -5 c 2
 524 125 l 1
 375 125 l 1
 375 -54 l 2
 374 -59 363 -65 342 -71 c 0
 333 -74 326 -75 320 -75 c 2
 310 -75 l 1
 310 125 l 1
 224 125 l 1
 215 155 l 1
 310 155 l 1
 310 335 l 1
 386 302 l 1
 401 302 l 1
 401 506 l 1
 351 489 295 475 234 462 c 1
 229 477 l 1
 290 496 347 518 401 543 c 1
 401 671 l 1
 282 671 l 1
 273 700 l 1
 401 700 l 1
 401 824 l 1
 502 813 l 1
 498 798 486 789 466 785 c 1
 466 700 l 1
 598 700 l 1
 629 739 l 1
 716 677 l 1
 708 669 695 665 676 664 c 1
 628 612 558 568 466 530 c 1
 466 506 l 1
 601 506 l 1
 643 562 l 1
 725 492 l 1
 721 482 712 476 698 476 c 2
 466 476 l 1
 466 405 l 1
 627 405 l 1
 669 461 l 1
 751 391 l 1
 747 381 738 375 724 375 c 2
 466 375 l 1
 466 302 l 1
 513 302 l 1
 549 341 l 1
 630 280 l 1
 621 271 607 265 589 261 c 1
 589 155 l 1
 667 155 l 1
 706 208 l 1
 784 141 l 1
 780 131 771 125 757 125 c 2
EndSplineSet
EndChar

StartChar: u18DAC
Encoding: 101804 101804 84
Width: 1000
GlyphClass: 1
Flags: W
HStem: 175 30<430 567> 294 30<297 614> 403 30<329 582>
VStem: 354 65<-61.3521 175> 578 65<-66.3521 170.762> 635 69<502.18 554.149>
LayerCount: 2
Fore
SplineSet
430 205 m 1xf8
 567 205 l 1
 603 244 l 1
 684 183 l 1
 675 174 661 168 643 164 c 1
 643 -53 l 2
 642 -58 631 -64 610 -70 c 0
 601 -73 594 -74 588 -74 c 2
 578 -74 l 1
 578 175 l 1
 419 175 l 1
 419 -48 l 2
 418 -53 407 -59 386 -65 c 0
 377 -68 370 -69 364 -69 c 2
 354 -69 l 1
 354 238 l 1
 430 205 l 1xf8
614 324 m 1
 653 375 l 1
 728 310 l 1
 724 300 715 294 701 294 c 2
 297 294 l 1
 288 324 l 1
 614 324 l 1
320 433 m 1
 582 433 l 1
 620 484 l 1
 696 419 l 1
 692 409 683 403 669 403 c 2
 329 403 l 1
 320 433 l 1
473 578 m 1
 466 613 456 642 443 663 c 1
 410 628 377 599 345 575 c 1
 473 578 l 1
314 495 m 1
 272 583 l 1
 284 583 294 586 304 592 c 0
 362 635 411 707 451 807 c 0
 452 809 452 811 453 812 c 2
 560 770 l 1
 556 762 547 757 535 757 c 0
 534 757 531 757 529 757 c 0
 524 758 521 758 518 758 c 0
 498 729 477 702 457 679 c 1
 475 668 493 655 510 641 c 0
 524 628 531 614 531 598 c 0
 531 590 529 583 527 579 c 1
 613 581 l 1
 595 617 568 653 532 689 c 1
 542 698 l 1
 586 676 623 652 654 626 c 0
 688 593 705 563 704 536 c 0
 702 514 692 502 673 500 c 0
 671 500 669 500 667 500 c 0
 657 501 646 505 635 514 c 1xf4
 632 529 628 543 623 555 c 1
 614 554 520 542 341 519 c 1
 332 506 323 498 314 495 c 1
EndSplineSet
EndChar

StartChar: u18DAD
Encoding: 101805 101805 85
Width: 1000
GlyphClass: 1
Flags: W
HStem: -75 56<617.094 670.573> 75 30<381 544> 214 30<381 544> 348 30<392 533>
VStem: 316 65<-67.3521 75 105 214 244 348> 544 65<-16.8989 75 105 214 244 343.762> 693 67<428.337 493.649> 727 15<148.304 192>
LayerCount: 2
Fore
SplineSet
381 214 m 1xfc
 381 105 l 1
 544 105 l 1
 544 214 l 1
 381 214 l 1xfc
544 244 m 1
 544 348 l 1
 381 348 l 1
 381 244 l 1
 544 244 l 1
742 192 m 1xfd
 743 3 l 1
 763 -7 774 -17 775 -29 c 0
 775 -57 735 -72 656 -75 c 0
 646 -75 637 -75 628 -75 c 0
 586 -74 560 -66 552 -50 c 0
 547 -41 544 -26 544 -6 c 2
 544 75 l 1
 381 75 l 1
 381 -54 l 2
 380 -59 369 -65 348 -71 c 0
 339 -74 332 -75 326 -75 c 2
 316 -75 l 1
 316 411 l 1
 342 400 l 1
 392 378 l 1
 533 378 l 1
 569 417 l 1
 650 356 l 1
 641 347 627 341 609 337 c 1
 609 17 l 2
 609 -3 612 -15 617 -17 c 0
 619 -18 621 -19 623 -19 c 0
 646 -20 662 -19 671 -15 c 0
 679 -11 685 -4 689 6 c 0
 699 31 712 93 727 192 c 1
 742 192 l 1xfd
475 539 m 1
 465 570 449 599 426 628 c 1
 389 590 354 558 322 533 c 1
 475 539 l 1
258 446 m 1
 224 542 l 1
 244 537 261 539 274 547 c 0
 320 579 382 660 458 791 c 0
 464 800 470 810 476 821 c 1
 572 769 l 1
 567 761 559 756 549 756 c 0
 546 756 541 757 534 758 c 1
 510 723 480 686 444 647 c 1
 493 615 525 586 539 558 c 0
 542 553 543 548 544 544 c 2
 544 541 l 1
 640 545 l 1
 611 587 575 625 533 660 c 1
 547 673 l 1
 634 627 697 580 734 532 c 0
 753 506 761 484 760 464 c 0
 760 443 751 431 734 427 c 0
 730 426 726 426 722 426 c 0
 711 428 701 432 693 439 c 1xfe
 687 462 675 489 658 518 c 1
 573 503 448 487 283 469 c 1
 276 457 267 449 258 446 c 1
EndSplineSet
EndChar

StartChar: u18DAE
Encoding: 101806 101806 86
Width: 1000
GlyphClass: 1
Flags: W
HStem: -75 56<583.57 638.882> 142 30<243 328 393 515 580 649> 312 30<404 504> 540 30<256 325 390 448 513 572 637 659> 730 30<274 597>
VStem: 328 65<-67.3521 142 172 312 433.763 540 570 660.313> 448 65<426.648 540 570 666.205> 515 65<-16.9004 142 172 307.762> 572 65<435.648 540 570 658.205> 673 18<55.0203 100>
LayerCount: 2
Fore
SplineSet
393 312 m 1xff40
 393 172 l 1
 515 172 l 1
 515 312 l 1
 393 312 l 1xff40
649 172 m 1
 688 225 l 1
 766 158 l 1
 762 148 753 142 739 142 c 2
 580 142 l 1
 580 15 l 2
 580 -5 582 -15 585 -17 c 0
 587 -18 589 -19 591 -19 c 0
 614 -19 627 -18 630 -17 c 0
 637 -13 643 -7 648 3 c 0
 657 25 666 58 673 100 c 1
 691 100 l 1
 692 -3 l 1
 709 -9 719 -16 720 -24 c 0
 721 -26 721 -28 721 -30 c 0
 720 -60 679 -75 597 -75 c 0
 555 -75 530 -67 522 -51 c 0
 517 -42 515 -28 515 -9 c 2
 515 142 l 1
 393 142 l 1
 393 -54 l 2
 392 -59 381 -65 360 -71 c 0
 351 -74 344 -75 338 -75 c 2
 328 -75 l 1
 328 142 l 1
 243 142 l 1
 234 172 l 1
 328 172 l 1
 328 375 l 1
 351 366 l 1
 404 342 l 1
 504 342 l 1
 540 381 l 1
 621 320 l 1
 612 311 598 305 580 301 c 1
 580 172 l 1
 649 172 l 1
325 425 m 1
 325 540 l 1
 256 540 l 1
 247 570 l 1
 325 570 l 1
 325 689 l 1
 426 678 l 1
 422 663 410 654 390 650 c 1
 390 570 l 1
 448 570 l 1
 448 697 l 1
 549 686 l 1
 545 671 533 662 513 658 c 1
 513 570 l 1
 572 570 l 1
 572 689 l 1
 673 678 l 1
 669 663 657 654 637 650 c 1
 637 570 l 1
 659 570 l 1
 692 615 l 1
 761 556 l 1
 757 546 748 540 734 540 c 2
 637 540 l 1
 637 449 l 2
 636 444 625 438 604 432 c 0
 595 429 588 428 582 428 c 2
 572 428 l 1
 572 540 l 1xfec0
 513 540 l 1
 513 440 l 2
 512 435 501 429 480 423 c 0
 471 420 464 419 458 419 c 2
 448 419 l 1
 448 540 l 1
 390 540 l 1
 390 446 l 2
 389 441 378 435 357 429 c 0
 348 426 341 425 335 425 c 2
 325 425 l 1
713 730 m 2
 274 730 l 1
 265 760 l 1
 597 760 l 1
 647 825 l 1
 740 746 l 1
 736 736 727 730 713 730 c 2
EndSplineSet
EndChar

StartChar: u18DAF
Encoding: 101807 101807 87
Width: 1000
GlyphClass: 1
Flags: W
HStem: 434 30<343 424> 651 30<211 265 326 375 436 485 546 595 656 681> 763 26<326 347.195 656 677.195> 772 26<436 457.195 546 567.195>
VStem: 265 61<-65.8862 434 544.809 651 681 763> 375 61<538.809 651 681 772> 437 62<-68.6316 197 263 429.762> 485 61<532.809 651 681 772> 595 61<547.809 651 681 763>
LayerCount: 2
Fore
SplineSet
683 429 m 0xce80
 635 349 578 284 511 236 c 1
 574 133 670 47 798 -24 c 1
 792 -34 l 1
 758 -34 731 -47 711 -72 c 0
 708 -75 706 -78 705 -80 c 1
 613 -6 544 86 499 197 c 1
 499 -55 l 2
 498 -60 487 -66 467 -72 c 0
 459 -75 453 -76 447 -76 c 2
 437 -76 l 1
 437 434 l 1
 332 434 l 1
 332 -50 l 2
 331 -56 321 -61 301 -67 c 0
 293 -70 286 -71 280 -71 c 2
 270 -71 l 1
 270 497 l 1
 283 491 l 1
 343 464 l 1
 424 464 l 1
 460 503 l 1
 540 442 l 1
 531 433 517 427 499 423 c 1
 499 263 l 1
 548 327 587 403 615 491 c 1
 721 441 l 1
 715 433 706 428 696 428 c 0
 690 428 686 428 683 429 c 0xce80
275 538 m 2
 265 538 l 1
 265 651 l 1
 211 651 l 1
 202 681 l 1
 265 681 l 1
 265 800 l 1
 361 789 l 1
 358 775 347 767 328 763 c 0
 327 763 326 763 326 763 c 1xed80
 326 681 l 1
 375 681 l 1
 375 809 l 1
 471 798 l 1
 468 784 457 776 438 772 c 0
 437 772 436 772 436 772 c 1
 436 681 l 1
 485 681 l 1
 485 809 l 1
 581 798 l 1
 578 784 567 776 548 772 c 0
 547 772 547 772 546 772 c 1xdd80
 546 681 l 1
 595 681 l 1
 595 800 l 1
 691 789 l 1
 688 775 677 767 658 763 c 0
 657 763 656 763 656 763 c 1
 656 681 l 1
 681 681 l 1
 713 725 l 1
 781 667 l 1
 777 657 768 651 754 651 c 2
 656 651 l 1
 656 562 l 2
 655 557 645 551 626 545 c 0
 618 542 611 541 605 541 c 2
 595 541 l 1
 595 651 l 1
 546 651 l 1
 546 547 l 2
 545 542 535 536 516 530 c 0
 508 527 501 526 495 526 c 2
 485 526 l 1
 485 651 l 1xed80
 436 651 l 1
 436 553 l 2
 435 548 425 542 406 536 c 0
 398 533 391 532 385 532 c 2
 375 532 l 1
 375 651 l 1
 326 651 l 1
 326 559 l 2
 325 554 315 548 296 542 c 0
 288 539 281 538 275 538 c 2
EndSplineSet
EndChar

StartChar: u18DB0
Encoding: 101808 101808 88
Width: 1000
GlyphClass: 1
Flags: W
HStem: -12 11<744.661 762> 623 30<259 305 366 409 470 513 574 618 679 695> 781 26<470 491.195 574 595.195>
VStem: 305 61<418.089 623 653 772> 409 61<468.809 623 653 781> 513 61<462.809 623 653 781> 618 61<423.089 623 653 772>
LayerCount: 2
Fore
SplineSet
684 305 m 0
 639 232 584 166 520 108 c 1
 588 63 668 26 762 -1 c 1
 764 -12 l 1
 733 -17 709 -35 692 -66 c 0
 690 -70 688 -75 686 -79 c 1
 602 -41 530 7 470 66 c 1
 396 9 310 -39 213 -79 c 1
 204 -63 l 1
 290 -17 367 39 434 105 c 1
 404 140 377 179 352 224 c 1
 313 196 273 172 230 153 c 1
 220 168 l 1
 312 231 392 326 460 453 c 1
 554 395 l 1
 546 387 538 384 528 384 c 0
 523 383 518 384 512 386 c 1
 471 328 426 280 377 242 c 1
 405 206 436 173 472 144 c 1
 531 209 583 284 628 368 c 1
 723 314 l 1
 716 306 707 302 697 303 c 0
 696 303 694 304 691 304 c 0
 687 304 685 305 684 305 c 0
695 653 m 1
 727 697 l 1
 795 639 l 1
 791 629 782 623 768 623 c 2
 679 623 l 1
 679 437 l 2
 678 432 668 426 648 420 c 0
 640 417 633 416 628 416 c 2
 618 416 l 1
 618 623 l 1
 574 623 l 1
 574 477 l 2
 573 472 563 466 544 460 c 0
 536 457 529 456 523 456 c 2
 513 456 l 1
 513 623 l 1
 470 623 l 1
 470 483 l 2
 469 478 459 472 440 466 c 0
 432 463 425 462 419 462 c 2
 409 462 l 1
 409 623 l 1
 366 623 l 1
 366 432 l 2
 365 427 355 421 335 415 c 0
 327 412 320 411 315 411 c 2
 305 411 l 1
 305 623 l 1
 259 623 l 1
 250 653 l 1
 305 653 l 1
 305 809 l 1
 400 798 l 1
 397 785 387 776 370 773 c 0
 368 772 367 772 366 772 c 1
 366 653 l 1
 409 653 l 1
 409 818 l 1
 505 807 l 1
 502 793 491 785 472 781 c 0
 471 781 470 781 470 781 c 1
 470 653 l 1
 513 653 l 1
 513 818 l 1
 609 807 l 1
 606 793 595 785 576 781 c 0
 575 781 575 781 574 781 c 1
 574 653 l 1
 618 653 l 1
 618 809 l 1
 713 798 l 1
 710 785 700 776 683 773 c 0
 681 772 680 772 679 772 c 1
 679 653 l 1
 695 653 l 1
EndSplineSet
EndChar

StartChar: u18DB1
Encoding: 101809 101809 89
Width: 1000
GlyphClass: 1
Flags: W
HStem: 640 18<417.185 424.97 724.185 734.375> 721 30<251 652>
VStem: 359 69<-55.2794 118.58> 458 65<28.6479 338.461 356 382 411 658.205>
LayerCount: 2
Fore
SplineSet
762 721 m 2
 251 721 l 1
 242 751 l 1
 652 751 l 1
 699 813 l 1
 789 737 l 1
 785 727 776 721 762 721 c 2
192 308 m 1
 199 317 204 326 211 337 c 0
 269 432 308 548 330 685 c 1
 437 658 l 1
 432 649 424 643 415 640 c 2
 410 640 l 2
 406 639 404 639 402 639 c 0
 371 533 327 443 270 370 c 1
 297 332 319 299 336 269 c 1
 355 322 371 377 384 436 c 1
 458 411 l 1
 458 689 l 1
 559 678 l 1
 555 663 543 654 523 650 c 1
 523 356 l 1
 578 448 616 558 637 685 c 1
 744 656 l 1
 739 647 731 641 721 639 c 0
 718 638 714 638 708 638 c 1
 680 549 644 472 599 407 c 1
 609 359 626 309 650 257 c 1
 670 308 688 368 703 437 c 1
 808 402 l 1
 802 392 794 386 783 384 c 0
 780 383 776 383 770 383 c 1
 749 312 721 247 688 187 c 1
 733 113 789 45 857 -19 c 1
 853 -29 l 1
 830 -24 808 -35 785 -61 c 0
 782 -65 779 -69 777 -72 c 1
 725 -13 683 52 649 123 c 1
 601 51 543 -13 477 -71 c 1
 462 -60 l 1
 527 14 580 96 622 188 c 1
 600 249 585 312 577 377 c 1
 557 352 539 332 523 316 c 1
 523 42 l 2
 522 37 511 31 490 25 c 0
 481 22 474 21 468 21 c 2
 458 21 l 1
 458 382 l 1
 451 382 l 1
 431 316 405 254 375 197 c 1
 425 97 442 22 428 -27 c 0
 423 -47 412 -57 396 -58 c 0
 391 -59 386 -58 382 -56 c 0
 373 -52 366 -45 359 -35 c 1
 358 19 350 74 335 130 c 1
 287 57 228 -11 158 -72 c 1
 143 -61 l 1
 213 17 269 107 313 209 c 1
 294 263 275 310 255 351 c 1
 242 335 226 317 206 297 c 1
 192 308 l 1
EndSplineSet
EndChar

StartChar: u18DB2
Encoding: 101810 101810 90
Width: 1000
GlyphClass: 1
Flags: W
HStem: -70 30<322 512> -30 15<205.8 214.959> 38 11<781.017 798> 602 30<339 485 506 623> 722 30<233 634>
VStem: 263 65<86.6479 602> 634 65<128.648 245.861 265 597.762>
LayerCount: 2
Fore
SplineSet
313 -40 m 1
 512 -40 l 1
 562 25 l 1
 655 -54 l 1
 651 -64 642 -70 628 -70 c 2
 322 -70 l 1
 313 -40 l 1
614 246 m 1
 587 211 558 178 525 147 c 1
 607 92 698 60 799 49 c 1
 798 38 l 1
 763 30 740 11 729 -19 c 1
 635 8 556 53 490 116 c 1
 409 50 316 1 210 -30 c 1
 201 -15 l 1
 296 23 380 79 454 154 c 1
 428 185 407 216 391 247 c 1
 376 239 360 232 343 226 c 1
 334 240 l 1
 414 288 480 362 534 464 c 0
 535 466 536 468 537 469 c 2
 621 413 l 1
 614 405 606 402 595 403 c 0
 590 403 585 405 581 407 c 1
 533 342 475 291 407 255 c 1
 432 226 456 201 480 182 c 1
 514 220 545 260 572 302 c 1
 634 265 l 1
 634 602 l 1
 506 602 l 1
 576 559 l 1
 569 552 560 548 549 549 c 0
 548 549 547 550 545 550 c 0
 541 551 538 551 537 552 c 1
 489 486 429 433 355 391 c 1
 344 403 l 1
 396 449 443 516 485 602 c 1
 328 602 l 1
 328 100 l 2
 327 95 316 89 295 83 c 0
 286 80 279 79 273 79 c 2
 263 79 l 1
 263 665 l 1
 276 659 l 1
 339 632 l 1
 623 632 l 1
 659 671 l 1
 740 610 l 1
 731 601 717 595 699 591 c 1
 699 142 l 2
 698 137 687 131 666 125 c 0
 657 122 650 121 644 121 c 2
 634 121 l 1
 634 242 l 2
 633 243 631 243 630 243 c 0
 625 242 619 243 614 246 c 1
750 722 m 2
 233 722 l 1
 224 752 l 1
 634 752 l 1
 684 817 l 1
 777 738 l 1
 773 728 764 722 750 722 c 2
EndSplineSet
EndChar

StartChar: u18DB3
Encoding: 101811 101811 91
Width: 1000
GlyphClass: 1
Flags: W
HStem: 38 11<781.017 798> 602 30<339 485 506 623> 722 30<233 634>
VStem: 263 65<86.6479 602> 454 67<-27.6594 50.9371> 634 65<128.648 245.861 265 597.762>
LayerCount: 2
Fore
SplineSet
614 246 m 1
 587 211 558 178 525 147 c 1
 607 92 698 60 799 49 c 1
 798 38 l 1
 763 30 740 11 729 -19 c 1
 635 8 556 53 490 116 c 1
 476.188576922 104.746247862 462.02826421 93.9867560396 447.514104392 83.7264820035 c 1
 467.587008926 73.7929889914 484.577506441 63.2174949902 499 52 c 0
 513 40 521 25 521 8 c 0
 521 -13 512 -26 494 -29 c 0
 491 -30 488 -30 486 -30 c 0
 475 -29 464 -25 454 -17 c 1
 447.223884739 18.8166092379 437.636601843 47.13677145 424.331065793 67.9604866362 c 1
 359.73341244 25.7240224878 288.424719585 -7.06446880049 210 -30 c 1
 201 -15 l 1
 296 23 380 79 454 154 c 1
 428 185 407 216 391 247 c 1
 376 239 360 232 343 226 c 1
 334 240 l 1
 414 288 480 362 534 464 c 0
 535 466 536 468 537 469 c 2
 621 413 l 1
 614 405 606 402 595 403 c 0
 590 403 585 405 581 407 c 1
 533 342 475 291 407 255 c 1
 432 226 456 201 480 182 c 1
 514 220 545 260 572 302 c 1
 634 265 l 1
 634 602 l 1
 506 602 l 1
 576 559 l 1
 569 552 560 548 549 549 c 0
 548 549 547 550 545 550 c 0
 541 551 538 551 537 552 c 1
 489 486 429 433 355 391 c 1
 344 403 l 1
 396 449 443 516 485 602 c 1
 328 602 l 1
 328 100 l 2
 327 95 316 89 295 83 c 0
 286 80 279 79 273 79 c 2
 263 79 l 1
 263 665 l 1
 276 659 l 1
 339 632 l 1
 623 632 l 1
 659 671 l 1
 740 610 l 1
 731 601 717 595 699 591 c 1
 699 142 l 2
 698 137 687 131 666 125 c 0
 657 122 650 121 644 121 c 2
 634 121 l 1
 634 242 l 2
 633 243 631 243 630 243 c 0
 625 242 619 243 614 246 c 1
750 722 m 2
 233 722 l 1
 224 752 l 1
 634 752 l 1
 684 817 l 1
 777 738 l 1
 773 728 764 722 750 722 c 2
EndSplineSet
EndChar

StartChar: u18DB4
Encoding: 101812 101812 92
Width: 1000
GlyphClass: 1
Flags: W
HStem: -74 58<674.14 733.039> 553 29<298 434> 590 30<546 593 660 711> 718 30<234 402> 737 30<573 670>
VStem: 233 65<134.648 447 462.98 553> 453 69<-73.2572 91.584> 593 67<-14.9004 267.387 287 590> 774 16<170.976 219>
LayerCount: 2
Fore
SplineSet
298 553 m 1xe780
 298 492 l 1
 333 445 367 395 399 341 c 1
 417 405 430 475 436 553 c 1
 298 553 l 1xe780
289 582 m 1
 434 582 l 1
 465 623 l 1
 559 559 l 1
 551 551 538 547 519 546 c 1
 506 442 481 348 443 263 c 1
 512 131 539 29 522 -41 c 0
 516 -63 505 -75 488 -77 c 0
 484 -77 480 -77 477 -76 c 0
 469 -73 461 -66 453 -57 c 1
 449 18 433 100 406 188 c 1
 340 72 258 -17 160 -78 c 1
 145 -67 l 1
 251 26 328 139 377 272 c 1
 353 334 327 392 298 447 c 1
 298 148 l 2
 297 143 286 137 265 131 c 0
 256 128 249 127 243 127 c 2
 233 127 l 1
 233 612 l 1
 289 582 l 1
827 590 m 2
 660 590 l 1
 660 287 l 1
 701 331 731 376 751 421 c 1
 828 364 l 1
 823 356 815 351 805 351 c 0
 802 351 797 352 790 353 c 1
 760 319 717 286 660 256 c 1
 660 15 l 2
 660 -3 665 -13 674 -15 c 0
 677 -16 679 -16 682 -16 c 0
 700 -16 711 -16 714 -15 c 0
 722 -11 729 -3 734 8 c 0
 742 28 755 98 774 219 c 1
 790 219 l 1
 791 -1 l 1
 815 -9 827 -19 828 -30 c 0
 828 -50 815 -62 788 -68 c 0
 768 -72 734 -74 686 -74 c 0
 639 -74 611 -64 601 -45 c 0
 596 -34 593 -20 593 -2 c 2
 593 590 l 1
 546 590 l 1
 537 620 l 1
 711 620 l 1
 761 685 l 1
 854 606 l 1
 850 596 841 590 827 590 c 2
513 718 m 2xf780
 234 718 l 1
 225 748 l 1
 402 748 l 1
 450 811 l 1
 540 734 l 1
 536 724 527 718 513 718 c 2xf780
786 737 m 2xef80
 573 737 l 1
 564 767 l 1
 670 767 l 1
 720 832 l 1
 813 753 l 1
 809 743 800 737 786 737 c 2xef80
EndSplineSet
EndChar

StartChar: u18DB5
Encoding: 101813 101813 93
Width: 1000
GlyphClass: 1
Flags: W
HStem: -75 56<653.094 697.425> 210 30<398 454 519 584 649 681> 405 30<530 573> 554 30<432 545.932 567 625>
VStem: 217 65<-27.3521 711.205> 333 65<-67.3521 210 240 715.205> 454 65<-67.3521 210 240 405> 478 66<645.953 740.66> 584 65<-16.8997 210 240 400.762> 730 17<98.0781 147>
LayerCount: 2
Fore
SplineSet
519 405 m 1xfec0
 519 240 l 1
 584 240 l 1
 584 405 l 1
 519 405 l 1xfec0
756 210 m 2
 649 210 l 1
 649 15 l 2
 649 -4 650 -15 653 -17 c 0
 655 -18 657 -19 659 -19 c 2
 678 -17 l 2
 680 -17 681 -16 682 -16 c 0
 688 -12 694 -5 698 4 c 0
 708 28 719 76 730 147 c 1
 747 147 l 1
 748 0 l 1
 767 -10 777 -20 778 -29 c 0
 778 -54 750 -69 695 -74 c 0
 685 -75 675 -75 666 -75 c 0
 624 -74 599 -66 591 -50 c 0
 586 -41 584 -28 584 -10 c 2
 584 210 l 1
 519 210 l 1
 519 -54 l 2
 518 -59 507 -65 486 -71 c 0
 477 -74 470 -75 464 -75 c 2
 454 -75 l 1
 454 210 l 1
 398 210 l 1
 398 -54 l 2
 397 -59 386 -65 365 -71 c 0
 356 -74 349 -75 343 -75 c 2
 333 -75 l 1
 333 746 l 1
 434 735 l 1
 430 720 418 711 398 707 c 1
 398 240 l 1
 454 240 l 1
 454 468 l 1xfec0
 478 458 l 1xfdc0
 530 435 l 1
 573 435 l 1
 609 474 l 1
 690 413 l 1
 681 404 667 398 649 394 c 1
 649 240 l 1
 681 240 l 1
 714 286 l 1
 783 226 l 1
 779 216 770 210 756 210 c 2
424 795 m 1
 436 799 l 1
 499 772 535 738 544 699 c 0
 549 676 544 659 528 649 c 0
 511 638 495 642 478 661 c 1xfdc0
 477 703 459 748 424 795 c 1
432 554 m 1
 423 584 l 1
 540 584 l 1
 565 641 594 714 626 804 c 1
 728 769 l 1
 719 756 706 751 688 753 c 1
 652 691 612 635 567 584 c 1
 625 584 l 1
 663 635 l 1
 738 570 l 1
 734 560 725 554 711 554 c 2
 432 554 l 1
217 -35 m 1
 217 742 l 1
 318 731 l 1
 314 716 302 707 282 703 c 1
 282 -14 l 2
 281 -19 270 -25 249 -31 c 0
 240 -34 233 -35 227 -35 c 2
 217 -35 l 1
EndSplineSet
EndChar

StartChar: u18DB6
Encoding: 101814 101814 94
Width: 1000
GlyphClass: 1
Flags: W
HStem: -77 14<249.5 256.138> 366 16<228.062 239.586>
VStem: 492 64<-74.3783 -16.2963> 608 61<-68.1913 315.921>
LayerCount: 2
Fore
SplineSet
535 87 m 2
 523 92 l 1
 495 66 477 50 469 43 c 1
 525 11 554 -15 556 -37 c 0
 557 -58 549 -71 532 -75 c 0
 528 -76 524 -76 521 -76 c 0
 512 -75 502 -71 492 -64 c 1
 484 -36 467 -7 443 22 c 1
 384 -23 320 -56 253 -77 c 1
 246 -63 l 1
 330 -17 411 57 488 161 c 1
 563 92 l 1
 555 86 545 84 535 87 c 2
277 73 m 1
 269 86 l 1
 340 132 406 202 467 297 c 1
 546 231 l 1
 538 225 528 223 518 225 c 2
 506 229 l 1
 440 158 363 106 277 73 c 1
618 -75 m 2
 608 -75 l 1
 608 345 l 1
 704 334 l 1
 699 320 688 311 669 307 c 1
 669 -54 l 2
 668 -59 658 -65 639 -71 c 0
 631 -74 624 -75 618 -75 c 2
279 218 m 1
 271 231 l 1
 329 275 383 340 431 427 c 1
 514 366 l 1
 506 359 496 356 486 358 c 2
 474 362 l 1
 422 301 357 253 279 218 c 1
671 644 m 1
 626 594 578 550 527 512 c 1
 601 481 684 453 776 430 c 1
 773 419 l 1
 746 412 727 394 717 364 c 1
 627 391 546 428 472 475 c 1
 399 428 319 392 232 366 c 1
 223 382 l 1
 294 412 362 453 428 505 c 1
 383 538 345 574 313 612 c 1
 389 668 450 732 495 805 c 1
 578 749 l 1
 573 741 565 737 555 737 c 0
 549 737 544 738 538 740 c 1
 493 691 434 645 361 604 c 1
 393 580 429 559 468 539 c 1
 524 589 576 645 625 708 c 1
 711 650 l 1
 705 643 697 639 687 640 c 0
 682 640 677 642 671 644 c 1
EndSplineSet
EndChar

StartChar: u18DB7
Encoding: 101815 101815 95
Width: 1000
GlyphClass: 1
Flags: W
HStem: 29 30<287 453 518 631> 144 30<323 453 518 594> 256 30<390 453 518 633> 417 30<310 476> 449 17<244.118 258.492>
VStem: 453 65<-67.3521 29 59 144 174 256 286 322.205>
LayerCount: 2
Fore
SplineSet
453 327 m 1
 390 286 l 1
 453 286 l 1
 453 327 l 1
518 59 m 1
 631 59 l 1
 665 105 l 1
 735 45 l 1
 731 35 722 29 708 29 c 2
 518 29 l 1
 518 -54 l 2
 517 -59 506 -65 485 -71 c 0
 476 -74 469 -75 463 -75 c 2
 453 -75 l 1
 453 29 l 1
 287 29 l 1
 278 59 l 1
 453 59 l 1
 453 144 l 1
 323 144 l 1
 314 174 l 1
 453 174 l 1
 453 256 l 1
 353 256 l 1
 328 235 l 1
 272 289 l 1
 287 297 305 303 326 307 c 1
 476 417 l 1
 310 417 l 1
 301 447 l 1
 482 447 l 1
 511 484 l 1
 600 410 l 1
 592 402 579 398 560 397 c 1
 487 349 l 1
 554 342 l 1
 550 327 538 318 518 314 c 1
 518 286 l 1
 633 286 l 1
 620 314 600 344 574 374 c 1
 584 383 l 1
 623 364 653 347 674 332 c 0
 702 308 717 287 718 270 c 0
 718 247 708 235 689 231 c 0
 687 231 685 231 684 231 c 0
 672 232 661 236 651 243 c 0
 650 244 650 246 648 250 c 0
 647 253 647 255 646 256 c 2
 518 256 l 1
 518 174 l 1
 594 174 l 1
 629 220 l 1
 698 160 l 1
 694 150 685 144 671 144 c 2
 518 144 l 1
 518 59 l 1
654 676 m 1
 612 635 570 600 527 572 c 1
 594 548 671 526 759 506 c 1
 755 495 l 1
 733 492 717 479 706 457 c 0
 705 454 703 450 702 447 c 0
 619 470 543 501 475 539 c 1
 405 499 329 469 247 449 c 1
 240 466 l 1
 302 489 364 523 427 568 c 1
 383 598 346 630 316 663 c 1
 383 707 439 760 482 822 c 1
 563 765 l 1
 557 757 549 754 539 755 c 0
 537 755 535 755 531 756 c 0
 528 757 525 758 524 758 c 0
 479 716 426 680 363 651 c 1
 392 632 425 614 464 597 c 1
 516 639 565 688 612 742 c 1
 694 679 l 1
 688 672 679 669 669 671 c 0
 665 671 660 673 654 676 c 1
EndSplineSet
EndChar

StartChar: u18DB8
Encoding: 101816 101816 96
Width: 1000
GlyphClass: 1
Flags: W
HStem: 423 30<372 588> 545 30<377 578> 650 30<325 444 509 597>
VStem: 250 65<7.64787 650> 444 65<680 791.205> 588 68<395.958 423 453 540.226>
LayerCount: 2
Fore
SplineSet
638 189 m 1
 607 151 579 120 553 95 c 1
 609 55 674 23 749 -1 c 1
 747 -12 l 1
 719 -16 698 -33 684 -63 c 0
 682 -67 680 -71 679 -75 c 1
 613 -42 556 2 509 55 c 1
 444 1 373 -42 295 -72 c 1
 286 -58 l 1
 351 -19 414 34 473 100 c 1
 454 126 436 156 418 191 c 1
 395 175 370 161 345 149 c 1
 335 162 l 1
 399 212 454 286 501 384 c 1
 588 325 l 1
 581 318 572 315 561 316 c 0
 557 316 553 317 548 319 c 1
 514 273 478 235 439 206 c 1
 455 183 477 160 503 136 c 1
 535 175 563 215 589 256 c 1
 678 196 l 1
 672 188 663 185 652 187 c 0
 649 186 644 187 638 189 c 1
599 387 m 2
 588 387 l 1
 588 423 l 1
 372 423 l 1
 363 453 l 1
 588 453 l 1
 588 545 l 1
 377 545 l 1
 368 575 l 1
 578 575 l 1
 617 617 l 1
 697 553 l 1
 690 545 676 538 656 534 c 1
 656 412 l 2
 655 406 645 400 625 392 c 0
 615 389 606 387 599 387 c 2
315 650 m 1
 315 21 l 2
 314 16 303 10 282 4 c 0
 273 1 266 0 260 0 c 2
 250 0 l 1
 250 713 l 1
 325 680 l 1
 444 680 l 1
 444 822 l 1
 545 811 l 1
 541 796 529 787 509 783 c 1
 509 680 l 1
 597 680 l 1
 647 744 l 1
 670 727 701 700 740 665 c 1
 736 655 728 650 716 650 c 2
 315 650 l 1
EndSplineSet
EndChar

StartChar: u18DB9
Encoding: 101817 101817 97
Width: 1000
GlyphClass: 1
Flags: W
HStem: -75 57<611.023 674.051> 302 30<337 389> 431 30<233 410> 562 30<230 481.176 502 655>
VStem: 261 65<-62.3521 302> 400 65<-67.3521 297.762> 543 67<-17.4311 210.448 231 481.807> 711 16<135.062 178>
LayerCount: 2
Fore
SplineSet
337 332 m 1
 389 332 l 1
 425 371 l 1
 506 310 l 1
 497 301 483 295 465 291 c 1
 465 -54 l 2
 464 -59 453 -65 432 -71 c 0
 423 -74 416 -75 410 -75 c 2
 400 -75 l 1
 400 302 l 1
 326 302 l 1
 326 -49 l 2
 325 -54 314 -60 293 -66 c 0
 284 -69 277 -70 271 -70 c 2
 261 -70 l 1
 261 365 l 1
 337 332 l 1
727 178 m 1
 728 -3 l 1
 750 -12 762 -21 763 -31 c 0
 763 -53 743 -67 704 -72 c 0
 687 -74 664 -75 635 -75 c 0
 589 -75 561 -65 551 -46 c 0
 546 -36 543 -21 543 -3 c 2
 543 514 l 1
 647 502 l 1
 643 487 631 478 610 474 c 1
 610 231 l 1
 639 276 662 323 679 372 c 1
 762 320 l 1
 757 312 749 307 739 307 c 0
 736 307 731 308 724 309 c 1
 698 272 660 233 610 194 c 1
 610 14 l 2
 610 -5 614 -16 623 -17 c 0
 625 -18 626 -18 628 -18 c 0
 641 -18 650 -17 656 -16 c 0
 664 -12 670 -5 675 6 c 0
 682 23 694 80 711 178 c 1
 727 178 l 1
224 461 m 1
 410 461 l 1
 450 514 l 1
 527 447 l 1
 523 437 514 431 500 431 c 2
 233 431 l 1
 224 461 l 1
298 785 m 1
 310 790 l 1
 374 764 410 731 420 693 c 0
 426 669 421 652 404 641 c 0
 388 631 372 634 355 652 c 1
 352 695 333 739 298 785 c 1
655 592 m 1
 698 648 l 1
 779 578 l 1
 775 568 766 562 752 562 c 2
 230 562 l 1
 221 592 l 1
 475 592 l 1
 508 656 540 724 571 796 c 1
 672 759 l 1
 663 747 650 742 632 744 c 1
 595 692 551 641 502 592 c 1
 655 592 l 1
EndSplineSet
EndChar

StartChar: u18DBA
Encoding: 101818 101818 98
Width: 1000
GlyphClass: 1
Flags: W
HStem: -75 57<621.204 675.623> 366 30<285 380> 485 30<258 406> 604 30<251 507.525 536 656>
VStem: 380 64<657.552 737.656> 548 67<-16.9004 101 109 226.141 246 521.807> 718 18<109.519 157>
LayerCount: 2
Fore
SplineSet
328 1 m 0
 334 -4 342 -5 354 -3 c 0
 382 8 411 45 440 106 c 1
 413 131 l 1
 377 94 341 65 307 44 c 1
 315 22 322 7 328 1 c 0
736 157 m 1
 737 -4 l 1
 758 -11 769 -20 770 -31 c 0
 770 -53 751 -67 712 -72 c 0
 694 -74 669 -75 638 -75 c 0
 593 -75 565 -66 556 -47 c 0
 551 -36 548 -22 548 -3 c 2
 548 101 l 1
 538 97 524 95 508 96 c 1
 474 19 434 -31 390 -53 c 0
 389 -53 388 -54 387 -54 c 0
 351 -71 313 -77 274 -73 c 1
 286 -50 293 -30 293 -11 c 0
 293 7 292 22 289 34 c 1
 275 26 257 18 229 7 c 1
 222 20 l 1
 285 61 327 110 372 169 c 1
 347 193 l 1
 334 168 l 1
 251 222 l 1
 263 232 277 238 291 239 c 1
 383 366 l 1
 285 366 l 1
 276 396 l 1
 380 396 l 1
 422 428 l 1
 492 367 l 1
 482 355 469 350 453 351 c 1
 360 229 l 1
 392 197 l 1
 413 228 433 261 452 295 c 1
 548 258 l 1
 548 554 l 1
 652 542 l 1
 648 527 636 518 615 514 c 1
 615 246 l 1
 646 298 669 349 684 399 c 1
 769 348 l 1
 764 340 756 335 746 335 c 0
 743 335 738 336 731 337 c 1
 704 294 665 251 615 208 c 1
 615 14 l 2
 615 -5 619 -15 626 -17 c 0
 628 -18 630 -18 633 -18 c 0
 652 -18 663 -17 667 -16 c 0
 675 -12 681 -5 686 5 c 0
 692 22 703 72 718 157 c 1
 736 157 l 1
447 570 m 1
 528 501 l 1
 524 491 515 485 501 485 c 2
 258 485 l 1
 249 515 l 1
 406 515 l 1
 447 570 l 1
322 792 m 1
 333 797 l 1
 396 777 433 748 444 712 c 0
 450 689 445 672 429 661 c 0
 414 651 397 654 380 670 c 1
 375 711 356 751 322 792 c 1
656 634 m 1
 697 689 l 1
 777 620 l 1
 773 610 764 604 750 604 c 2
 251 604 l 1
 242 634 l 1
 501 634 l 1
 529 691 555 748 578 806 c 1
 681 772 l 1
 672 759 659 754 641 756 c 1
 611 715 576 674 536 634 c 1
 656 634 l 1
548 258 m 1
 542 245 529 241 507 246 c 1
 477 206 453 176 435 155 c 1
 445 145 l 1
 489 175 l 1
 548 109 l 1
 548 258 l 1
EndSplineSet
EndChar

StartChar: u18DBB
Encoding: 101819 101819 99
Width: 1000
GlyphClass: 1
Flags: W
HStem: -75 16<194.5 201.692> 561 30<261 519.085 539 686>
VStem: 526 65<-81.0781 -17.5837> 641 65<-67.3521 483.205>
LayerCount: 2
Fore
SplineSet
198 -75 m 1
 190 -59 l 1
 315 -2 431 94 536 230 c 1
 619 159 l 1
 611 153 602 151 592 154 c 0
 589 154 585 156 580 158 c 1
 548 125 514 95 477 66 c 1
 541 30 579 -3 589 -31 c 0
 590 -36 591 -40 591 -44 c 0
 591 -66 582 -79 565 -83 c 0
 561 -83 558 -83 555 -83 c 0
 545 -81 535 -77 526 -70 c 1
 515 -30 491 10 454 49 c 1
 376 -8 291 -49 198 -75 c 1
236 116 m 2
 227 131 l 1
 326 187 418 275 506 396 c 0
 509 400 512 403 514 407 c 1
 599 338 l 1
 591 331 582 329 571 332 c 2
 559 336 l 1
 461 230 355 157 242 118 c 0
 240 117 238 117 236 116 c 2
651 -75 m 2
 641 -75 l 1
 641 514 l 1
 742 503 l 1
 738 488 726 479 706 475 c 1
 706 -54 l 2
 705 -59 694 -65 673 -71 c 0
 664 -74 657 -75 651 -75 c 2
241 291 m 2
 232 306 l 1
 312 358 385 438 453 546 c 1
 540 480 l 1
 533 473 524 471 513 473 c 0
 510 473 506 475 500 477 c 1
 426 392 341 331 247 294 c 0
 245 293 243 292 241 291 c 2
336 785 m 1
 348 790 l 1
 412 764 448 731 458 693 c 0
 464 669 459 652 442 641 c 0
 426 631 410 634 393 652 c 1
 390 695 371 739 336 785 c 1
686 591 m 1
 729 647 l 1
 810 577 l 1
 806 567 797 561 783 561 c 2
 261 561 l 1
 252 591 l 1
 512 591 l 1
 542 648 575 716 609 796 c 1
 710 759 l 1
 701 747 688 742 670 744 c 1
 632 691 589 640 539 591 c 1
 686 591 l 1
EndSplineSet
EndChar

StartChar: u18DBC
Encoding: 101820 101820 100
Width: 1000
GlyphClass: 1
Flags: W
HStem: 183 30<428 524> 261 11<734.065 750> 603 30<317 461 486 494.622 520 615>
VStem: 352 65<-62.3521 183> 367 63<663.781 745.49> 535 65<-67.3521 178.762>
LayerCount: 2
Fore
SplineSet
428 213 m 1xf4
 524 213 l 1
 560 252 l 1
 641 191 l 1
 632 182 618 176 600 172 c 1
 600 -54 l 2
 599 -59 588 -65 567 -71 c 0
 558 -74 551 -75 545 -75 c 2
 535 -75 l 1
 535 183 l 1
 417 183 l 1
 417 -49 l 2
 416 -54 405 -60 384 -66 c 0
 375 -69 368 -70 362 -70 c 2
 352 -70 l 1
 352 246 l 1
 366 239 l 1
 428 213 l 1xf4
307 805 m 1
 318 810 l 1
 382 787 419 757 430 719 c 0
 437 696 432 678 416 668 c 0
 401 657 384 660 367 677 c 1xec
 362 718 342 760 307 805 c 1
645 477 m 0
 606 430 563 387 516 350 c 1
 585 321 665 295 754 272 c 1
 750 261 l 1
 724 256 706 238 694 209 c 1
 611 235 535 270 464 314 c 1
 400 274 330 243 254 222 c 1
 246 238 l 1
 306 263 364 298 421 343 c 1
 377 376 341 410 311 446 c 1
 373 491 423 544 461 603 c 1
 317 603 l 1
 308 633 l 1
 487 633 l 1
 514 684 542 744 573 814 c 1
 674 777 l 1
 665 766 651 761 634 763 c 1
 601 717 563 674 520 633 c 1
 615 633 l 1
 657 688 l 1
 737 619 l 1
 733 609 724 603 710 603 c 2
 486 603 l 1
 553 561 l 1
 547 553 539 549 529 549 c 2
 514 552 l 1
 472 507 420 469 358 437 c 1
 386 416 419 396 459 376 c 1
 512 426 559 480 598 539 c 1
 685 482 l 1
 678 475 669 471 660 472 c 0
 653 474 648 476 645 477 c 0
EndSplineSet
EndChar

StartChar: u18DBD
Encoding: 101821 101821 101
Width: 1000
GlyphClass: 1
Flags: W
HStem: 76 30<421 554 619 698> 216 30<438 554 619 673> 301 16<207.812 237.906> 482 29<322 618> 618 30<296 555.932 583 669>
VStem: 316 65<-67.3521 319> 554 65<-67.3521 76 106 216 246 350.205>
LayerCount: 2
Fore
SplineSet
698 106 m 1
 729 149 l 1
 794 92 l 1
 790 82 781 76 767 76 c 2
 619 76 l 1
 619 -54 l 2
 618 -59 607 -65 586 -71 c 0
 577 -74 570 -75 564 -75 c 2
 554 -75 l 1
 554 76 l 1
 421 76 l 1
 412 106 l 1
 554 106 l 1
 554 216 l 1
 438 216 l 1
 429 246 l 1
 554 246 l 1
 554 381 l 1
 655 370 l 1
 651 355 639 346 619 342 c 1
 619 246 l 1
 673 246 l 1
 704 289 l 1
 769 232 l 1
 765 222 756 216 742 216 c 2
 619 216 l 1
 619 106 l 1
 698 106 l 1
737 488 m 1
 729 480 716 476 697 475 c 1
 629 415 524 367 381 332 c 1
 381 -54 l 2
 380 -59 369 -65 348 -71 c 0
 339 -74 332 -75 326 -75 c 2
 316 -75 l 1
 316 319 l 1
 294 314 259 308 210 301 c 1
 205 317 l 1
 383 354 521 409 618 482 c 1
 322 482 l 1
 313 511 l 1
 621 511 l 1
 652 549 l 1
 737 488 l 1
337 809 m 1
 348 814 l 1
 412 792 449 762 461 724 c 0
 467 700 463 683 447 672 c 0
 432 661 416 664 398 681 c 1
 393 722 373 765 337 809 c 1
761 618 m 2
 296 618 l 1
 287 648 l 1
 550 648 l 1
 571 700 593 758 615 824 c 1
 717 789 l 1
 708 776 695 771 677 773 c 1
 645 724 614 683 583 648 c 1
 669 648 l 1
 710 701 l 1
 788 634 l 1
 784 624 775 618 761 618 c 2
EndSplineSet
EndChar

